%TF.GenerationSoftware,KiCad,Pcbnew,9.0.1*%
%TF.CreationDate,2025-07-31T04:03:32-05:00*%
%TF.ProjectId,TractionInverter,54726163-7469-46f6-9e49-6e7665727465,rev?*%
%TF.SameCoordinates,Original*%
%TF.FileFunction,Soldermask,Top*%
%TF.FilePolarity,Negative*%
%FSLAX46Y46*%
G04 Gerber Fmt 4.6, Leading zero omitted, Abs format (unit mm)*
G04 Created by KiCad (PCBNEW 9.0.1) date 2025-07-31 04:03:32*
%MOMM*%
%LPD*%
G01*
G04 APERTURE LIST*
G04 Aperture macros list*
%AMRoundRect*
0 Rectangle with rounded corners*
0 $1 Rounding radius*
0 $2 $3 $4 $5 $6 $7 $8 $9 X,Y pos of 4 corners*
0 Add a 4 corners polygon primitive as box body*
4,1,4,$2,$3,$4,$5,$6,$7,$8,$9,$2,$3,0*
0 Add four circle primitives for the rounded corners*
1,1,$1+$1,$2,$3*
1,1,$1+$1,$4,$5*
1,1,$1+$1,$6,$7*
1,1,$1+$1,$8,$9*
0 Add four rect primitives between the rounded corners*
20,1,$1+$1,$2,$3,$4,$5,0*
20,1,$1+$1,$4,$5,$6,$7,0*
20,1,$1+$1,$6,$7,$8,$9,0*
20,1,$1+$1,$8,$9,$2,$3,0*%
G04 Aperture macros list end*
%ADD10RoundRect,0.225000X-0.225000X-0.250000X0.225000X-0.250000X0.225000X0.250000X-0.225000X0.250000X0*%
%ADD11C,2.604000*%
%ADD12C,0.900000*%
%ADD13C,13.000000*%
%ADD14RoundRect,0.250000X-0.325000X-1.100000X0.325000X-1.100000X0.325000X1.100000X-0.325000X1.100000X0*%
%ADD15R,1.150000X0.600000*%
%ADD16RoundRect,0.218750X-0.218750X-0.256250X0.218750X-0.256250X0.218750X0.256250X-0.218750X0.256250X0*%
%ADD17R,1.700000X1.700000*%
%ADD18C,1.700000*%
%ADD19RoundRect,0.150000X-0.875000X-0.150000X0.875000X-0.150000X0.875000X0.150000X-0.875000X0.150000X0*%
%ADD20RoundRect,0.249999X-0.525001X-0.900001X0.525001X-0.900001X0.525001X0.900001X-0.525001X0.900001X0*%
%ADD21RoundRect,0.200000X-0.200000X-0.275000X0.200000X-0.275000X0.200000X0.275000X-0.200000X0.275000X0*%
%ADD22R,2.150000X5.500000*%
%ADD23R,1.500000X1.500000*%
%ADD24C,1.500000*%
%ADD25RoundRect,0.250000X-0.312500X-0.625000X0.312500X-0.625000X0.312500X0.625000X-0.312500X0.625000X0*%
%ADD26RoundRect,0.200000X0.275000X-0.200000X0.275000X0.200000X-0.275000X0.200000X-0.275000X-0.200000X0*%
%ADD27RoundRect,0.200000X-0.275000X0.200000X-0.275000X-0.200000X0.275000X-0.200000X0.275000X0.200000X0*%
%ADD28RoundRect,0.200000X0.200000X0.275000X-0.200000X0.275000X-0.200000X-0.275000X0.200000X-0.275000X0*%
%ADD29RoundRect,0.250000X-0.625000X0.312500X-0.625000X-0.312500X0.625000X-0.312500X0.625000X0.312500X0*%
%ADD30RoundRect,0.250000X0.625000X-0.312500X0.625000X0.312500X-0.625000X0.312500X-0.625000X-0.312500X0*%
%ADD31RoundRect,0.250000X-0.262500X-0.450000X0.262500X-0.450000X0.262500X0.450000X-0.262500X0.450000X0*%
%ADD32RoundRect,0.250000X0.250000X0.475000X-0.250000X0.475000X-0.250000X-0.475000X0.250000X-0.475000X0*%
%ADD33RoundRect,0.225000X0.225000X0.250000X-0.225000X0.250000X-0.225000X-0.250000X0.225000X-0.250000X0*%
%ADD34RoundRect,0.250000X-0.250000X-0.475000X0.250000X-0.475000X0.250000X0.475000X-0.250000X0.475000X0*%
%ADD35RoundRect,0.225000X0.250000X-0.225000X0.250000X0.225000X-0.250000X0.225000X-0.250000X-0.225000X0*%
%ADD36RoundRect,0.225000X-0.250000X0.225000X-0.250000X-0.225000X0.250000X-0.225000X0.250000X0.225000X0*%
%ADD37RoundRect,0.250000X1.100000X-0.325000X1.100000X0.325000X-1.100000X0.325000X-1.100000X-0.325000X0*%
%ADD38RoundRect,0.250000X-0.650000X-2.450000X0.650000X-2.450000X0.650000X2.450000X-0.650000X2.450000X0*%
%ADD39RoundRect,0.250000X-0.650000X1.000000X-0.650000X-1.000000X0.650000X-1.000000X0.650000X1.000000X0*%
%ADD40RoundRect,0.150000X-0.150000X0.587500X-0.150000X-0.587500X0.150000X-0.587500X0.150000X0.587500X0*%
%ADD41RoundRect,0.250000X0.650000X-1.000000X0.650000X1.000000X-0.650000X1.000000X-0.650000X-1.000000X0*%
%ADD42RoundRect,0.150000X0.150000X-0.875000X0.150000X0.875000X-0.150000X0.875000X-0.150000X-0.875000X0*%
%ADD43RoundRect,0.218750X0.218750X0.256250X-0.218750X0.256250X-0.218750X-0.256250X0.218750X-0.256250X0*%
%ADD44RoundRect,0.250000X0.850000X0.350000X-0.850000X0.350000X-0.850000X-0.350000X0.850000X-0.350000X0*%
%ADD45RoundRect,0.249997X2.950003X2.650003X-2.950003X2.650003X-2.950003X-2.650003X2.950003X-2.650003X0*%
%ADD46RoundRect,0.150000X0.875000X0.150000X-0.875000X0.150000X-0.875000X-0.150000X0.875000X-0.150000X0*%
%ADD47RoundRect,0.218750X-0.256250X0.218750X-0.256250X-0.218750X0.256250X-0.218750X0.256250X0.218750X0*%
%ADD48O,3.600000X3.600000*%
%ADD49R,4.500000X2.500000*%
%ADD50O,4.500000X2.500000*%
%ADD51RoundRect,0.250000X-0.850000X-0.350000X0.850000X-0.350000X0.850000X0.350000X-0.850000X0.350000X0*%
%ADD52RoundRect,0.249997X-2.950003X-2.650003X2.950003X-2.650003X2.950003X2.650003X-2.950003X2.650003X0*%
%ADD53R,2.000000X3.600000*%
G04 APERTURE END LIST*
D10*
%TO.C,C161*%
X292405000Y-57140000D03*
X293955000Y-57140000D03*
%TD*%
%TO.C,C160*%
X292405000Y-54630000D03*
X293955000Y-54630000D03*
%TD*%
%TO.C,C164*%
X292405000Y-64670000D03*
X293955000Y-64670000D03*
%TD*%
%TO.C,C162*%
X292405000Y-59650000D03*
X293955000Y-59650000D03*
%TD*%
%TO.C,C163*%
X292405000Y-62160000D03*
X293955000Y-62160000D03*
%TD*%
%TO.C,C165*%
X292405000Y-67180000D03*
X293955000Y-67180000D03*
%TD*%
D11*
%TO.C,TP20*%
X298700000Y-117720000D03*
%TD*%
%TO.C,TP19*%
X298700000Y-112990000D03*
%TD*%
%TO.C,TP73*%
X297550000Y-65200000D03*
%TD*%
%TO.C,TP71*%
X297550000Y-55740000D03*
%TD*%
%TO.C,TP72*%
X297550000Y-60470000D03*
%TD*%
%TO.C,TP74*%
X297550000Y-69930000D03*
%TD*%
%TO.C,TP2*%
X298370000Y-97160000D03*
%TD*%
%TO.C,TP1*%
X298370000Y-92430000D03*
%TD*%
D12*
%TO.C,J1*%
X302595354Y-135577146D03*
X304023208Y-132130000D03*
X304023208Y-139024292D03*
X307470354Y-130702146D03*
D13*
X307470354Y-135577146D03*
D12*
X307470354Y-140452146D03*
X310917500Y-132130000D03*
X310917500Y-139024292D03*
X312345354Y-135577146D03*
%TD*%
D14*
%TO.C,C42*%
X288025000Y-112750000D03*
X290975000Y-112750000D03*
%TD*%
%TO.C,C46*%
X288025000Y-125500000D03*
X290975000Y-125500000D03*
%TD*%
D15*
%TO.C,U11*%
X301265000Y-70020000D03*
X301265000Y-70970000D03*
X301265000Y-71920000D03*
X303865000Y-71920000D03*
X303865000Y-70020000D03*
%TD*%
D16*
%TO.C,D39*%
X301172500Y-74590000D03*
X302747500Y-74590000D03*
%TD*%
D17*
%TO.C,J18*%
X307330000Y-81250000D03*
D18*
X309870000Y-81250000D03*
X307330000Y-83790000D03*
X309870000Y-83790000D03*
X307330000Y-86330000D03*
X309870000Y-86330000D03*
X307330000Y-88870000D03*
X309870000Y-88870000D03*
X307330000Y-91410000D03*
X309870000Y-91410000D03*
X307330000Y-93950000D03*
X309870000Y-93950000D03*
%TD*%
D17*
%TO.C,J12*%
X312330000Y-117830000D03*
D18*
X314870000Y-117830000D03*
X312330000Y-120370000D03*
X314870000Y-120370000D03*
X312330000Y-122910000D03*
X314870000Y-122910000D03*
%TD*%
D19*
%TO.C,IC13*%
X301720000Y-54965000D03*
X301720000Y-56235000D03*
X301720000Y-57505000D03*
X301720000Y-58775000D03*
X301720000Y-60045000D03*
X301720000Y-61315000D03*
X301720000Y-62585000D03*
X301720000Y-63855000D03*
X311020000Y-63855000D03*
X311020000Y-62585000D03*
X311020000Y-61315000D03*
X311020000Y-60045000D03*
X311020000Y-58775000D03*
X311020000Y-57505000D03*
X311020000Y-56235000D03*
X311020000Y-54965000D03*
%TD*%
D14*
%TO.C,C44*%
X288025000Y-121250000D03*
X290975000Y-121250000D03*
%TD*%
D20*
%TO.C,C47*%
X302615000Y-124520000D03*
X306765000Y-124520000D03*
%TD*%
D21*
%TO.C,R37*%
X293505000Y-116900000D03*
X295155000Y-116900000D03*
%TD*%
D22*
%TO.C,L1*%
X303203500Y-114688500D03*
X307053500Y-114688500D03*
%TD*%
D20*
%TO.C,C40*%
X302615000Y-120670000D03*
X306765000Y-120670000D03*
%TD*%
D14*
%TO.C,C43*%
X288025000Y-117000000D03*
X290975000Y-117000000D03*
%TD*%
D23*
%TO.C,U2*%
X289585000Y-103120000D03*
D24*
X292125000Y-103120000D03*
X294665000Y-103120000D03*
X299745000Y-103120000D03*
X302285000Y-103120000D03*
X304825000Y-103120000D03*
X307365000Y-103120000D03*
%TD*%
D17*
%TO.C,J13*%
X311720000Y-106500000D03*
D18*
X314260000Y-106500000D03*
X311720000Y-109040000D03*
X314260000Y-109040000D03*
X311720000Y-111580000D03*
X314260000Y-111580000D03*
%TD*%
D16*
%TO.C,D4*%
X297592500Y-121380000D03*
X299167500Y-121380000D03*
%TD*%
D10*
%TO.C,C41*%
X293555000Y-111880000D03*
X295105000Y-111880000D03*
%TD*%
D12*
%TO.C,J2*%
X292797854Y-83922854D03*
X294225708Y-80475708D03*
X294225708Y-87370000D03*
X297672854Y-79047854D03*
D13*
X297672854Y-83922854D03*
D12*
X297672854Y-88797854D03*
X301120000Y-80475708D03*
X301120000Y-87370000D03*
X302547854Y-83922854D03*
%TD*%
D10*
%TO.C,C45*%
X293555000Y-114390000D03*
X295105000Y-114390000D03*
%TD*%
D21*
%TO.C,R38*%
X293505000Y-119410000D03*
X295155000Y-119410000D03*
%TD*%
D16*
%TO.C,D5*%
X297592500Y-123970000D03*
X299167500Y-123970000D03*
%TD*%
D21*
%TO.C,R139*%
X292355000Y-72200000D03*
X294005000Y-72200000D03*
%TD*%
D25*
%TO.C,R137*%
X301257500Y-66990000D03*
X304182500Y-66990000D03*
%TD*%
D21*
%TO.C,R138*%
X292355000Y-69690000D03*
X294005000Y-69690000D03*
%TD*%
%TO.C,R140*%
X292355000Y-74710000D03*
X294005000Y-74710000D03*
%TD*%
D11*
%TO.C,TP30*%
X106893207Y-61360295D03*
%TD*%
%TO.C,TP34*%
X171893207Y-49360295D03*
%TD*%
%TO.C,TP28*%
X142893207Y-56360295D03*
%TD*%
%TO.C,TP29*%
X105643207Y-49360295D03*
%TD*%
%TO.C,TP31*%
X123893207Y-61360295D03*
%TD*%
%TO.C,TP32*%
X126893207Y-47360295D03*
%TD*%
%TO.C,TP27*%
X135643207Y-119360295D03*
%TD*%
%TO.C,TP33*%
X121893207Y-47360295D03*
%TD*%
%TO.C,TP35*%
X152643207Y-56360295D03*
%TD*%
%TO.C,TP36*%
X189893207Y-49360295D03*
%TD*%
%TO.C,TP41*%
X162143207Y-128110295D03*
%TD*%
%TO.C,TP39*%
X187893207Y-61360295D03*
%TD*%
%TO.C,TP40*%
X162143207Y-135110295D03*
%TD*%
%TO.C,TP42*%
X188393207Y-123860295D03*
%TD*%
%TO.C,TP37*%
X186893207Y-46360295D03*
%TD*%
%TO.C,TP47*%
X106893207Y-136860295D03*
%TD*%
%TO.C,TP45*%
X142893207Y-61360295D03*
%TD*%
%TO.C,TP38*%
X171893207Y-60110295D03*
%TD*%
%TO.C,TP48*%
X106893207Y-123860295D03*
%TD*%
%TO.C,TP46*%
X131393207Y-129610295D03*
%TD*%
%TO.C,TP43*%
X188393207Y-136860295D03*
%TD*%
%TO.C,TP44*%
X142893207Y-51360295D03*
%TD*%
D26*
%TO.C,R69*%
X117743207Y-113685295D03*
X117743207Y-112035295D03*
%TD*%
D27*
%TO.C,R66*%
X180893207Y-103035295D03*
X180893207Y-104685295D03*
%TD*%
D28*
%TO.C,R70*%
X167968207Y-54860295D03*
X166318207Y-54860295D03*
%TD*%
D29*
%TO.C,R74*%
X125393207Y-88397795D03*
X125393207Y-91322795D03*
%TD*%
D26*
%TO.C,R72*%
X172643207Y-57435295D03*
X172643207Y-55785295D03*
%TD*%
D27*
%TO.C,R67*%
X116043207Y-112035295D03*
X116043207Y-113685295D03*
%TD*%
D29*
%TO.C,R73*%
X125393207Y-68897795D03*
X125393207Y-71822795D03*
%TD*%
D26*
%TO.C,R68*%
X182593207Y-104685295D03*
X182593207Y-103035295D03*
%TD*%
D29*
%TO.C,R75*%
X125393207Y-107897795D03*
X125393207Y-110822795D03*
%TD*%
D21*
%TO.C,R71*%
X169568207Y-57110295D03*
X171218207Y-57110295D03*
%TD*%
D30*
%TO.C,R78*%
X169893207Y-95322795D03*
X169893207Y-92397795D03*
%TD*%
D28*
%TO.C,R87*%
X169218207Y-128860295D03*
X167568207Y-128860295D03*
%TD*%
D30*
%TO.C,R79*%
X169893207Y-114822795D03*
X169893207Y-111897795D03*
%TD*%
%TO.C,R77*%
X169893207Y-75822795D03*
X169893207Y-72897795D03*
%TD*%
D25*
%TO.C,R86*%
X159180707Y-123360295D03*
X162105707Y-123360295D03*
%TD*%
D21*
%TO.C,R92*%
X123568207Y-125610295D03*
X125218207Y-125610295D03*
%TD*%
D31*
%TO.C,R142*%
X149980707Y-67860295D03*
X151805707Y-67860295D03*
%TD*%
D21*
%TO.C,R88*%
X167568207Y-130860295D03*
X169218207Y-130860295D03*
%TD*%
D28*
%TO.C,R89*%
X169218207Y-125610295D03*
X167568207Y-125610295D03*
%TD*%
D31*
%TO.C,R141*%
X143480707Y-67860295D03*
X145305707Y-67860295D03*
%TD*%
D15*
%TO.C,U7*%
X119343207Y-123910295D03*
X119343207Y-124860295D03*
X119343207Y-125810295D03*
X121943207Y-125810295D03*
X121943207Y-123910295D03*
%TD*%
D23*
%TO.C,U6*%
X136653207Y-40580295D03*
D24*
X136653207Y-43120295D03*
X136653207Y-45660295D03*
X136653207Y-50740295D03*
X136653207Y-53280295D03*
X136653207Y-55820295D03*
X136653207Y-58360295D03*
%TD*%
D15*
%TO.C,U5*%
X175193207Y-125810295D03*
X175193207Y-124860295D03*
X175193207Y-123910295D03*
X172593207Y-123910295D03*
X172593207Y-125810295D03*
%TD*%
D32*
%TO.C,C74*%
X169843207Y-97310295D03*
X167943207Y-97310295D03*
%TD*%
D33*
%TO.C,C68*%
X111418207Y-61110295D03*
X109868207Y-61110295D03*
%TD*%
D34*
%TO.C,C71*%
X125443207Y-86410295D03*
X127343207Y-86410295D03*
%TD*%
%TO.C,C72*%
X125443207Y-105910295D03*
X127343207Y-105910295D03*
%TD*%
D32*
%TO.C,C73*%
X169843207Y-77810295D03*
X167943207Y-77810295D03*
%TD*%
D34*
%TO.C,C70*%
X125443207Y-66910295D03*
X127343207Y-66910295D03*
%TD*%
D35*
%TO.C,C69*%
X174143207Y-57385295D03*
X174143207Y-55835295D03*
%TD*%
D32*
%TO.C,C75*%
X169843207Y-116860295D03*
X167943207Y-116860295D03*
%TD*%
D35*
%TO.C,C95*%
X170893207Y-125635295D03*
X170893207Y-124085295D03*
%TD*%
%TO.C,C94*%
X176893207Y-125635295D03*
X176893207Y-124085295D03*
%TD*%
D36*
%TO.C,C96*%
X167393207Y-135085295D03*
X167393207Y-136635295D03*
%TD*%
D33*
%TO.C,C98*%
X182168207Y-126110295D03*
X180618207Y-126110295D03*
%TD*%
D36*
%TO.C,C97*%
X168893207Y-135085295D03*
X168893207Y-136635295D03*
%TD*%
D33*
%TO.C,C99*%
X182168207Y-124610295D03*
X180618207Y-124610295D03*
%TD*%
D37*
%TO.C,C103*%
X145643207Y-39887795D03*
X145643207Y-36937795D03*
%TD*%
%TO.C,C104*%
X141643207Y-39887795D03*
X141643207Y-36937795D03*
%TD*%
D33*
%TO.C,C108*%
X117668207Y-123610295D03*
X116118207Y-123610295D03*
%TD*%
D36*
%TO.C,C112*%
X112893207Y-135585295D03*
X112893207Y-137135295D03*
%TD*%
D38*
%TO.C,C167*%
X141293207Y-72360295D03*
X146393207Y-72360295D03*
%TD*%
D36*
%TO.C,C113*%
X111393207Y-135585295D03*
X111393207Y-137135295D03*
%TD*%
D38*
%TO.C,C168*%
X141293207Y-78360295D03*
X146393207Y-78360295D03*
%TD*%
%TO.C,C173*%
X148793207Y-72360295D03*
X153893207Y-72360295D03*
%TD*%
%TO.C,C170*%
X141293207Y-90360295D03*
X146393207Y-90360295D03*
%TD*%
D10*
%TO.C,C109*%
X123618207Y-123860295D03*
X125168207Y-123860295D03*
%TD*%
D35*
%TO.C,C110*%
X127993207Y-129635295D03*
X127993207Y-128085295D03*
%TD*%
%TO.C,C111*%
X126493207Y-129635295D03*
X126493207Y-128085295D03*
%TD*%
D23*
%TO.C,C166*%
X143893207Y-119360295D03*
D24*
X151393207Y-119360295D03*
%TD*%
D38*
%TO.C,C169*%
X141293207Y-84360295D03*
X146393207Y-84360295D03*
%TD*%
%TO.C,C171*%
X141293207Y-96360295D03*
X146393207Y-96360295D03*
%TD*%
%TO.C,C172*%
X141293207Y-102360295D03*
X146393207Y-102360295D03*
%TD*%
%TO.C,C174*%
X148793207Y-78360295D03*
X153893207Y-78360295D03*
%TD*%
%TO.C,C176*%
X148793207Y-90360295D03*
X153893207Y-90360295D03*
%TD*%
D39*
%TO.C,D19*%
X122393207Y-105860295D03*
X122393207Y-109860295D03*
%TD*%
%TO.C,D17*%
X122393207Y-66860295D03*
X122393207Y-70860295D03*
%TD*%
D40*
%TO.C,D16*%
X168093207Y-56735295D03*
X166193207Y-56735295D03*
X167143207Y-58610295D03*
%TD*%
D38*
%TO.C,C178*%
X148793207Y-102360295D03*
X153893207Y-102360295D03*
%TD*%
D40*
%TO.C,D15*%
X109843207Y-65485295D03*
X107943207Y-65485295D03*
X108893207Y-67360295D03*
%TD*%
D16*
%TO.C,D24*%
X136855707Y-61860295D03*
X138430707Y-61860295D03*
%TD*%
D38*
%TO.C,C175*%
X148793207Y-84360295D03*
X153893207Y-84360295D03*
%TD*%
%TO.C,C177*%
X148793207Y-96360295D03*
X153893207Y-96360295D03*
%TD*%
D39*
%TO.C,D18*%
X122393207Y-86360295D03*
X122393207Y-90360295D03*
%TD*%
D41*
%TO.C,D20*%
X172893207Y-77860295D03*
X172893207Y-73860295D03*
%TD*%
%TO.C,D22*%
X172893207Y-116860295D03*
X172893207Y-112860295D03*
%TD*%
D42*
%TO.C,IC6*%
X175948207Y-59010295D03*
X177218207Y-59010295D03*
X178488207Y-59010295D03*
X179758207Y-59010295D03*
X181028207Y-59010295D03*
X182298207Y-59010295D03*
X183568207Y-59010295D03*
X184838207Y-59010295D03*
X184838207Y-49710295D03*
X183568207Y-49710295D03*
X182298207Y-49710295D03*
X181028207Y-49710295D03*
X179758207Y-49710295D03*
X178488207Y-49710295D03*
X177218207Y-49710295D03*
X175948207Y-49710295D03*
%TD*%
D41*
%TO.C,D21*%
X172893207Y-97360295D03*
X172893207Y-93360295D03*
%TD*%
D43*
%TO.C,D23*%
X169180707Y-124110295D03*
X167605707Y-124110295D03*
%TD*%
D19*
%TO.C,IC7*%
X171243207Y-127915295D03*
X171243207Y-129185295D03*
X171243207Y-130455295D03*
X171243207Y-131725295D03*
X171243207Y-132995295D03*
X171243207Y-134265295D03*
X171243207Y-135535295D03*
X171243207Y-136805295D03*
X180543207Y-136805295D03*
X180543207Y-135535295D03*
X180543207Y-134265295D03*
X180543207Y-132995295D03*
X180543207Y-131725295D03*
X180543207Y-130455295D03*
X180543207Y-129185295D03*
X180543207Y-127915295D03*
%TD*%
D44*
%TO.C,Q13*%
X176868207Y-68140295D03*
D45*
X170568207Y-65860295D03*
D44*
X176868207Y-63580295D03*
%TD*%
D46*
%TO.C,IC8*%
X124293207Y-136805295D03*
X124293207Y-135535295D03*
X124293207Y-134265295D03*
X124293207Y-132995295D03*
X124293207Y-131725295D03*
X124293207Y-130455295D03*
X124293207Y-129185295D03*
X124293207Y-127915295D03*
X114993207Y-127915295D03*
X114993207Y-129185295D03*
X114993207Y-130455295D03*
X114993207Y-131725295D03*
X114993207Y-132995295D03*
X114993207Y-134265295D03*
X114993207Y-135535295D03*
X114993207Y-136805295D03*
%TD*%
D47*
%TO.C,D26*%
X126893207Y-124072795D03*
X126893207Y-125647795D03*
%TD*%
D42*
%TO.C,IC5*%
X110198207Y-59010295D03*
X111468207Y-59010295D03*
X112738207Y-59010295D03*
X114008207Y-59010295D03*
X115278207Y-59010295D03*
X116548207Y-59010295D03*
X117818207Y-59010295D03*
X119088207Y-59010295D03*
X119088207Y-49710295D03*
X117818207Y-49710295D03*
X116548207Y-49710295D03*
X115278207Y-49710295D03*
X114008207Y-49710295D03*
X112738207Y-49710295D03*
X111468207Y-49710295D03*
X110198207Y-49710295D03*
%TD*%
D16*
%TO.C,D25*%
X130855707Y-61912795D03*
X132430707Y-61912795D03*
%TD*%
D48*
%TO.C,Q20*%
X111033207Y-91860295D03*
D49*
X130893207Y-97310295D03*
D50*
X130893207Y-91860295D03*
X130893207Y-86410295D03*
%TD*%
D51*
%TO.C,Q18*%
X118343207Y-115580295D03*
D52*
X124643207Y-117860295D03*
D51*
X118343207Y-120140295D03*
%TD*%
D48*
%TO.C,Q22*%
X184253207Y-72360295D03*
D49*
X164393207Y-66910295D03*
D50*
X164393207Y-72360295D03*
X164393207Y-77810295D03*
%TD*%
D53*
%TO.C,L3*%
X145343207Y-43412795D03*
X141943207Y-43412795D03*
%TD*%
D51*
%TO.C,Q14*%
X118343207Y-76605295D03*
D52*
X124643207Y-78885295D03*
D51*
X118343207Y-81165295D03*
%TD*%
D44*
%TO.C,Q15*%
X176868207Y-87615295D03*
D45*
X170568207Y-85335295D03*
D44*
X176868207Y-83055295D03*
%TD*%
%TO.C,Q17*%
X176943207Y-107140295D03*
D45*
X170643207Y-104860295D03*
D44*
X176943207Y-102580295D03*
%TD*%
D51*
%TO.C,Q16*%
X118418207Y-96105295D03*
D52*
X124718207Y-98385295D03*
D51*
X118418207Y-100665295D03*
%TD*%
D48*
%TO.C,Q19*%
X111033207Y-72360295D03*
D49*
X130893207Y-77810295D03*
D50*
X130893207Y-72360295D03*
X130893207Y-66910295D03*
%TD*%
D48*
%TO.C,Q21*%
X111033207Y-111360295D03*
D49*
X130893207Y-116810295D03*
D50*
X130893207Y-111360295D03*
X130893207Y-105910295D03*
%TD*%
D48*
%TO.C,Q24*%
X184253207Y-111360295D03*
D49*
X164393207Y-105910295D03*
D50*
X164393207Y-111360295D03*
X164393207Y-116810295D03*
%TD*%
D27*
%TO.C,R53*%
X180893207Y-64035295D03*
X180893207Y-65685295D03*
%TD*%
D26*
%TO.C,R57*%
X117743207Y-74685295D03*
X117743207Y-73035295D03*
%TD*%
D48*
%TO.C,Q23*%
X184253207Y-91860295D03*
D49*
X164393207Y-86410295D03*
D50*
X164393207Y-91860295D03*
X164393207Y-97310295D03*
%TD*%
D26*
%TO.C,R50*%
X179193207Y-65685295D03*
X179193207Y-64035295D03*
%TD*%
%TO.C,R51*%
X114343207Y-74685295D03*
X114343207Y-73035295D03*
%TD*%
D27*
%TO.C,R54*%
X116043207Y-73035295D03*
X116043207Y-74685295D03*
%TD*%
D26*
%TO.C,R56*%
X182593207Y-65685295D03*
X182593207Y-64035295D03*
%TD*%
%TO.C,R52*%
X111393207Y-65685295D03*
X111393207Y-64035295D03*
%TD*%
D28*
%TO.C,R49*%
X114468207Y-65610295D03*
X112818207Y-65610295D03*
%TD*%
%TO.C,R55*%
X111468207Y-62610295D03*
X109818207Y-62610295D03*
%TD*%
D26*
%TO.C,R59*%
X114343207Y-94185295D03*
X114343207Y-92535295D03*
%TD*%
%TO.C,R62*%
X182593207Y-85185295D03*
X182593207Y-83535295D03*
%TD*%
%TO.C,R63*%
X117743207Y-94185295D03*
X117743207Y-92535295D03*
%TD*%
%TO.C,R64*%
X179193207Y-104685295D03*
X179193207Y-103035295D03*
%TD*%
D27*
%TO.C,R61*%
X116043207Y-92535295D03*
X116043207Y-94185295D03*
%TD*%
D26*
%TO.C,R65*%
X114343207Y-113685295D03*
X114343207Y-112035295D03*
%TD*%
%TO.C,R58*%
X179193207Y-85185295D03*
X179193207Y-83535295D03*
%TD*%
D27*
%TO.C,R60*%
X180893207Y-83535295D03*
X180893207Y-85185295D03*
%TD*%
D12*
%TO.C,J4*%
X142768207Y-136360295D03*
X144196061Y-132913149D03*
X144196061Y-139807441D03*
X147643207Y-131485295D03*
D13*
X147643207Y-136360295D03*
D12*
X147643207Y-141235295D03*
X151090353Y-132913149D03*
X151090353Y-139807441D03*
X152518207Y-136360295D03*
%TD*%
D17*
%TO.C,J11*%
X110293207Y-42635295D03*
D18*
X110293207Y-40095295D03*
X112833207Y-42635295D03*
X112833207Y-40095295D03*
X115373207Y-42635295D03*
X115373207Y-40095295D03*
X117913207Y-42635295D03*
X117913207Y-40095295D03*
X120453207Y-42635295D03*
X120453207Y-40095295D03*
X122993207Y-42635295D03*
X122993207Y-40095295D03*
%TD*%
D17*
%TO.C,J10*%
X173793207Y-42635295D03*
D18*
X173793207Y-40095295D03*
X176333207Y-42635295D03*
X176333207Y-40095295D03*
X178873207Y-42635295D03*
X178873207Y-40095295D03*
X181413207Y-42635295D03*
X181413207Y-40095295D03*
X183953207Y-42635295D03*
X183953207Y-40095295D03*
X186493207Y-42635295D03*
X186493207Y-40095295D03*
%TD*%
D11*
%TO.C,TP53*%
X213893207Y-61360295D03*
%TD*%
%TO.C,TP55*%
X211893207Y-47360295D03*
%TD*%
%TO.C,TP50*%
X232893207Y-56360295D03*
%TD*%
%TO.C,TP51*%
X195643207Y-49360295D03*
%TD*%
%TO.C,TP52*%
X196893207Y-61360295D03*
%TD*%
%TO.C,TP49*%
X225643207Y-119360295D03*
%TD*%
%TO.C,TP54*%
X216893207Y-47360295D03*
%TD*%
%TO.C,TP56*%
X261893207Y-49360295D03*
%TD*%
%TO.C,TP60*%
X261893207Y-60110295D03*
%TD*%
%TO.C,TP66*%
X232893207Y-51360295D03*
%TD*%
%TO.C,TP57*%
X242643207Y-56360295D03*
%TD*%
%TO.C,TP61*%
X277893207Y-61360295D03*
%TD*%
%TO.C,TP63*%
X252143207Y-128110295D03*
%TD*%
%TO.C,TP62*%
X252143207Y-135110295D03*
%TD*%
%TO.C,TP64*%
X278393207Y-123860295D03*
%TD*%
%TO.C,TP58*%
X279893207Y-49360295D03*
%TD*%
%TO.C,TP59*%
X276893207Y-46360295D03*
%TD*%
%TO.C,TP65*%
X278393207Y-136860295D03*
%TD*%
%TO.C,TP67*%
X232893207Y-61360295D03*
%TD*%
%TO.C,TP68*%
X221393207Y-129610295D03*
%TD*%
%TO.C,TP69*%
X196893207Y-136860295D03*
%TD*%
%TO.C,TP70*%
X196893207Y-123860295D03*
%TD*%
D15*
%TO.C,U8*%
X262593207Y-125810295D03*
X262593207Y-123910295D03*
X265193207Y-123910295D03*
X265193207Y-124860295D03*
X265193207Y-125810295D03*
%TD*%
D24*
%TO.C,U9*%
X226653207Y-58360295D03*
X226653207Y-55820295D03*
X226653207Y-53280295D03*
X226653207Y-50740295D03*
X226653207Y-45660295D03*
X226653207Y-43120295D03*
D23*
X226653207Y-40580295D03*
%TD*%
D15*
%TO.C,U10*%
X211943207Y-123910295D03*
X211943207Y-125810295D03*
X209343207Y-125810295D03*
X209343207Y-124860295D03*
X209343207Y-123910295D03*
%TD*%
D28*
%TO.C,R133*%
X257568207Y-125610295D03*
X259218207Y-125610295D03*
%TD*%
D30*
%TO.C,R122*%
X259893207Y-92397795D03*
X259893207Y-95322795D03*
%TD*%
%TO.C,R123*%
X259893207Y-111897795D03*
X259893207Y-114822795D03*
%TD*%
D25*
%TO.C,R130*%
X252105707Y-123360295D03*
X249180707Y-123360295D03*
%TD*%
D28*
%TO.C,R131*%
X257568207Y-128860295D03*
X259218207Y-128860295D03*
%TD*%
D21*
%TO.C,R132*%
X259218207Y-130860295D03*
X257568207Y-130860295D03*
%TD*%
%TO.C,R136*%
X215218207Y-125610295D03*
X213568207Y-125610295D03*
%TD*%
D31*
%TO.C,R143*%
X235305707Y-67860295D03*
X233480707Y-67860295D03*
%TD*%
%TO.C,R144*%
X241805707Y-67860295D03*
X239980707Y-67860295D03*
%TD*%
D32*
%TO.C,C120*%
X257943207Y-97310295D03*
X259843207Y-97310295D03*
%TD*%
D33*
%TO.C,C114*%
X199868207Y-61110295D03*
X201418207Y-61110295D03*
%TD*%
D35*
%TO.C,C115*%
X264143207Y-55835295D03*
X264143207Y-57385295D03*
%TD*%
D34*
%TO.C,C116*%
X217343207Y-66910295D03*
X215443207Y-66910295D03*
%TD*%
%TO.C,C117*%
X217343207Y-86410295D03*
X215443207Y-86410295D03*
%TD*%
D32*
%TO.C,C119*%
X257943207Y-77810295D03*
X259843207Y-77810295D03*
%TD*%
D34*
%TO.C,C118*%
X217343207Y-105910295D03*
X215443207Y-105910295D03*
%TD*%
D32*
%TO.C,C121*%
X257943207Y-116860295D03*
X259843207Y-116860295D03*
%TD*%
D35*
%TO.C,C141*%
X260893207Y-124085295D03*
X260893207Y-125635295D03*
%TD*%
D37*
%TO.C,C149*%
X235643207Y-36937795D03*
X235643207Y-39887795D03*
%TD*%
D35*
%TO.C,C140*%
X266893207Y-124085295D03*
X266893207Y-125635295D03*
%TD*%
D36*
%TO.C,C142*%
X257393207Y-136635295D03*
X257393207Y-135085295D03*
%TD*%
%TO.C,C143*%
X258893207Y-136635295D03*
X258893207Y-135085295D03*
%TD*%
D33*
%TO.C,C144*%
X270618207Y-126110295D03*
X272168207Y-126110295D03*
%TD*%
%TO.C,C145*%
X270618207Y-124610295D03*
X272168207Y-124610295D03*
%TD*%
D37*
%TO.C,C150*%
X231643207Y-36937795D03*
X231643207Y-39887795D03*
%TD*%
D35*
%TO.C,C156*%
X217993207Y-128085295D03*
X217993207Y-129635295D03*
%TD*%
%TO.C,C157*%
X216493207Y-128085295D03*
X216493207Y-129635295D03*
%TD*%
D38*
%TO.C,C180*%
X236393207Y-72360295D03*
X231293207Y-72360295D03*
%TD*%
D36*
%TO.C,C159*%
X201393207Y-137135295D03*
X201393207Y-135585295D03*
%TD*%
D10*
%TO.C,C155*%
X215168207Y-123860295D03*
X213618207Y-123860295D03*
%TD*%
D24*
%TO.C,C179*%
X241393207Y-119360295D03*
D23*
X233893207Y-119360295D03*
%TD*%
D38*
%TO.C,C184*%
X236393207Y-96360295D03*
X231293207Y-96360295D03*
%TD*%
%TO.C,C181*%
X236393207Y-78360295D03*
X231293207Y-78360295D03*
%TD*%
D33*
%TO.C,C154*%
X206118207Y-123610295D03*
X207668207Y-123610295D03*
%TD*%
D36*
%TO.C,C158*%
X202893207Y-137135295D03*
X202893207Y-135585295D03*
%TD*%
D38*
%TO.C,C182*%
X236393207Y-84360295D03*
X231293207Y-84360295D03*
%TD*%
%TO.C,C183*%
X236393207Y-90360295D03*
X231293207Y-90360295D03*
%TD*%
%TO.C,C191*%
X243893207Y-102360295D03*
X238793207Y-102360295D03*
%TD*%
%TO.C,C187*%
X243893207Y-78360295D03*
X238793207Y-78360295D03*
%TD*%
%TO.C,C190*%
X243893207Y-96360295D03*
X238793207Y-96360295D03*
%TD*%
D39*
%TO.C,D31*%
X212393207Y-109860295D03*
X212393207Y-105860295D03*
%TD*%
D38*
%TO.C,C188*%
X243893207Y-84360295D03*
X238793207Y-84360295D03*
%TD*%
%TO.C,C185*%
X236393207Y-102360295D03*
X231293207Y-102360295D03*
%TD*%
%TO.C,C186*%
X243893207Y-72360295D03*
X238793207Y-72360295D03*
%TD*%
%TO.C,C189*%
X243893207Y-90360295D03*
X238793207Y-90360295D03*
%TD*%
D40*
%TO.C,D27*%
X198893207Y-67360295D03*
X197943207Y-65485295D03*
X199843207Y-65485295D03*
%TD*%
%TO.C,D28*%
X257143207Y-58610295D03*
X256193207Y-56735295D03*
X258093207Y-56735295D03*
%TD*%
D39*
%TO.C,D29*%
X212393207Y-70860295D03*
X212393207Y-66860295D03*
%TD*%
%TO.C,D30*%
X212393207Y-90360295D03*
X212393207Y-86360295D03*
%TD*%
D41*
%TO.C,D32*%
X262893207Y-73860295D03*
X262893207Y-77860295D03*
%TD*%
D42*
%TO.C,IC10*%
X265948207Y-49710295D03*
X267218207Y-49710295D03*
X268488207Y-49710295D03*
X269758207Y-49710295D03*
X271028207Y-49710295D03*
X272298207Y-49710295D03*
X273568207Y-49710295D03*
X274838207Y-49710295D03*
X274838207Y-59010295D03*
X273568207Y-59010295D03*
X272298207Y-59010295D03*
X271028207Y-59010295D03*
X269758207Y-59010295D03*
X268488207Y-59010295D03*
X267218207Y-59010295D03*
X265948207Y-59010295D03*
%TD*%
D46*
%TO.C,IC12*%
X204993207Y-136805295D03*
X204993207Y-135535295D03*
X204993207Y-134265295D03*
X204993207Y-132995295D03*
X204993207Y-131725295D03*
X204993207Y-130455295D03*
X204993207Y-129185295D03*
X204993207Y-127915295D03*
X214293207Y-127915295D03*
X214293207Y-129185295D03*
X214293207Y-130455295D03*
X214293207Y-131725295D03*
X214293207Y-132995295D03*
X214293207Y-134265295D03*
X214293207Y-135535295D03*
X214293207Y-136805295D03*
%TD*%
D41*
%TO.C,D33*%
X262893207Y-93360295D03*
X262893207Y-97360295D03*
%TD*%
D43*
%TO.C,D35*%
X257605707Y-124110295D03*
X259180707Y-124110295D03*
%TD*%
D16*
%TO.C,D37*%
X222430707Y-61912795D03*
X220855707Y-61912795D03*
%TD*%
%TO.C,D36*%
X228430707Y-61860295D03*
X226855707Y-61860295D03*
%TD*%
D47*
%TO.C,D38*%
X216893207Y-125647795D03*
X216893207Y-124072795D03*
%TD*%
D41*
%TO.C,D34*%
X262893207Y-112860295D03*
X262893207Y-116860295D03*
%TD*%
D42*
%TO.C,IC9*%
X200198207Y-49710295D03*
X201468207Y-49710295D03*
X202738207Y-49710295D03*
X204008207Y-49710295D03*
X205278207Y-49710295D03*
X206548207Y-49710295D03*
X207818207Y-49710295D03*
X209088207Y-49710295D03*
X209088207Y-59010295D03*
X207818207Y-59010295D03*
X206548207Y-59010295D03*
X205278207Y-59010295D03*
X204008207Y-59010295D03*
X202738207Y-59010295D03*
X201468207Y-59010295D03*
X200198207Y-59010295D03*
%TD*%
D19*
%TO.C,IC11*%
X270543207Y-127915295D03*
X270543207Y-129185295D03*
X270543207Y-130455295D03*
X270543207Y-131725295D03*
X270543207Y-132995295D03*
X270543207Y-134265295D03*
X270543207Y-135535295D03*
X270543207Y-136805295D03*
X261243207Y-136805295D03*
X261243207Y-135535295D03*
X261243207Y-134265295D03*
X261243207Y-132995295D03*
X261243207Y-131725295D03*
X261243207Y-130455295D03*
X261243207Y-129185295D03*
X261243207Y-127915295D03*
%TD*%
D51*
%TO.C,Q26*%
X208343207Y-81165295D03*
D52*
X214643207Y-78885295D03*
D51*
X208343207Y-76605295D03*
%TD*%
%TO.C,Q28*%
X208418207Y-100665295D03*
D52*
X214718207Y-98385295D03*
D51*
X208418207Y-96105295D03*
%TD*%
D12*
%TO.C,J5*%
X242518207Y-136360295D03*
X241090353Y-139807441D03*
X241090353Y-132913149D03*
X237643207Y-141235295D03*
D13*
X237643207Y-136360295D03*
D12*
X237643207Y-131485295D03*
X234196061Y-139807441D03*
X234196061Y-132913149D03*
X232768207Y-136360295D03*
%TD*%
D18*
%TO.C,J17*%
X277658207Y-132900295D03*
X275118207Y-132900295D03*
X277658207Y-130360295D03*
X275118207Y-130360295D03*
X277658207Y-127820295D03*
D17*
X275118207Y-127820295D03*
%TD*%
D18*
%TO.C,J14*%
X276493207Y-40095295D03*
X276493207Y-42635295D03*
X273953207Y-40095295D03*
X273953207Y-42635295D03*
X271413207Y-40095295D03*
X271413207Y-42635295D03*
X268873207Y-40095295D03*
X268873207Y-42635295D03*
X266333207Y-40095295D03*
X266333207Y-42635295D03*
X263793207Y-40095295D03*
D17*
X263793207Y-42635295D03*
%TD*%
D18*
%TO.C,J15*%
X212993207Y-40095295D03*
X212993207Y-42635295D03*
X210453207Y-40095295D03*
X210453207Y-42635295D03*
X207913207Y-40095295D03*
X207913207Y-42635295D03*
X205373207Y-40095295D03*
X205373207Y-42635295D03*
X202833207Y-40095295D03*
X202833207Y-42635295D03*
X200293207Y-40095295D03*
D17*
X200293207Y-42635295D03*
%TD*%
D18*
%TO.C,J16*%
X200158207Y-132860295D03*
X197618207Y-132860295D03*
X200158207Y-130320295D03*
X197618207Y-130320295D03*
X200158207Y-127780295D03*
D17*
X197618207Y-127780295D03*
%TD*%
D53*
%TO.C,L4*%
X231943207Y-43412795D03*
X235343207Y-43412795D03*
%TD*%
D44*
%TO.C,Q25*%
X266868207Y-63580295D03*
D45*
X260568207Y-65860295D03*
D44*
X266868207Y-68140295D03*
%TD*%
%TO.C,Q27*%
X266868207Y-83055295D03*
D45*
X260568207Y-85335295D03*
D44*
X266868207Y-87615295D03*
%TD*%
D50*
%TO.C,Q36*%
X254393207Y-116810295D03*
X254393207Y-111360295D03*
D49*
X254393207Y-105910295D03*
D48*
X274253207Y-111360295D03*
%TD*%
D50*
%TO.C,Q32*%
X220893207Y-86410295D03*
X220893207Y-91860295D03*
D49*
X220893207Y-97310295D03*
D48*
X201033207Y-91860295D03*
%TD*%
D50*
%TO.C,Q31*%
X220893207Y-66910295D03*
X220893207Y-72360295D03*
D49*
X220893207Y-77810295D03*
D48*
X201033207Y-72360295D03*
%TD*%
D51*
%TO.C,Q30*%
X208343207Y-120140295D03*
D52*
X214643207Y-117860295D03*
D51*
X208343207Y-115580295D03*
%TD*%
D50*
%TO.C,Q35*%
X254393207Y-97310295D03*
X254393207Y-91860295D03*
D49*
X254393207Y-86410295D03*
D48*
X274253207Y-91860295D03*
%TD*%
D26*
%TO.C,R95*%
X204343207Y-73035295D03*
X204343207Y-74685295D03*
%TD*%
D50*
%TO.C,Q33*%
X220893207Y-105910295D03*
X220893207Y-111360295D03*
D49*
X220893207Y-116810295D03*
D48*
X201033207Y-111360295D03*
%TD*%
D44*
%TO.C,Q29*%
X266943207Y-102580295D03*
D45*
X260643207Y-104860295D03*
D44*
X266943207Y-107140295D03*
%TD*%
D50*
%TO.C,Q34*%
X254393207Y-77810295D03*
X254393207Y-72360295D03*
D49*
X254393207Y-66910295D03*
D48*
X274253207Y-72360295D03*
%TD*%
D26*
%TO.C,R94*%
X269193207Y-64035295D03*
X269193207Y-65685295D03*
%TD*%
%TO.C,R101*%
X207743207Y-73035295D03*
X207743207Y-74685295D03*
%TD*%
D28*
%TO.C,R93*%
X202818207Y-65610295D03*
X204468207Y-65610295D03*
%TD*%
D26*
%TO.C,R102*%
X269193207Y-83535295D03*
X269193207Y-85185295D03*
%TD*%
D28*
%TO.C,R99*%
X199818207Y-62610295D03*
X201468207Y-62610295D03*
%TD*%
D26*
%TO.C,R100*%
X272593207Y-64035295D03*
X272593207Y-65685295D03*
%TD*%
D27*
%TO.C,R97*%
X270893207Y-65685295D03*
X270893207Y-64035295D03*
%TD*%
D26*
%TO.C,R96*%
X201393207Y-64035295D03*
X201393207Y-65685295D03*
%TD*%
D27*
%TO.C,R98*%
X206043207Y-74685295D03*
X206043207Y-73035295D03*
%TD*%
D26*
%TO.C,R106*%
X272593207Y-83535295D03*
X272593207Y-85185295D03*
%TD*%
%TO.C,R112*%
X272593207Y-103035295D03*
X272593207Y-104685295D03*
%TD*%
D27*
%TO.C,R105*%
X206043207Y-94185295D03*
X206043207Y-92535295D03*
%TD*%
%TO.C,R104*%
X270893207Y-85185295D03*
X270893207Y-83535295D03*
%TD*%
D26*
%TO.C,R107*%
X207743207Y-92535295D03*
X207743207Y-94185295D03*
%TD*%
%TO.C,R108*%
X269193207Y-103035295D03*
X269193207Y-104685295D03*
%TD*%
D27*
%TO.C,R110*%
X270893207Y-104685295D03*
X270893207Y-103035295D03*
%TD*%
%TO.C,R111*%
X206043207Y-113685295D03*
X206043207Y-112035295D03*
%TD*%
D26*
%TO.C,R103*%
X204343207Y-92535295D03*
X204343207Y-94185295D03*
%TD*%
%TO.C,R109*%
X204343207Y-112035295D03*
X204343207Y-113685295D03*
%TD*%
D28*
%TO.C,R114*%
X256318207Y-54860295D03*
X257968207Y-54860295D03*
%TD*%
D26*
%TO.C,R116*%
X262643207Y-55785295D03*
X262643207Y-57435295D03*
%TD*%
D29*
%TO.C,R117*%
X215393207Y-71822795D03*
X215393207Y-68897795D03*
%TD*%
D26*
%TO.C,R113*%
X207743207Y-112035295D03*
X207743207Y-113685295D03*
%TD*%
D29*
%TO.C,R119*%
X215393207Y-110822795D03*
X215393207Y-107897795D03*
%TD*%
D30*
%TO.C,R121*%
X259893207Y-72897795D03*
X259893207Y-75822795D03*
%TD*%
D21*
%TO.C,R115*%
X261218207Y-57110295D03*
X259568207Y-57110295D03*
%TD*%
D29*
%TO.C,R118*%
X215393207Y-91322795D03*
X215393207Y-88397795D03*
%TD*%
D38*
%TO.C,C2*%
X56393207Y-72360295D03*
X51293207Y-72360295D03*
%TD*%
%TO.C,C12*%
X63893207Y-96360295D03*
X58793207Y-96360295D03*
%TD*%
%TO.C,C9*%
X63893207Y-78360295D03*
X58793207Y-78360295D03*
%TD*%
%TO.C,C6*%
X56393207Y-96360295D03*
X51293207Y-96360295D03*
%TD*%
D31*
%TO.C,R2*%
X61805707Y-67860295D03*
X59980707Y-67860295D03*
%TD*%
D38*
%TO.C,C8*%
X63893207Y-72360295D03*
X58793207Y-72360295D03*
%TD*%
%TO.C,C7*%
X56393207Y-102360295D03*
X51293207Y-102360295D03*
%TD*%
%TO.C,C5*%
X56393207Y-90360295D03*
X51293207Y-90360295D03*
%TD*%
%TO.C,C13*%
X63893207Y-102360295D03*
X58793207Y-102360295D03*
%TD*%
%TO.C,C11*%
X63893207Y-90360295D03*
X58793207Y-90360295D03*
%TD*%
%TO.C,C3*%
X56393207Y-78360295D03*
X51293207Y-78360295D03*
%TD*%
%TO.C,C4*%
X56393207Y-84360295D03*
X51293207Y-84360295D03*
%TD*%
%TO.C,C10*%
X63893207Y-84360295D03*
X58793207Y-84360295D03*
%TD*%
D32*
%TO.C,C65*%
X77943207Y-77810295D03*
X79843207Y-77810295D03*
%TD*%
D31*
%TO.C,R1*%
X55305707Y-67860295D03*
X53480707Y-67860295D03*
%TD*%
D24*
%TO.C,C1*%
X61393207Y-119360295D03*
D23*
X53893207Y-119360295D03*
%TD*%
D34*
%TO.C,C64*%
X37343207Y-105910295D03*
X35443207Y-105910295D03*
%TD*%
%TO.C,C62*%
X37343207Y-66910295D03*
X35443207Y-66910295D03*
%TD*%
D32*
%TO.C,C66*%
X77943207Y-97310295D03*
X79843207Y-97310295D03*
%TD*%
%TO.C,C67*%
X77943207Y-116860295D03*
X79843207Y-116860295D03*
%TD*%
D34*
%TO.C,C63*%
X37343207Y-86410295D03*
X35443207Y-86410295D03*
%TD*%
D44*
%TO.C,Q3*%
X86868207Y-83055295D03*
D45*
X80568207Y-85335295D03*
D44*
X86868207Y-87615295D03*
%TD*%
%TO.C,Q5*%
X86943207Y-102580295D03*
D45*
X80643207Y-104860295D03*
D44*
X86943207Y-107140295D03*
%TD*%
D51*
%TO.C,Q2*%
X28343207Y-81165295D03*
D52*
X34643207Y-78885295D03*
D51*
X28343207Y-76605295D03*
%TD*%
D44*
%TO.C,Q1*%
X86868207Y-63580295D03*
D45*
X80568207Y-65860295D03*
D44*
X86868207Y-68140295D03*
%TD*%
D51*
%TO.C,Q6*%
X28343207Y-120140295D03*
D52*
X34643207Y-117860295D03*
D51*
X28343207Y-115580295D03*
%TD*%
%TO.C,Q4*%
X28418207Y-100665295D03*
D52*
X34718207Y-98385295D03*
D51*
X28418207Y-96105295D03*
%TD*%
D50*
%TO.C,Q8*%
X40893207Y-86410295D03*
X40893207Y-91860295D03*
D49*
X40893207Y-97310295D03*
D48*
X21033207Y-91860295D03*
%TD*%
D50*
%TO.C,Q7*%
X40893207Y-66910295D03*
X40893207Y-72360295D03*
D49*
X40893207Y-77810295D03*
D48*
X21033207Y-72360295D03*
%TD*%
D11*
%TO.C,TP15*%
X72143207Y-135110295D03*
%TD*%
%TO.C,TP16*%
X72143207Y-128110295D03*
%TD*%
%TO.C,TP17*%
X98393207Y-123860295D03*
%TD*%
%TO.C,TP18*%
X98393207Y-136860295D03*
%TD*%
%TO.C,TP23*%
X41393207Y-129610295D03*
%TD*%
%TO.C,TP4*%
X15643207Y-49360295D03*
%TD*%
%TO.C,TP26*%
X45643207Y-119360295D03*
%TD*%
%TO.C,TP24*%
X16893207Y-136860295D03*
%TD*%
%TO.C,TP25*%
X16893207Y-123860295D03*
%TD*%
%TO.C,TP21*%
X52893207Y-51360295D03*
%TD*%
%TO.C,TP22*%
X52893207Y-61360295D03*
%TD*%
%TO.C,TP10*%
X62643207Y-56360295D03*
%TD*%
%TO.C,TP12*%
X96893207Y-46360295D03*
%TD*%
%TO.C,TP11*%
X99893207Y-49360295D03*
%TD*%
%TO.C,TP6*%
X33893207Y-61360295D03*
%TD*%
%TO.C,TP7*%
X36893207Y-47360295D03*
%TD*%
%TO.C,TP8*%
X31893207Y-47360295D03*
%TD*%
%TO.C,TP9*%
X81893207Y-49360295D03*
%TD*%
%TO.C,TP3*%
X52893207Y-56360295D03*
%TD*%
%TO.C,TP5*%
X16893207Y-61360295D03*
%TD*%
%TO.C,TP13*%
X81893207Y-60110295D03*
%TD*%
%TO.C,TP14*%
X97893207Y-61360295D03*
%TD*%
D43*
%TO.C,D3*%
X77605707Y-124110295D03*
X79180707Y-124110295D03*
%TD*%
D12*
%TO.C,J3*%
X62518207Y-136360295D03*
X61090353Y-139807441D03*
X61090353Y-132913149D03*
X57643207Y-141235295D03*
D13*
X57643207Y-136360295D03*
D12*
X57643207Y-131485295D03*
X54196061Y-139807441D03*
X54196061Y-132913149D03*
X52768207Y-136360295D03*
%TD*%
D18*
%TO.C,J8*%
X20143207Y-132860295D03*
X17603207Y-132860295D03*
X20143207Y-130320295D03*
X17603207Y-130320295D03*
X20143207Y-127780295D03*
D17*
X17603207Y-127780295D03*
%TD*%
D27*
%TO.C,R21*%
X26043207Y-94185295D03*
X26043207Y-92535295D03*
%TD*%
D26*
%TO.C,R32*%
X82643207Y-55785295D03*
X82643207Y-57435295D03*
%TD*%
%TO.C,R28*%
X92593207Y-103035295D03*
X92593207Y-104685295D03*
%TD*%
D21*
%TO.C,R31*%
X81218207Y-57110295D03*
X79568207Y-57110295D03*
%TD*%
D35*
%TO.C,C35*%
X80893207Y-124085295D03*
X80893207Y-125635295D03*
%TD*%
D26*
%TO.C,R19*%
X24343207Y-92535295D03*
X24343207Y-94185295D03*
%TD*%
D39*
%TO.C,D10*%
X32393207Y-90360295D03*
X32393207Y-86360295D03*
%TD*%
D28*
%TO.C,R36*%
X77568207Y-125610295D03*
X79218207Y-125610295D03*
%TD*%
D24*
%TO.C,U3*%
X46653207Y-58360295D03*
X46653207Y-55820295D03*
X46653207Y-53280295D03*
X46653207Y-50740295D03*
X46653207Y-45660295D03*
X46653207Y-43120295D03*
D23*
X46653207Y-40580295D03*
%TD*%
D36*
%TO.C,C36*%
X77393207Y-136635295D03*
X77393207Y-135085295D03*
%TD*%
D26*
%TO.C,R10*%
X89193207Y-64035295D03*
X89193207Y-65685295D03*
%TD*%
%TO.C,R22*%
X92593207Y-83535295D03*
X92593207Y-85185295D03*
%TD*%
D18*
%TO.C,J6*%
X96493207Y-40095295D03*
X96493207Y-42635295D03*
X93953207Y-40095295D03*
X93953207Y-42635295D03*
X91413207Y-40095295D03*
X91413207Y-42635295D03*
X88873207Y-40095295D03*
X88873207Y-42635295D03*
X86333207Y-40095295D03*
X86333207Y-42635295D03*
X83793207Y-40095295D03*
D17*
X83793207Y-42635295D03*
%TD*%
D10*
%TO.C,C57*%
X35168207Y-123860295D03*
X33618207Y-123860295D03*
%TD*%
D46*
%TO.C,IC4*%
X24993207Y-136805295D03*
X24993207Y-135535295D03*
X24993207Y-134265295D03*
X24993207Y-132995295D03*
X24993207Y-131725295D03*
X24993207Y-130455295D03*
X24993207Y-129185295D03*
X24993207Y-127915295D03*
X34293207Y-127915295D03*
X34293207Y-129185295D03*
X34293207Y-130455295D03*
X34293207Y-131725295D03*
X34293207Y-132995295D03*
X34293207Y-134265295D03*
X34293207Y-135535295D03*
X34293207Y-136805295D03*
%TD*%
D25*
%TO.C,R33*%
X72105707Y-123360295D03*
X69180707Y-123360295D03*
%TD*%
D42*
%TO.C,IC1*%
X20198207Y-49710295D03*
X21468207Y-49710295D03*
X22738207Y-49710295D03*
X24008207Y-49710295D03*
X25278207Y-49710295D03*
X26548207Y-49710295D03*
X27818207Y-49710295D03*
X29088207Y-49710295D03*
X29088207Y-59010295D03*
X27818207Y-59010295D03*
X26548207Y-59010295D03*
X25278207Y-59010295D03*
X24008207Y-59010295D03*
X22738207Y-59010295D03*
X21468207Y-59010295D03*
X20198207Y-59010295D03*
%TD*%
D26*
%TO.C,R29*%
X27743207Y-112035295D03*
X27743207Y-113685295D03*
%TD*%
D40*
%TO.C,D2*%
X77143207Y-58610295D03*
X76193207Y-56735295D03*
X78093207Y-56735295D03*
%TD*%
D21*
%TO.C,R35*%
X79218207Y-130860295D03*
X77568207Y-130860295D03*
%TD*%
D35*
%TO.C,C34*%
X86893207Y-124085295D03*
X86893207Y-125635295D03*
%TD*%
D19*
%TO.C,IC3*%
X90543207Y-127915295D03*
X90543207Y-129185295D03*
X90543207Y-130455295D03*
X90543207Y-131725295D03*
X90543207Y-132995295D03*
X90543207Y-134265295D03*
X90543207Y-135535295D03*
X90543207Y-136805295D03*
X81243207Y-136805295D03*
X81243207Y-135535295D03*
X81243207Y-134265295D03*
X81243207Y-132995295D03*
X81243207Y-131725295D03*
X81243207Y-130455295D03*
X81243207Y-129185295D03*
X81243207Y-127915295D03*
%TD*%
D27*
%TO.C,R27*%
X26043207Y-113685295D03*
X26043207Y-112035295D03*
%TD*%
D41*
%TO.C,D13*%
X82893207Y-93360295D03*
X82893207Y-97360295D03*
%TD*%
D42*
%TO.C,IC2*%
X85948207Y-49710295D03*
X87218207Y-49710295D03*
X88488207Y-49710295D03*
X89758207Y-49710295D03*
X91028207Y-49710295D03*
X92298207Y-49710295D03*
X93568207Y-49710295D03*
X94838207Y-49710295D03*
X94838207Y-59010295D03*
X93568207Y-59010295D03*
X92298207Y-59010295D03*
X91028207Y-59010295D03*
X89758207Y-59010295D03*
X88488207Y-59010295D03*
X87218207Y-59010295D03*
X85948207Y-59010295D03*
%TD*%
D33*
%TO.C,C39*%
X90618207Y-124610295D03*
X92168207Y-124610295D03*
%TD*%
D18*
%TO.C,J9*%
X97643207Y-132860295D03*
X95103207Y-132860295D03*
X97643207Y-130320295D03*
X95103207Y-130320295D03*
X97643207Y-127780295D03*
D17*
X95103207Y-127780295D03*
%TD*%
D35*
%TO.C,C58*%
X37993207Y-128085295D03*
X37993207Y-129635295D03*
%TD*%
D53*
%TO.C,L2*%
X51943207Y-43412795D03*
X55343207Y-43412795D03*
%TD*%
D33*
%TO.C,C38*%
X90618207Y-126110295D03*
X92168207Y-126110295D03*
%TD*%
D47*
%TO.C,D8*%
X36893207Y-125647795D03*
X36893207Y-124072795D03*
%TD*%
D16*
%TO.C,D6*%
X48430707Y-61860295D03*
X46855707Y-61860295D03*
%TD*%
D18*
%TO.C,J7*%
X33013207Y-40095295D03*
X33013207Y-42635295D03*
X30473207Y-40095295D03*
X30473207Y-42635295D03*
X27933207Y-40095295D03*
X27933207Y-42635295D03*
X25393207Y-40095295D03*
X25393207Y-42635295D03*
X22853207Y-40095295D03*
X22853207Y-42635295D03*
X20313207Y-40095295D03*
D17*
X20313207Y-42635295D03*
%TD*%
D33*
%TO.C,C32*%
X19868207Y-61110295D03*
X21418207Y-61110295D03*
%TD*%
D35*
%TO.C,C59*%
X36493207Y-128085295D03*
X36493207Y-129635295D03*
%TD*%
%TO.C,C33*%
X84143207Y-55835295D03*
X84143207Y-57385295D03*
%TD*%
D36*
%TO.C,C60*%
X22893207Y-137135295D03*
X22893207Y-135585295D03*
%TD*%
D41*
%TO.C,D12*%
X82893207Y-73860295D03*
X82893207Y-77860295D03*
%TD*%
%TO.C,D14*%
X82893207Y-112860295D03*
X82893207Y-116860295D03*
%TD*%
D28*
%TO.C,R34*%
X77568207Y-128860295D03*
X79218207Y-128860295D03*
%TD*%
D16*
%TO.C,D7*%
X42430707Y-61912795D03*
X40855707Y-61912795D03*
%TD*%
D36*
%TO.C,C61*%
X21393207Y-137135295D03*
X21393207Y-135585295D03*
%TD*%
D37*
%TO.C,C52*%
X51643207Y-36937795D03*
X51643207Y-39887795D03*
%TD*%
D33*
%TO.C,C56*%
X26118207Y-123610295D03*
X27668207Y-123610295D03*
%TD*%
D28*
%TO.C,R15*%
X19818207Y-62610295D03*
X21468207Y-62610295D03*
%TD*%
D27*
%TO.C,R13*%
X90893207Y-65685295D03*
X90893207Y-64035295D03*
%TD*%
D36*
%TO.C,C37*%
X78893207Y-136635295D03*
X78893207Y-135085295D03*
%TD*%
D27*
%TO.C,R20*%
X90893207Y-85185295D03*
X90893207Y-83535295D03*
%TD*%
D39*
%TO.C,D9*%
X32393207Y-70860295D03*
X32393207Y-66860295D03*
%TD*%
D26*
%TO.C,R25*%
X24343207Y-112035295D03*
X24343207Y-113685295D03*
%TD*%
D39*
%TO.C,D11*%
X32393207Y-109860295D03*
X32393207Y-105860295D03*
%TD*%
D28*
%TO.C,R9*%
X22818207Y-65610295D03*
X24468207Y-65610295D03*
%TD*%
D37*
%TO.C,C51*%
X55643207Y-36937795D03*
X55643207Y-39887795D03*
%TD*%
D21*
%TO.C,R41*%
X35218207Y-125610295D03*
X33568207Y-125610295D03*
%TD*%
D26*
%TO.C,R17*%
X27743207Y-73035295D03*
X27743207Y-74685295D03*
%TD*%
D15*
%TO.C,U4*%
X31943207Y-123910295D03*
X31943207Y-125810295D03*
X29343207Y-125810295D03*
X29343207Y-124860295D03*
X29343207Y-123910295D03*
%TD*%
D26*
%TO.C,R12*%
X21393207Y-64035295D03*
X21393207Y-65685295D03*
%TD*%
D27*
%TO.C,R14*%
X26043207Y-74685295D03*
X26043207Y-73035295D03*
%TD*%
D26*
%TO.C,R16*%
X92593207Y-64035295D03*
X92593207Y-65685295D03*
%TD*%
%TO.C,R11*%
X24343207Y-73035295D03*
X24343207Y-74685295D03*
%TD*%
D15*
%TO.C,U1*%
X82593207Y-125810295D03*
X82593207Y-123910295D03*
X85193207Y-123910295D03*
X85193207Y-124860295D03*
X85193207Y-125810295D03*
%TD*%
D26*
%TO.C,R24*%
X89193207Y-103035295D03*
X89193207Y-104685295D03*
%TD*%
%TO.C,R18*%
X89193207Y-83535295D03*
X89193207Y-85185295D03*
%TD*%
%TO.C,R23*%
X27743207Y-92535295D03*
X27743207Y-94185295D03*
%TD*%
D27*
%TO.C,R26*%
X90893207Y-104685295D03*
X90893207Y-103035295D03*
%TD*%
D28*
%TO.C,R30*%
X76318207Y-54860295D03*
X77968207Y-54860295D03*
%TD*%
D40*
%TO.C,D1*%
X18893207Y-67360295D03*
X17943207Y-65485295D03*
X19843207Y-65485295D03*
%TD*%
D50*
%TO.C,Q11*%
X74393207Y-97310295D03*
X74393207Y-91860295D03*
D49*
X74393207Y-86410295D03*
D48*
X94253207Y-91860295D03*
%TD*%
D29*
%TO.C,R44*%
X35393207Y-110822795D03*
X35393207Y-107897795D03*
%TD*%
D50*
%TO.C,Q10*%
X74393207Y-77810295D03*
X74393207Y-72360295D03*
D49*
X74393207Y-66910295D03*
D48*
X94253207Y-72360295D03*
%TD*%
D29*
%TO.C,R43*%
X35393207Y-91322795D03*
X35393207Y-88397795D03*
%TD*%
D30*
%TO.C,R47*%
X79893207Y-92397795D03*
X79893207Y-95322795D03*
%TD*%
%TO.C,R48*%
X79893207Y-111897795D03*
X79893207Y-114822795D03*
%TD*%
D29*
%TO.C,R42*%
X35393207Y-71822795D03*
X35393207Y-68897795D03*
%TD*%
D50*
%TO.C,Q9*%
X40893207Y-105910295D03*
X40893207Y-111360295D03*
D49*
X40893207Y-116810295D03*
D48*
X21033207Y-111360295D03*
%TD*%
D50*
%TO.C,Q12*%
X74393207Y-116810295D03*
X74393207Y-111360295D03*
D49*
X74393207Y-105910295D03*
D48*
X94253207Y-111360295D03*
%TD*%
D30*
%TO.C,R46*%
X79893207Y-72897795D03*
X79893207Y-75822795D03*
%TD*%
M02*
