M48
; DRILL file {KiCad 9.0.1} date 2025-07-31T04:03:38-0500
; FORMAT={-:-/ absolute / metric / decimal}
; #@! TF.CreationDate,2025-07-31T04:03:38-05:00
; #@! TF.GenerationSoftware,Kicad,Pcbnew,9.0.1
; #@! TF.FileFunction,Plated,1,6,PTH
FMAT,2
METRIC
; #@! TA.AperFunction,Plated,PTH,ViaDrill
T1C0.300
; #@! TA.AperFunction,Plated,PTH,ViaDrill
T2C0.400
; #@! TA.AperFunction,Plated,PTH,ComponentDrill
T3C0.600
; #@! TA.AperFunction,Plated,PTH,ComponentDrill
T4C1.000
; #@! TA.AperFunction,Plated,PTH,ComponentDrill
T5C1.500
; #@! TA.AperFunction,Plated,PTH,ComponentDrill
T6C1.600
; #@! TA.AperFunction,Plated,PTH,ComponentDrill
T7C6.500
%
G90
G05
T1
X23.743Y-60.86
X23.743Y-61.46
X23.743Y-62.06
X24.043Y-70.86
X24.043Y-71.46
X24.043Y-72.06
X24.043Y-90.36
X24.043Y-90.96
X24.043Y-91.56
X24.043Y-109.86
X24.043Y-110.46
X24.043Y-111.06
X24.343Y-60.86
X24.343Y-61.46
X24.343Y-62.06
X24.643Y-70.86
X24.643Y-71.46
X24.643Y-72.06
X24.643Y-90.36
X24.643Y-90.96
X24.643Y-91.56
X24.643Y-109.86
X24.643Y-110.46
X24.643Y-111.06
X25.743Y-70.86
X25.743Y-71.46
X25.743Y-72.06
X25.743Y-90.36
X25.743Y-90.96
X25.743Y-91.56
X25.743Y-109.86
X25.743Y-110.46
X25.743Y-111.06
X26.043Y-60.86
X26.043Y-61.46
X26.043Y-62.06
X26.343Y-70.86
X26.343Y-71.46
X26.343Y-72.06
X26.343Y-90.36
X26.343Y-90.96
X26.343Y-91.56
X26.343Y-109.86
X26.343Y-110.46
X26.343Y-111.06
X26.643Y-60.86
X26.643Y-61.46
X26.643Y-62.06
X27.443Y-70.86
X27.443Y-71.46
X27.443Y-72.06
X27.443Y-90.36
X27.443Y-90.96
X27.443Y-91.56
X27.443Y-109.86
X27.443Y-110.46
X27.443Y-111.06
X27.743Y-60.86
X27.743Y-61.46
X27.743Y-62.06
X28.043Y-70.86
X28.043Y-71.46
X28.043Y-72.06
X28.043Y-90.36
X28.043Y-90.96
X28.043Y-91.56
X28.043Y-109.86
X28.043Y-110.46
X28.043Y-111.06
X28.343Y-60.86
X28.343Y-61.46
X28.343Y-62.06
X53.143Y-115.86
X53.643Y-115.36
X53.643Y-124.36
X54.143Y-114.86
X54.143Y-115.86
X54.143Y-123.86
X54.143Y-124.86
X54.643Y-114.36
X54.643Y-115.36
X54.643Y-116.36
X54.643Y-123.36
X54.643Y-124.36
X54.643Y-125.36
X55.143Y-113.86
X55.143Y-114.86
X55.143Y-115.86
X55.143Y-122.86
X55.143Y-123.86
X55.143Y-124.86
X55.643Y-114.36
X55.643Y-115.36
X55.643Y-116.36
X55.643Y-123.36
X55.643Y-124.36
X55.643Y-125.36
X56.143Y-113.86
X56.143Y-114.86
X56.143Y-123.86
X56.143Y-124.86
X56.643Y-114.36
X56.643Y-115.36
X56.643Y-123.36
X56.643Y-124.36
X56.643Y-125.36
X57.143Y-113.86
X57.143Y-114.86
X57.143Y-123.86
X57.143Y-124.86
X57.643Y-114.36
X57.643Y-115.36
X57.643Y-123.36
X57.643Y-124.36
X57.643Y-125.36
X58.143Y-113.86
X58.143Y-114.86
X58.143Y-123.86
X58.143Y-124.86
X58.643Y-114.36
X58.643Y-115.36
X58.643Y-123.36
X58.643Y-124.36
X58.643Y-125.36
X59.143Y-113.86
X59.143Y-114.86
X59.143Y-123.86
X59.143Y-124.86
X59.643Y-114.36
X59.643Y-115.36
X59.643Y-116.36
X59.643Y-123.36
X59.643Y-124.36
X59.643Y-125.36
X60.143Y-113.86
X60.143Y-114.86
X60.143Y-115.86
X60.143Y-122.86
X60.143Y-123.86
X60.143Y-124.86
X60.643Y-114.36
X60.643Y-115.36
X60.643Y-116.36
X60.643Y-123.36
X60.643Y-124.36
X60.643Y-125.36
X61.143Y-114.86
X61.143Y-115.86
X61.143Y-123.86
X61.143Y-124.86
X61.643Y-115.36
X61.643Y-124.36
X62.143Y-115.86
X88.893Y-81.36
X88.893Y-81.96
X88.893Y-82.56
X88.893Y-100.86
X88.893Y-101.46
X88.893Y-102.06
X89.493Y-60.86
X89.493Y-61.46
X89.493Y-62.06
X89.493Y-81.36
X89.493Y-81.96
X89.493Y-82.56
X89.493Y-100.86
X89.493Y-101.46
X89.493Y-102.06
X90.093Y-60.86
X90.093Y-61.46
X90.093Y-62.06
X90.593Y-81.36
X90.593Y-81.96
X90.593Y-82.56
X90.593Y-100.86
X90.593Y-101.46
X90.593Y-102.06
X91.193Y-81.36
X91.193Y-81.96
X91.193Y-82.56
X91.193Y-100.86
X91.193Y-101.46
X91.193Y-102.06
X91.793Y-60.86
X91.793Y-61.46
X91.793Y-62.06
X92.293Y-81.36
X92.293Y-81.96
X92.293Y-82.56
X92.293Y-100.86
X92.293Y-101.46
X92.293Y-102.06
X92.393Y-60.86
X92.393Y-61.46
X92.393Y-62.06
X92.893Y-81.36
X92.893Y-81.96
X92.893Y-82.56
X92.893Y-100.86
X92.893Y-101.46
X92.893Y-102.06
X93.493Y-60.86
X93.493Y-61.46
X93.493Y-62.06
X94.093Y-60.86
X94.093Y-61.46
X94.093Y-62.06
X113.743Y-60.86
X113.743Y-61.46
X113.743Y-62.06
X114.043Y-70.86
X114.043Y-71.46
X114.043Y-72.06
X114.043Y-90.36
X114.043Y-90.96
X114.043Y-91.56
X114.043Y-109.86
X114.043Y-110.46
X114.043Y-111.06
X114.343Y-60.86
X114.343Y-61.46
X114.343Y-62.06
X114.643Y-70.86
X114.643Y-71.46
X114.643Y-72.06
X114.643Y-90.36
X114.643Y-90.96
X114.643Y-91.56
X114.643Y-109.86
X114.643Y-110.46
X114.643Y-111.06
X115.743Y-70.86
X115.743Y-71.46
X115.743Y-72.06
X115.743Y-90.36
X115.743Y-90.96
X115.743Y-91.56
X115.743Y-109.86
X115.743Y-110.46
X115.743Y-111.06
X116.043Y-60.86
X116.043Y-61.46
X116.043Y-62.06
X116.343Y-70.86
X116.343Y-71.46
X116.343Y-72.06
X116.343Y-90.36
X116.343Y-90.96
X116.343Y-91.56
X116.343Y-109.86
X116.343Y-110.46
X116.343Y-111.06
X116.643Y-60.86
X116.643Y-61.46
X116.643Y-62.06
X117.443Y-70.86
X117.443Y-71.46
X117.443Y-72.06
X117.443Y-90.36
X117.443Y-90.96
X117.443Y-91.56
X117.443Y-109.86
X117.443Y-110.46
X117.443Y-111.06
X117.743Y-60.86
X117.743Y-61.46
X117.743Y-62.06
X118.043Y-70.86
X118.043Y-71.46
X118.043Y-72.06
X118.043Y-90.36
X118.043Y-90.96
X118.043Y-91.56
X118.043Y-109.86
X118.043Y-110.46
X118.043Y-111.06
X118.343Y-60.86
X118.343Y-61.46
X118.343Y-62.06
X143.143Y-115.86
X143.643Y-115.36
X143.643Y-124.36
X144.143Y-114.86
X144.143Y-115.86
X144.143Y-123.86
X144.143Y-124.86
X144.643Y-114.36
X144.643Y-115.36
X144.643Y-116.36
X144.643Y-123.36
X144.643Y-124.36
X144.643Y-125.36
X145.143Y-113.86
X145.143Y-114.86
X145.143Y-115.86
X145.143Y-122.86
X145.143Y-123.86
X145.143Y-124.86
X145.643Y-114.36
X145.643Y-115.36
X145.643Y-116.36
X145.643Y-123.36
X145.643Y-124.36
X145.643Y-125.36
X146.143Y-113.86
X146.143Y-114.86
X146.143Y-123.86
X146.143Y-124.86
X146.643Y-114.36
X146.643Y-115.36
X146.643Y-123.36
X146.643Y-124.36
X146.643Y-125.36
X147.143Y-113.86
X147.143Y-114.86
X147.143Y-123.86
X147.143Y-124.86
X147.643Y-114.36
X147.643Y-115.36
X147.643Y-123.36
X147.643Y-124.36
X147.643Y-125.36
X148.143Y-113.86
X148.143Y-114.86
X148.143Y-123.86
X148.143Y-124.86
X148.643Y-114.36
X148.643Y-115.36
X148.643Y-123.36
X148.643Y-124.36
X148.643Y-125.36
X149.143Y-113.86
X149.143Y-114.86
X149.143Y-123.86
X149.143Y-124.86
X149.643Y-114.36
X149.643Y-115.36
X149.643Y-116.36
X149.643Y-123.36
X149.643Y-124.36
X149.643Y-125.36
X150.143Y-113.86
X150.143Y-114.86
X150.143Y-115.86
X150.143Y-122.86
X150.143Y-123.86
X150.143Y-124.86
X150.643Y-114.36
X150.643Y-115.36
X150.643Y-116.36
X150.643Y-123.36
X150.643Y-124.36
X150.643Y-125.36
X151.143Y-114.86
X151.143Y-115.86
X151.143Y-123.86
X151.143Y-124.86
X151.643Y-115.36
X151.643Y-124.36
X152.143Y-115.86
X178.893Y-81.36
X178.893Y-81.96
X178.893Y-82.56
X178.893Y-100.86
X178.893Y-101.46
X178.893Y-102.06
X179.493Y-60.86
X179.493Y-61.46
X179.493Y-62.06
X179.493Y-81.36
X179.493Y-81.96
X179.493Y-82.56
X179.493Y-100.86
X179.493Y-101.46
X179.493Y-102.06
X180.093Y-60.86
X180.093Y-61.46
X180.093Y-62.06
X180.593Y-81.36
X180.593Y-81.96
X180.593Y-82.56
X180.593Y-100.86
X180.593Y-101.46
X180.593Y-102.06
X181.193Y-81.36
X181.193Y-81.96
X181.193Y-82.56
X181.193Y-100.86
X181.193Y-101.46
X181.193Y-102.06
X181.793Y-60.86
X181.793Y-61.46
X181.793Y-62.06
X182.293Y-81.36
X182.293Y-81.96
X182.293Y-82.56
X182.293Y-100.86
X182.293Y-101.46
X182.293Y-102.06
X182.393Y-60.86
X182.393Y-61.46
X182.393Y-62.06
X182.893Y-81.36
X182.893Y-81.96
X182.893Y-82.56
X182.893Y-100.86
X182.893Y-101.46
X182.893Y-102.06
X183.493Y-60.86
X183.493Y-61.46
X183.493Y-62.06
X184.093Y-60.86
X184.093Y-61.46
X184.093Y-62.06
X203.743Y-60.86
X203.743Y-61.46
X203.743Y-62.06
X204.043Y-70.86
X204.043Y-71.46
X204.043Y-72.06
X204.043Y-90.36
X204.043Y-90.96
X204.043Y-91.56
X204.043Y-109.86
X204.043Y-110.46
X204.043Y-111.06
X204.343Y-60.86
X204.343Y-61.46
X204.343Y-62.06
X204.643Y-70.86
X204.643Y-71.46
X204.643Y-72.06
X204.643Y-90.36
X204.643Y-90.96
X204.643Y-91.56
X204.643Y-109.86
X204.643Y-110.46
X204.643Y-111.06
X205.743Y-70.86
X205.743Y-71.46
X205.743Y-72.06
X205.743Y-90.36
X205.743Y-90.96
X205.743Y-91.56
X205.743Y-109.86
X205.743Y-110.46
X205.743Y-111.06
X206.043Y-60.86
X206.043Y-61.46
X206.043Y-62.06
X206.343Y-70.86
X206.343Y-71.46
X206.343Y-72.06
X206.343Y-90.36
X206.343Y-90.96
X206.343Y-91.56
X206.343Y-109.86
X206.343Y-110.46
X206.343Y-111.06
X206.643Y-60.86
X206.643Y-61.46
X206.643Y-62.06
X207.443Y-70.86
X207.443Y-71.46
X207.443Y-72.06
X207.443Y-90.36
X207.443Y-90.96
X207.443Y-91.56
X207.443Y-109.86
X207.443Y-110.46
X207.443Y-111.06
X207.743Y-60.86
X207.743Y-61.46
X207.743Y-62.06
X208.043Y-70.86
X208.043Y-71.46
X208.043Y-72.06
X208.043Y-90.36
X208.043Y-90.96
X208.043Y-91.56
X208.043Y-109.86
X208.043Y-110.46
X208.043Y-111.06
X208.343Y-60.86
X208.343Y-61.46
X208.343Y-62.06
X233.143Y-115.86
X233.643Y-115.36
X233.643Y-124.36
X234.143Y-114.86
X234.143Y-115.86
X234.143Y-123.86
X234.143Y-124.86
X234.643Y-114.36
X234.643Y-115.36
X234.643Y-116.36
X234.643Y-123.36
X234.643Y-124.36
X234.643Y-125.36
X235.143Y-113.86
X235.143Y-114.86
X235.143Y-115.86
X235.143Y-122.86
X235.143Y-123.86
X235.143Y-124.86
X235.643Y-114.36
X235.643Y-115.36
X235.643Y-116.36
X235.643Y-123.36
X235.643Y-124.36
X235.643Y-125.36
X236.143Y-113.86
X236.143Y-114.86
X236.143Y-123.86
X236.143Y-124.86
X236.643Y-114.36
X236.643Y-115.36
X236.643Y-123.36
X236.643Y-124.36
X236.643Y-125.36
X237.143Y-113.86
X237.143Y-114.86
X237.143Y-123.86
X237.143Y-124.86
X237.643Y-114.36
X237.643Y-115.36
X237.643Y-123.36
X237.643Y-124.36
X237.643Y-125.36
X238.143Y-113.86
X238.143Y-114.86
X238.143Y-123.86
X238.143Y-124.86
X238.643Y-114.36
X238.643Y-115.36
X238.643Y-123.36
X238.643Y-124.36
X238.643Y-125.36
X239.143Y-113.86
X239.143Y-114.86
X239.143Y-123.86
X239.143Y-124.86
X239.643Y-114.36
X239.643Y-115.36
X239.643Y-116.36
X239.643Y-123.36
X239.643Y-124.36
X239.643Y-125.36
X240.143Y-113.86
X240.143Y-114.86
X240.143Y-115.86
X240.143Y-122.86
X240.143Y-123.86
X240.143Y-124.86
X240.643Y-114.36
X240.643Y-115.36
X240.643Y-116.36
X240.643Y-123.36
X240.643Y-124.36
X240.643Y-125.36
X241.143Y-114.86
X241.143Y-115.86
X241.143Y-123.86
X241.143Y-124.86
X241.643Y-115.36
X241.643Y-124.36
X242.143Y-115.86
X268.893Y-81.36
X268.893Y-81.96
X268.893Y-82.56
X268.893Y-100.86
X268.893Y-101.46
X268.893Y-102.06
X269.493Y-60.86
X269.493Y-61.46
X269.493Y-62.06
X269.493Y-81.36
X269.493Y-81.96
X269.493Y-82.56
X269.493Y-100.86
X269.493Y-101.46
X269.493Y-102.06
X270.093Y-60.86
X270.093Y-61.46
X270.093Y-62.06
X270.593Y-81.36
X270.593Y-81.96
X270.593Y-82.56
X270.593Y-100.86
X270.593Y-101.46
X270.593Y-102.06
X271.193Y-81.36
X271.193Y-81.96
X271.193Y-82.56
X271.193Y-100.86
X271.193Y-101.46
X271.193Y-102.06
X271.793Y-60.86
X271.793Y-61.46
X271.793Y-62.06
X272.293Y-81.36
X272.293Y-81.96
X272.293Y-82.56
X272.293Y-100.86
X272.293Y-101.46
X272.293Y-102.06
X272.393Y-60.86
X272.393Y-61.46
X272.393Y-62.06
X272.893Y-81.36
X272.893Y-81.96
X272.893Y-82.56
X272.893Y-100.86
X272.893Y-101.46
X272.893Y-102.06
X273.493Y-60.86
X273.493Y-61.46
X273.493Y-62.06
X274.093Y-60.86
X274.093Y-61.46
X274.093Y-62.06
T2
X15.393Y-66.36
X18.893Y-68.86
X19.618Y-47.86
X19.868Y-61.11
X19.893Y-56.36
X21.118Y-37.885
X21.168Y-47.86
X21.893Y-140.61
X21.893Y-142.11
X22.643Y-141.36
X23.393Y-140.61
X23.393Y-142.11
X24.143Y-141.36
X24.893Y-140.61
X24.893Y-142.11
X25.143Y-47.61
X25.393Y-57.635
X25.643Y-141.36
X26.393Y-140.61
X26.393Y-142.11
X26.548Y-47.61
X27.818Y-48.36
X30.493Y-57.635
X31.393Y-57.585
X32.293Y-57.585
X32.893Y-140.61
X32.893Y-142.11
X33.643Y-141.36
X34.393Y-140.61
X34.393Y-142.11
X35.143Y-141.36
X35.893Y-140.61
X35.893Y-142.11
X36.643Y-141.36
X37.393Y-140.61
X37.393Y-142.11
X42.431Y-61.913
X43.643Y-140.61
X43.643Y-142.11
X44.393Y-141.36
X45.143Y-140.61
X45.143Y-142.11
X45.893Y-141.36
X46.643Y-140.61
X46.643Y-142.11
X46.856Y-61.86
X47.393Y-141.36
X48.143Y-140.61
X48.143Y-142.11
X48.393Y-60.338
X48.431Y-61.86
X54.893Y-39.888
X55.343Y-42.36
X55.343Y-43.36
X55.343Y-44.36
X55.643Y-39.888
X56.393Y-39.888
X64.893Y-114.86
X67.143Y-140.61
X67.143Y-142.11
X67.893Y-141.36
X68.643Y-140.61
X68.643Y-142.11
X69.393Y-141.36
X70.143Y-140.61
X70.143Y-142.11
X70.893Y-141.36
X71.643Y-140.61
X71.643Y-142.11
X76.318Y-54.86
X77.393Y-136.635
X77.568Y-128.86
X77.568Y-130.86
X78.393Y-140.61
X78.393Y-142.11
X78.893Y-136.635
X79.143Y-141.36
X79.181Y-124.11
X79.893Y-140.61
X79.893Y-142.11
X80.643Y-141.36
X80.893Y-124.085
X81.393Y-140.61
X81.393Y-142.11
X82.143Y-141.36
X82.643Y-55.785
X82.893Y-140.61
X82.893Y-142.11
X84.143Y-55.835
X86.893Y-124.085
X87.158Y-37.885
X87.168Y-47.86
X88.893Y-140.61
X88.893Y-142.11
X89.643Y-141.36
X90.393Y-140.61
X90.393Y-142.11
X90.768Y-47.735
X91.143Y-57.635
X91.143Y-141.36
X91.893Y-140.61
X91.893Y-142.11
X92.643Y-141.36
X93.393Y-140.61
X93.393Y-142.11
X96.143Y-57.598
X97.131Y-57.598
X98.143Y-57.61
X99.643Y-66.11
X105.393Y-66.36
X108.893Y-68.86
X109.618Y-47.86
X109.868Y-61.11
X109.893Y-56.36
X111.118Y-37.885
X111.168Y-47.86
X111.893Y-140.61
X111.893Y-142.11
X112.643Y-141.36
X113.393Y-140.61
X113.393Y-142.11
X114.143Y-141.36
X114.893Y-140.61
X114.893Y-142.11
X115.143Y-47.61
X115.393Y-57.635
X115.643Y-141.36
X116.393Y-140.61
X116.393Y-142.11
X116.548Y-47.61
X117.818Y-48.36
X120.493Y-57.635
X121.393Y-57.585
X122.293Y-57.585
X122.893Y-140.61
X122.893Y-142.11
X123.643Y-141.36
X124.393Y-140.61
X124.393Y-142.11
X125.143Y-141.36
X125.893Y-140.61
X125.893Y-142.11
X126.643Y-141.36
X127.393Y-140.61
X127.393Y-142.11
X132.431Y-61.913
X133.643Y-140.61
X133.643Y-142.11
X134.393Y-141.36
X135.143Y-140.61
X135.143Y-142.11
X135.893Y-141.36
X136.643Y-140.61
X136.643Y-142.11
X136.856Y-61.86
X137.393Y-141.36
X138.143Y-140.61
X138.143Y-142.11
X138.393Y-60.338
X138.431Y-61.86
X144.893Y-39.888
X145.343Y-42.36
X145.343Y-43.36
X145.343Y-44.36
X145.643Y-39.888
X146.393Y-39.888
X154.893Y-114.86
X157.143Y-140.61
X157.143Y-142.11
X157.893Y-141.36
X158.643Y-140.61
X158.643Y-142.11
X159.393Y-141.36
X160.143Y-140.61
X160.143Y-142.11
X160.893Y-141.36
X161.643Y-140.61
X161.643Y-142.11
X166.318Y-54.86
X167.393Y-136.635
X167.568Y-128.86
X167.568Y-130.86
X168.393Y-140.61
X168.393Y-142.11
X168.893Y-136.635
X169.143Y-141.36
X169.181Y-124.11
X169.893Y-140.61
X169.893Y-142.11
X170.643Y-141.36
X170.893Y-124.085
X171.393Y-140.61
X171.393Y-142.11
X172.143Y-141.36
X172.643Y-55.785
X172.893Y-140.61
X172.893Y-142.11
X174.143Y-55.835
X176.893Y-124.085
X177.158Y-37.885
X177.168Y-47.86
X178.893Y-140.61
X178.893Y-142.11
X179.643Y-141.36
X180.393Y-140.61
X180.393Y-142.11
X180.768Y-47.735
X181.143Y-57.635
X181.143Y-141.36
X181.893Y-140.61
X181.893Y-142.11
X182.643Y-141.36
X183.393Y-140.61
X183.393Y-142.11
X186.143Y-57.598
X187.131Y-57.598
X188.143Y-57.61
X189.643Y-66.11
X195.393Y-66.36
X198.893Y-68.86
X199.618Y-47.86
X199.868Y-61.11
X199.893Y-56.36
X201.118Y-37.885
X201.168Y-47.86
X201.893Y-140.61
X201.893Y-142.11
X202.643Y-141.36
X203.393Y-140.61
X203.393Y-142.11
X204.143Y-141.36
X204.893Y-140.61
X204.893Y-142.11
X205.143Y-47.61
X205.393Y-57.635
X205.643Y-141.36
X206.393Y-140.61
X206.393Y-142.11
X206.548Y-47.61
X207.818Y-48.36
X210.493Y-57.635
X211.393Y-57.585
X212.293Y-57.585
X212.893Y-140.61
X212.893Y-142.11
X213.643Y-141.36
X214.393Y-140.61
X214.393Y-142.11
X215.143Y-141.36
X215.893Y-140.61
X215.893Y-142.11
X216.643Y-141.36
X217.393Y-140.61
X217.393Y-142.11
X222.431Y-61.913
X223.643Y-140.61
X223.643Y-142.11
X224.393Y-141.36
X225.143Y-140.61
X225.143Y-142.11
X225.893Y-141.36
X226.643Y-140.61
X226.643Y-142.11
X226.856Y-61.86
X227.393Y-141.36
X228.143Y-140.61
X228.143Y-142.11
X228.393Y-60.338
X228.431Y-61.86
X234.893Y-39.888
X235.343Y-42.36
X235.343Y-43.36
X235.343Y-44.36
X235.643Y-39.888
X236.393Y-39.888
X244.893Y-114.86
X247.143Y-140.61
X247.143Y-142.11
X247.893Y-141.36
X248.643Y-140.61
X248.643Y-142.11
X249.393Y-141.36
X250.143Y-140.61
X250.143Y-142.11
X250.893Y-141.36
X251.643Y-140.61
X251.643Y-142.11
X256.318Y-54.86
X257.393Y-136.635
X257.568Y-128.86
X257.568Y-130.86
X258.393Y-140.61
X258.393Y-142.11
X258.893Y-136.635
X259.143Y-141.36
X259.181Y-124.11
X259.893Y-140.61
X259.893Y-142.11
X260.643Y-141.36
X260.893Y-124.085
X261.393Y-140.61
X261.393Y-142.11
X262.143Y-141.36
X262.643Y-55.785
X262.893Y-140.61
X262.893Y-142.11
X264.143Y-55.835
X266.893Y-124.085
X267.158Y-37.885
X267.168Y-47.86
X268.893Y-140.61
X268.893Y-142.11
X269.643Y-141.36
X270.393Y-140.61
X270.393Y-142.11
X270.768Y-47.735
X271.143Y-57.635
X271.143Y-141.36
X271.893Y-140.61
X271.893Y-142.11
X272.643Y-141.36
X273.393Y-140.61
X273.393Y-142.11
X276.143Y-57.598
X277.131Y-57.598
X278.143Y-57.61
X279.643Y-66.11
T3
X52.768Y-136.36
X54.196Y-132.913
X54.196Y-139.807
X57.643Y-131.485
X57.643Y-141.235
X61.09Y-132.913
X61.09Y-139.807
X62.518Y-136.36
X142.768Y-136.36
X144.196Y-132.913
X144.196Y-139.807
X147.643Y-131.485
X147.643Y-141.235
X151.09Y-132.913
X151.09Y-139.807
X152.518Y-136.36
X232.768Y-136.36
X234.196Y-132.913
X234.196Y-139.807
X237.643Y-131.485
X237.643Y-141.235
X241.09Y-132.913
X241.09Y-139.807
X242.518Y-136.36
X292.798Y-83.923
X294.226Y-80.476
X294.226Y-87.37
X297.673Y-79.048
X297.673Y-88.798
X301.12Y-80.476
X301.12Y-87.37
X302.548Y-83.923
X302.595Y-135.577
X304.023Y-132.13
X304.023Y-139.024
X307.47Y-130.702
X307.47Y-140.452
X310.917Y-132.13
X310.917Y-139.024
X312.345Y-135.577
T4
X17.603Y-127.78
X17.603Y-130.32
X17.603Y-132.86
X20.143Y-127.78
X20.143Y-130.32
X20.143Y-132.86
X20.313Y-40.095
X20.313Y-42.635
X22.853Y-40.095
X22.853Y-42.635
X25.393Y-40.095
X25.393Y-42.635
X27.933Y-40.095
X27.933Y-42.635
X30.473Y-40.095
X30.473Y-42.635
X33.013Y-40.095
X33.013Y-42.635
X46.653Y-40.58
X46.653Y-43.12
X46.653Y-45.66
X46.653Y-50.74
X46.653Y-53.28
X46.653Y-55.82
X46.653Y-58.36
X53.893Y-119.36
X61.393Y-119.36
X83.793Y-40.095
X83.793Y-42.635
X86.333Y-40.095
X86.333Y-42.635
X88.873Y-40.095
X88.873Y-42.635
X91.413Y-40.095
X91.413Y-42.635
X93.953Y-40.095
X93.953Y-42.635
X95.103Y-127.78
X95.103Y-130.32
X95.103Y-132.86
X96.493Y-40.095
X96.493Y-42.635
X97.643Y-127.78
X97.643Y-130.32
X97.643Y-132.86
X110.293Y-40.095
X110.293Y-42.635
X112.833Y-40.095
X112.833Y-42.635
X115.373Y-40.095
X115.373Y-42.635
X117.913Y-40.095
X117.913Y-42.635
X120.453Y-40.095
X120.453Y-42.635
X122.993Y-40.095
X122.993Y-42.635
X136.653Y-40.58
X136.653Y-43.12
X136.653Y-45.66
X136.653Y-50.74
X136.653Y-53.28
X136.653Y-55.82
X136.653Y-58.36
X143.893Y-119.36
X151.393Y-119.36
X173.793Y-40.095
X173.793Y-42.635
X176.333Y-40.095
X176.333Y-42.635
X178.873Y-40.095
X178.873Y-42.635
X181.413Y-40.095
X181.413Y-42.635
X183.953Y-40.095
X183.953Y-42.635
X186.493Y-40.095
X186.493Y-42.635
X197.618Y-127.78
X197.618Y-130.32
X197.618Y-132.86
X200.158Y-127.78
X200.158Y-130.32
X200.158Y-132.86
X200.293Y-40.095
X200.293Y-42.635
X202.833Y-40.095
X202.833Y-42.635
X205.373Y-40.095
X205.373Y-42.635
X207.913Y-40.095
X207.913Y-42.635
X210.453Y-40.095
X210.453Y-42.635
X212.993Y-40.095
X212.993Y-42.635
X226.653Y-40.58
X226.653Y-43.12
X226.653Y-45.66
X226.653Y-50.74
X226.653Y-53.28
X226.653Y-55.82
X226.653Y-58.36
X233.893Y-119.36
X241.393Y-119.36
X263.793Y-40.095
X263.793Y-42.635
X266.333Y-40.095
X266.333Y-42.635
X268.873Y-40.095
X268.873Y-42.635
X271.413Y-40.095
X271.413Y-42.635
X273.953Y-40.095
X273.953Y-42.635
X275.118Y-127.82
X275.118Y-130.36
X275.118Y-132.9
X276.493Y-40.095
X276.493Y-42.635
X277.658Y-127.82
X277.658Y-130.36
X277.658Y-132.9
X289.585Y-103.12
X292.125Y-103.12
X294.665Y-103.12
X299.745Y-103.12
X302.285Y-103.12
X304.825Y-103.12
X307.33Y-81.25
X307.33Y-83.79
X307.33Y-86.33
X307.33Y-88.87
X307.33Y-91.41
X307.33Y-93.95
X307.365Y-103.12
X309.87Y-81.25
X309.87Y-83.79
X309.87Y-86.33
X309.87Y-88.87
X309.87Y-91.41
X309.87Y-93.95
X311.72Y-106.5
X311.72Y-109.04
X311.72Y-111.58
X312.33Y-117.83
X312.33Y-120.37
X312.33Y-122.91
X314.26Y-106.5
X314.26Y-109.04
X314.26Y-111.58
X314.87Y-117.83
X314.87Y-120.37
X314.87Y-122.91
T5
X40.893Y-66.91
X40.893Y-72.36
X40.893Y-77.81
X40.893Y-86.41
X40.893Y-91.86
X40.893Y-97.31
X40.893Y-105.91
X40.893Y-111.36
X40.893Y-116.81
X74.393Y-66.91
X74.393Y-72.36
X74.393Y-77.81
X74.393Y-86.41
X74.393Y-91.86
X74.393Y-97.31
X74.393Y-105.91
X74.393Y-111.36
X74.393Y-116.81
X130.893Y-66.91
X130.893Y-72.36
X130.893Y-77.81
X130.893Y-86.41
X130.893Y-91.86
X130.893Y-97.31
X130.893Y-105.91
X130.893Y-111.36
X130.893Y-116.81
X164.393Y-66.91
X164.393Y-72.36
X164.393Y-77.81
X164.393Y-86.41
X164.393Y-91.86
X164.393Y-97.31
X164.393Y-105.91
X164.393Y-111.36
X164.393Y-116.81
X220.893Y-66.91
X220.893Y-72.36
X220.893Y-77.81
X220.893Y-86.41
X220.893Y-91.86
X220.893Y-97.31
X220.893Y-105.91
X220.893Y-111.36
X220.893Y-116.81
X254.393Y-66.91
X254.393Y-72.36
X254.393Y-77.81
X254.393Y-86.41
X254.393Y-91.86
X254.393Y-97.31
X254.393Y-105.91
X254.393Y-111.36
X254.393Y-116.81
T6
X15.643Y-49.36
X16.893Y-61.36
X16.893Y-123.86
X16.893Y-136.86
X31.893Y-47.36
X33.893Y-61.36
X36.893Y-47.36
X41.393Y-129.61
X45.643Y-119.36
X52.893Y-51.36
X52.893Y-56.36
X52.893Y-61.36
X62.643Y-56.36
X72.143Y-128.11
X72.143Y-135.11
X81.893Y-49.36
X81.893Y-60.11
X96.893Y-46.36
X97.893Y-61.36
X98.393Y-123.86
X98.393Y-136.86
X99.893Y-49.36
X105.643Y-49.36
X106.893Y-61.36
X106.893Y-123.86
X106.893Y-136.86
X121.893Y-47.36
X123.893Y-61.36
X126.893Y-47.36
X131.393Y-129.61
X135.643Y-119.36
X142.893Y-51.36
X142.893Y-56.36
X142.893Y-61.36
X152.643Y-56.36
X162.143Y-128.11
X162.143Y-135.11
X171.893Y-49.36
X171.893Y-60.11
X186.893Y-46.36
X187.893Y-61.36
X188.393Y-123.86
X188.393Y-136.86
X189.893Y-49.36
X195.643Y-49.36
X196.893Y-61.36
X196.893Y-123.86
X196.893Y-136.86
X211.893Y-47.36
X213.893Y-61.36
X216.893Y-47.36
X221.393Y-129.61
X225.643Y-119.36
X232.893Y-51.36
X232.893Y-56.36
X232.893Y-61.36
X242.643Y-56.36
X252.143Y-128.11
X252.143Y-135.11
X261.893Y-49.36
X261.893Y-60.11
X276.893Y-46.36
X277.893Y-61.36
X278.393Y-123.86
X278.393Y-136.86
X279.893Y-49.36
X297.55Y-55.74
X297.55Y-60.47
X297.55Y-65.2
X297.55Y-69.93
X298.37Y-92.43
X298.37Y-97.16
X298.7Y-112.99
X298.7Y-117.72
T7
X57.643Y-136.36
X147.643Y-136.36
X237.643Y-136.36
X297.673Y-83.923
X307.47Y-135.577
M30
