M48
; DRILL file {KiCad 9.0.1} date 2025-08-06T03:02:04-0500
; FORMAT={-:-/ absolute / metric / decimal}
; #@! TF.CreationDate,2025-08-06T03:02:04-05:00
; #@! TF.GenerationSoftware,Kicad,Pcbnew,9.0.1
; #@! TF.FileFunction,Plated,1,6,PTH
FMAT,2
METRIC
; #@! TA.AperFunction,Plated,PTH,ViaDrill
T1C0.300
; #@! TA.AperFunction,Plated,PTH,ViaDrill
T2C0.400
; #@! TA.AperFunction,Plated,PTH,ComponentDrill
T3C0.600
; #@! TA.AperFunction,Plated,PTH,ComponentDrill
T4C1.000
; #@! TA.AperFunction,Plated,PTH,ComponentDrill
T5C1.500
; #@! TA.AperFunction,Plated,PTH,ComponentDrill
T6C1.600
; #@! TA.AperFunction,Plated,PTH,ComponentDrill
T7C6.500
%
G90
G05
T1
X23.85Y-60.75
X23.85Y-61.35
X23.85Y-61.95
X24.15Y-70.75
X24.15Y-71.35
X24.15Y-71.95
X24.15Y-90.25
X24.15Y-90.85
X24.15Y-91.45
X24.15Y-109.75
X24.15Y-110.35
X24.15Y-110.95
X24.45Y-60.75
X24.45Y-61.35
X24.45Y-61.95
X24.75Y-70.75
X24.75Y-71.35
X24.75Y-71.95
X24.75Y-90.25
X24.75Y-90.85
X24.75Y-91.45
X24.75Y-109.75
X24.75Y-110.35
X24.75Y-110.95
X25.85Y-70.75
X25.85Y-71.35
X25.85Y-71.95
X25.85Y-90.25
X25.85Y-90.85
X25.85Y-91.45
X25.85Y-109.75
X25.85Y-110.35
X25.85Y-110.95
X26.15Y-60.75
X26.15Y-61.35
X26.15Y-61.95
X26.45Y-70.75
X26.45Y-71.35
X26.45Y-71.95
X26.45Y-90.25
X26.45Y-90.85
X26.45Y-91.45
X26.45Y-109.75
X26.45Y-110.35
X26.45Y-110.95
X26.75Y-60.75
X26.75Y-61.35
X26.75Y-61.95
X27.55Y-70.75
X27.55Y-71.35
X27.55Y-71.95
X27.55Y-90.25
X27.55Y-90.85
X27.55Y-91.45
X27.55Y-109.75
X27.55Y-110.35
X27.55Y-110.95
X27.85Y-60.75
X27.85Y-61.35
X27.85Y-61.95
X28.15Y-70.75
X28.15Y-71.35
X28.15Y-71.95
X28.15Y-90.25
X28.15Y-90.85
X28.15Y-91.45
X28.15Y-109.75
X28.15Y-110.35
X28.15Y-110.95
X28.45Y-60.75
X28.45Y-61.35
X28.45Y-61.95
X53.25Y-115.75
X53.75Y-115.25
X53.75Y-124.25
X54.25Y-114.75
X54.25Y-115.75
X54.25Y-123.75
X54.25Y-124.75
X54.75Y-114.25
X54.75Y-115.25
X54.75Y-116.25
X54.75Y-123.25
X54.75Y-124.25
X54.75Y-125.25
X55.25Y-113.75
X55.25Y-114.75
X55.25Y-115.75
X55.25Y-122.75
X55.25Y-123.75
X55.25Y-124.75
X55.75Y-114.25
X55.75Y-115.25
X55.75Y-116.25
X55.75Y-123.25
X55.75Y-124.25
X55.75Y-125.25
X56.25Y-113.75
X56.25Y-114.75
X56.25Y-123.75
X56.25Y-124.75
X56.75Y-114.25
X56.75Y-115.25
X56.75Y-123.25
X56.75Y-124.25
X56.75Y-125.25
X57.25Y-113.75
X57.25Y-114.75
X57.25Y-123.75
X57.25Y-124.75
X57.75Y-114.25
X57.75Y-115.25
X57.75Y-123.25
X57.75Y-124.25
X57.75Y-125.25
X58.25Y-113.75
X58.25Y-114.75
X58.25Y-123.75
X58.25Y-124.75
X58.75Y-114.25
X58.75Y-115.25
X58.75Y-123.25
X58.75Y-124.25
X58.75Y-125.25
X59.25Y-113.75
X59.25Y-114.75
X59.25Y-123.75
X59.25Y-124.75
X59.75Y-114.25
X59.75Y-115.25
X59.75Y-116.25
X59.75Y-123.25
X59.75Y-124.25
X59.75Y-125.25
X60.25Y-113.75
X60.25Y-114.75
X60.25Y-115.75
X60.25Y-122.75
X60.25Y-123.75
X60.25Y-124.75
X60.75Y-114.25
X60.75Y-115.25
X60.75Y-116.25
X60.75Y-123.25
X60.75Y-124.25
X60.75Y-125.25
X61.25Y-114.75
X61.25Y-115.75
X61.25Y-123.75
X61.25Y-124.75
X61.75Y-115.25
X61.75Y-124.25
X62.25Y-115.75
X89.0Y-81.25
X89.0Y-81.85
X89.0Y-82.45
X89.0Y-100.75
X89.0Y-101.35
X89.0Y-101.95
X89.6Y-60.75
X89.6Y-61.35
X89.6Y-61.95
X89.6Y-81.25
X89.6Y-81.85
X89.6Y-82.45
X89.6Y-100.75
X89.6Y-101.35
X89.6Y-101.95
X90.2Y-60.75
X90.2Y-61.35
X90.2Y-61.95
X90.7Y-81.25
X90.7Y-81.85
X90.7Y-82.45
X90.7Y-100.75
X90.7Y-101.35
X90.7Y-101.95
X91.3Y-81.25
X91.3Y-81.85
X91.3Y-82.45
X91.3Y-100.75
X91.3Y-101.35
X91.3Y-101.95
X91.9Y-60.75
X91.9Y-61.35
X91.9Y-61.95
X92.4Y-81.25
X92.4Y-81.85
X92.4Y-82.45
X92.4Y-100.75
X92.4Y-101.35
X92.4Y-101.95
X92.5Y-60.75
X92.5Y-61.35
X92.5Y-61.95
X93.0Y-81.25
X93.0Y-81.85
X93.0Y-82.45
X93.0Y-100.75
X93.0Y-101.35
X93.0Y-101.95
X93.6Y-60.75
X93.6Y-61.35
X93.6Y-61.95
X94.2Y-60.75
X94.2Y-61.35
X94.2Y-61.95
X112.35Y-60.75
X112.35Y-61.35
X112.35Y-61.95
X112.65Y-70.75
X112.65Y-71.35
X112.65Y-71.95
X112.65Y-90.25
X112.65Y-90.85
X112.65Y-91.45
X112.65Y-109.75
X112.65Y-110.35
X112.65Y-110.95
X112.95Y-60.75
X112.95Y-61.35
X112.95Y-61.95
X113.25Y-70.75
X113.25Y-71.35
X113.25Y-71.95
X113.25Y-90.25
X113.25Y-90.85
X113.25Y-91.45
X113.25Y-109.75
X113.25Y-110.35
X113.25Y-110.95
X114.35Y-70.75
X114.35Y-71.35
X114.35Y-71.95
X114.35Y-90.25
X114.35Y-90.85
X114.35Y-91.45
X114.35Y-109.75
X114.35Y-110.35
X114.35Y-110.95
X114.65Y-60.75
X114.65Y-61.35
X114.65Y-61.95
X114.95Y-70.75
X114.95Y-71.35
X114.95Y-71.95
X114.95Y-90.25
X114.95Y-90.85
X114.95Y-91.45
X114.95Y-109.75
X114.95Y-110.35
X114.95Y-110.95
X115.25Y-60.75
X115.25Y-61.35
X115.25Y-61.95
X116.05Y-70.75
X116.05Y-71.35
X116.05Y-71.95
X116.05Y-90.25
X116.05Y-90.85
X116.05Y-91.45
X116.05Y-109.75
X116.05Y-110.35
X116.05Y-110.95
X116.35Y-60.75
X116.35Y-61.35
X116.35Y-61.95
X116.65Y-70.75
X116.65Y-71.35
X116.65Y-71.95
X116.65Y-90.25
X116.65Y-90.85
X116.65Y-91.45
X116.65Y-109.75
X116.65Y-110.35
X116.65Y-110.95
X116.95Y-60.75
X116.95Y-61.35
X116.95Y-61.95
X141.75Y-115.75
X142.25Y-115.25
X142.25Y-124.25
X142.75Y-114.75
X142.75Y-115.75
X142.75Y-123.75
X142.75Y-124.75
X143.25Y-114.25
X143.25Y-115.25
X143.25Y-116.25
X143.25Y-123.25
X143.25Y-124.25
X143.25Y-125.25
X143.75Y-113.75
X143.75Y-114.75
X143.75Y-115.75
X143.75Y-122.75
X143.75Y-123.75
X143.75Y-124.75
X144.25Y-114.25
X144.25Y-115.25
X144.25Y-116.25
X144.25Y-123.25
X144.25Y-124.25
X144.25Y-125.25
X144.75Y-113.75
X144.75Y-114.75
X144.75Y-123.75
X144.75Y-124.75
X145.25Y-114.25
X145.25Y-115.25
X145.25Y-123.25
X145.25Y-124.25
X145.25Y-125.25
X145.75Y-113.75
X145.75Y-114.75
X145.75Y-123.75
X145.75Y-124.75
X146.25Y-114.25
X146.25Y-115.25
X146.25Y-123.25
X146.25Y-124.25
X146.25Y-125.25
X146.75Y-113.75
X146.75Y-114.75
X146.75Y-123.75
X146.75Y-124.75
X147.25Y-114.25
X147.25Y-115.25
X147.25Y-123.25
X147.25Y-124.25
X147.25Y-125.25
X147.75Y-113.75
X147.75Y-114.75
X147.75Y-123.75
X147.75Y-124.75
X148.25Y-114.25
X148.25Y-115.25
X148.25Y-116.25
X148.25Y-123.25
X148.25Y-124.25
X148.25Y-125.25
X148.75Y-113.75
X148.75Y-114.75
X148.75Y-115.75
X148.75Y-122.75
X148.75Y-123.75
X148.75Y-124.75
X149.25Y-114.25
X149.25Y-115.25
X149.25Y-116.25
X149.25Y-123.25
X149.25Y-124.25
X149.25Y-125.25
X149.75Y-114.75
X149.75Y-115.75
X149.75Y-123.75
X149.75Y-124.75
X150.25Y-115.25
X150.25Y-124.25
X150.75Y-115.75
X177.5Y-81.25
X177.5Y-81.85
X177.5Y-82.45
X177.5Y-100.75
X177.5Y-101.35
X177.5Y-101.95
X178.1Y-60.75
X178.1Y-61.35
X178.1Y-61.95
X178.1Y-81.25
X178.1Y-81.85
X178.1Y-82.45
X178.1Y-100.75
X178.1Y-101.35
X178.1Y-101.95
X178.7Y-60.75
X178.7Y-61.35
X178.7Y-61.95
X179.2Y-81.25
X179.2Y-81.85
X179.2Y-82.45
X179.2Y-100.75
X179.2Y-101.35
X179.2Y-101.95
X179.8Y-81.25
X179.8Y-81.85
X179.8Y-82.45
X179.8Y-100.75
X179.8Y-101.35
X179.8Y-101.95
X180.4Y-60.75
X180.4Y-61.35
X180.4Y-61.95
X180.9Y-81.25
X180.9Y-81.85
X180.9Y-82.45
X180.9Y-100.75
X180.9Y-101.35
X180.9Y-101.95
X181.0Y-60.75
X181.0Y-61.35
X181.0Y-61.95
X181.5Y-81.25
X181.5Y-81.85
X181.5Y-82.45
X181.5Y-100.75
X181.5Y-101.35
X181.5Y-101.95
X182.1Y-60.75
X182.1Y-61.35
X182.1Y-61.95
X182.7Y-60.75
X182.7Y-61.35
X182.7Y-61.95
X200.85Y-60.75
X200.85Y-61.35
X200.85Y-61.95
X201.15Y-70.75
X201.15Y-71.35
X201.15Y-71.95
X201.15Y-90.25
X201.15Y-90.85
X201.15Y-91.45
X201.15Y-109.75
X201.15Y-110.35
X201.15Y-110.95
X201.45Y-60.75
X201.45Y-61.35
X201.45Y-61.95
X201.75Y-70.75
X201.75Y-71.35
X201.75Y-71.95
X201.75Y-90.25
X201.75Y-90.85
X201.75Y-91.45
X201.75Y-109.75
X201.75Y-110.35
X201.75Y-110.95
X202.85Y-70.75
X202.85Y-71.35
X202.85Y-71.95
X202.85Y-90.25
X202.85Y-90.85
X202.85Y-91.45
X202.85Y-109.75
X202.85Y-110.35
X202.85Y-110.95
X203.15Y-60.75
X203.15Y-61.35
X203.15Y-61.95
X203.45Y-70.75
X203.45Y-71.35
X203.45Y-71.95
X203.45Y-90.25
X203.45Y-90.85
X203.45Y-91.45
X203.45Y-109.75
X203.45Y-110.35
X203.45Y-110.95
X203.75Y-60.75
X203.75Y-61.35
X203.75Y-61.95
X204.55Y-70.75
X204.55Y-71.35
X204.55Y-71.95
X204.55Y-90.25
X204.55Y-90.85
X204.55Y-91.45
X204.55Y-109.75
X204.55Y-110.35
X204.55Y-110.95
X204.85Y-60.75
X204.85Y-61.35
X204.85Y-61.95
X205.15Y-70.75
X205.15Y-71.35
X205.15Y-71.95
X205.15Y-90.25
X205.15Y-90.85
X205.15Y-91.45
X205.15Y-109.75
X205.15Y-110.35
X205.15Y-110.95
X205.45Y-60.75
X205.45Y-61.35
X205.45Y-61.95
X230.25Y-115.75
X230.75Y-115.25
X230.75Y-124.25
X231.25Y-114.75
X231.25Y-115.75
X231.25Y-123.75
X231.25Y-124.75
X231.75Y-114.25
X231.75Y-115.25
X231.75Y-116.25
X231.75Y-123.25
X231.75Y-124.25
X231.75Y-125.25
X232.25Y-113.75
X232.25Y-114.75
X232.25Y-115.75
X232.25Y-122.75
X232.25Y-123.75
X232.25Y-124.75
X232.75Y-114.25
X232.75Y-115.25
X232.75Y-116.25
X232.75Y-123.25
X232.75Y-124.25
X232.75Y-125.25
X233.25Y-113.75
X233.25Y-114.75
X233.25Y-123.75
X233.25Y-124.75
X233.75Y-114.25
X233.75Y-115.25
X233.75Y-123.25
X233.75Y-124.25
X233.75Y-125.25
X234.25Y-113.75
X234.25Y-114.75
X234.25Y-123.75
X234.25Y-124.75
X234.75Y-114.25
X234.75Y-115.25
X234.75Y-123.25
X234.75Y-124.25
X234.75Y-125.25
X235.25Y-113.75
X235.25Y-114.75
X235.25Y-123.75
X235.25Y-124.75
X235.75Y-114.25
X235.75Y-115.25
X235.75Y-123.25
X235.75Y-124.25
X235.75Y-125.25
X236.25Y-113.75
X236.25Y-114.75
X236.25Y-123.75
X236.25Y-124.75
X236.75Y-114.25
X236.75Y-115.25
X236.75Y-116.25
X236.75Y-123.25
X236.75Y-124.25
X236.75Y-125.25
X237.25Y-113.75
X237.25Y-114.75
X237.25Y-115.75
X237.25Y-122.75
X237.25Y-123.75
X237.25Y-124.75
X237.75Y-114.25
X237.75Y-115.25
X237.75Y-116.25
X237.75Y-123.25
X237.75Y-124.25
X237.75Y-125.25
X238.25Y-114.75
X238.25Y-115.75
X238.25Y-123.75
X238.25Y-124.75
X238.75Y-115.25
X238.75Y-124.25
X239.25Y-115.75
X266.0Y-81.25
X266.0Y-81.85
X266.0Y-82.45
X266.0Y-100.75
X266.0Y-101.35
X266.0Y-101.95
X266.6Y-60.75
X266.6Y-61.35
X266.6Y-61.95
X266.6Y-81.25
X266.6Y-81.85
X266.6Y-82.45
X266.6Y-100.75
X266.6Y-101.35
X266.6Y-101.95
X267.2Y-60.75
X267.2Y-61.35
X267.2Y-61.95
X267.7Y-81.25
X267.7Y-81.85
X267.7Y-82.45
X267.7Y-100.75
X267.7Y-101.35
X267.7Y-101.95
X268.3Y-81.25
X268.3Y-81.85
X268.3Y-82.45
X268.3Y-100.75
X268.3Y-101.35
X268.3Y-101.95
X268.9Y-60.75
X268.9Y-61.35
X268.9Y-61.95
X269.4Y-81.25
X269.4Y-81.85
X269.4Y-82.45
X269.4Y-100.75
X269.4Y-101.35
X269.4Y-101.95
X269.5Y-60.75
X269.5Y-61.35
X269.5Y-61.95
X270.0Y-81.25
X270.0Y-81.85
X270.0Y-82.45
X270.0Y-100.75
X270.0Y-101.35
X270.0Y-101.95
X270.6Y-60.75
X270.6Y-61.35
X270.6Y-61.95
X271.2Y-60.75
X271.2Y-61.35
X271.2Y-61.95
T2
X15.5Y-66.25
X19.0Y-68.75
X19.725Y-47.75
X19.975Y-61.0
X20.0Y-56.25
X21.225Y-37.775
X21.275Y-47.75
X22.0Y-140.5
X22.0Y-142.0
X22.75Y-141.25
X23.5Y-140.5
X23.5Y-142.0
X24.25Y-141.25
X25.0Y-140.5
X25.0Y-142.0
X25.25Y-47.5
X25.5Y-57.525
X25.75Y-141.25
X26.5Y-140.5
X26.5Y-142.0
X26.655Y-47.5
X27.925Y-48.25
X30.6Y-57.525
X31.5Y-57.475
X32.4Y-57.475
X33.0Y-140.5
X33.0Y-142.0
X33.75Y-141.25
X34.5Y-140.5
X34.5Y-142.0
X35.25Y-141.25
X36.0Y-140.5
X36.0Y-142.0
X36.75Y-141.25
X37.5Y-140.5
X37.5Y-142.0
X42.538Y-61.802
X43.75Y-140.5
X43.75Y-142.0
X44.5Y-141.25
X45.25Y-140.5
X45.25Y-142.0
X46.0Y-141.25
X46.75Y-140.5
X46.75Y-142.0
X46.962Y-61.75
X47.5Y-141.25
X48.25Y-140.5
X48.25Y-142.0
X48.5Y-60.227
X48.537Y-61.75
X49.5Y-49.377
X55.0Y-39.777
X55.45Y-42.25
X55.45Y-43.25
X55.45Y-44.25
X55.75Y-39.777
X56.5Y-39.777
X65.0Y-114.75
X67.25Y-140.5
X67.25Y-142.0
X68.0Y-141.25
X68.75Y-140.5
X68.75Y-142.0
X69.5Y-141.25
X69.857Y-65.64
X70.25Y-140.5
X70.25Y-142.0
X71.0Y-141.25
X71.75Y-140.5
X71.75Y-142.0
X76.425Y-54.75
X77.5Y-136.525
X77.675Y-128.75
X77.675Y-130.75
X78.5Y-140.5
X78.5Y-142.0
X79.0Y-136.525
X79.25Y-141.25
X79.287Y-124.0
X80.0Y-140.5
X80.0Y-142.0
X80.75Y-141.25
X81.0Y-123.975
X81.5Y-140.5
X81.5Y-142.0
X82.25Y-141.25
X82.75Y-55.675
X83.0Y-140.5
X83.0Y-142.0
X84.25Y-55.725
X85.857Y-62.14
X86.357Y-61.39
X86.857Y-62.14
X87.0Y-123.975
X87.265Y-37.775
X87.275Y-47.75
X87.357Y-61.39
X87.857Y-62.14
X89.0Y-140.5
X89.0Y-142.0
X89.75Y-141.25
X90.5Y-140.5
X90.5Y-142.0
X90.875Y-47.625
X91.25Y-57.525
X91.25Y-141.25
X92.0Y-140.5
X92.0Y-142.0
X92.75Y-141.25
X93.5Y-140.5
X93.5Y-142.0
X96.25Y-57.487
X97.237Y-57.487
X98.25Y-57.5
X99.75Y-66.0
X104.0Y-66.25
X105.5Y-140.5
X105.5Y-142.0
X106.25Y-141.25
X107.0Y-140.5
X107.0Y-142.0
X107.5Y-68.75
X107.75Y-141.25
X108.225Y-47.75
X108.475Y-61.0
X108.5Y-56.25
X108.5Y-140.5
X108.5Y-142.0
X109.25Y-141.25
X109.725Y-37.775
X109.775Y-47.75
X110.0Y-140.5
X110.0Y-142.0
X113.75Y-47.5
X114.0Y-57.525
X114.5Y-140.5
X114.5Y-142.0
X115.155Y-47.5
X115.25Y-141.25
X116.0Y-140.5
X116.0Y-142.0
X116.425Y-48.25
X116.75Y-141.25
X117.5Y-140.5
X117.5Y-142.0
X118.25Y-141.25
X119.0Y-140.5
X119.0Y-142.0
X119.1Y-57.525
X120.0Y-57.475
X120.9Y-57.475
X131.037Y-61.802
X135.463Y-61.75
X137.0Y-60.227
X137.037Y-61.75
X138.0Y-49.377
X143.5Y-39.777
X143.95Y-42.25
X143.95Y-43.25
X143.95Y-44.25
X144.25Y-39.777
X145.0Y-39.777
X150.787Y-61.75
X151.75Y-115.25
X155.213Y-61.75
X155.787Y-123.25
X156.75Y-60.175
X156.787Y-61.75
X157.75Y-49.325
X158.357Y-65.64
X163.425Y-40.575
X163.425Y-41.5
X163.425Y-42.5
X163.425Y-43.5
X163.425Y-44.5
X164.925Y-54.75
X169.175Y-128.75
X169.175Y-130.75
X170.787Y-124.0
X171.25Y-55.675
X172.5Y-123.975
X172.75Y-55.725
X174.357Y-62.14
X174.857Y-61.39
X175.357Y-62.14
X175.765Y-37.775
X175.775Y-47.75
X175.857Y-61.39
X176.357Y-62.14
X178.5Y-123.975
X179.375Y-47.625
X179.75Y-57.525
X183.5Y-140.5
X183.5Y-142.0
X184.25Y-141.25
X184.75Y-57.487
X185.0Y-140.5
X185.0Y-142.0
X185.737Y-57.487
X185.75Y-141.25
X186.5Y-140.5
X186.5Y-142.0
X186.75Y-57.5
X187.25Y-141.25
X188.0Y-140.5
X188.0Y-142.0
X188.25Y-66.0
X192.5Y-66.25
X196.0Y-68.75
X196.725Y-47.75
X196.975Y-61.0
X197.0Y-56.25
X198.225Y-37.775
X198.275Y-47.75
X199.0Y-140.5
X199.0Y-142.0
X199.75Y-141.25
X200.5Y-140.5
X200.5Y-142.0
X201.25Y-141.25
X202.0Y-140.5
X202.0Y-142.0
X202.25Y-47.5
X202.5Y-57.525
X202.75Y-141.25
X203.5Y-140.5
X203.5Y-142.0
X203.655Y-47.5
X204.925Y-48.25
X207.6Y-57.525
X208.5Y-57.475
X209.4Y-57.475
X210.0Y-140.5
X210.0Y-142.0
X210.75Y-141.25
X211.5Y-140.5
X211.5Y-142.0
X212.25Y-141.25
X213.0Y-140.5
X213.0Y-142.0
X213.75Y-141.25
X214.5Y-140.5
X214.5Y-142.0
X219.537Y-61.802
X220.75Y-140.5
X220.75Y-142.0
X221.5Y-141.25
X222.25Y-140.5
X222.25Y-142.0
X223.0Y-141.25
X223.75Y-140.5
X223.75Y-142.0
X223.962Y-61.75
X224.5Y-141.25
X225.25Y-140.5
X225.25Y-142.0
X225.5Y-60.227
X225.537Y-61.75
X226.5Y-49.377
X232.0Y-39.777
X232.45Y-42.25
X232.45Y-43.25
X232.45Y-44.25
X232.75Y-39.777
X233.5Y-39.777
X242.0Y-114.75
X244.25Y-140.5
X244.25Y-142.0
X245.0Y-141.25
X245.75Y-140.5
X245.75Y-142.0
X246.857Y-65.64
X248.75Y-148.725
X248.787Y-147.0
X253.425Y-54.75
X254.5Y-136.525
X254.675Y-128.75
X254.675Y-130.75
X254.75Y-145.7
X254.75Y-148.975
X256.0Y-136.525
X256.25Y-144.325
X256.25Y-145.725
X256.287Y-124.0
X258.0Y-123.975
X259.75Y-55.675
X261.25Y-55.725
X262.857Y-62.14
X263.357Y-61.39
X263.857Y-62.14
X264.0Y-123.975
X264.265Y-37.775
X264.275Y-47.75
X264.357Y-61.39
X264.857Y-62.14
X266.25Y-142.5
X267.875Y-47.625
X268.25Y-57.525
X273.25Y-57.487
X274.238Y-57.487
X274.5Y-151.0
X275.25Y-57.5
X275.75Y-151.0
X276.75Y-66.0
X277.0Y-150.75
X278.0Y-150.0
X278.5Y-149.0
X278.75Y-144.0
X278.75Y-145.25
X278.75Y-146.5
X278.75Y-147.75
T3
X52.875Y-136.25
X54.303Y-132.803
X54.303Y-139.697
X57.75Y-131.375
X57.75Y-141.125
X61.197Y-132.803
X61.197Y-139.697
X62.625Y-136.25
X125.375Y-136.25
X126.803Y-132.803
X126.803Y-139.697
X130.25Y-131.375
X130.25Y-141.125
X133.697Y-132.803
X133.697Y-139.697
X135.125Y-136.25
X141.375Y-136.25
X142.803Y-132.803
X142.803Y-139.697
X146.25Y-131.375
X146.25Y-141.125
X149.697Y-132.803
X149.697Y-139.697
X151.125Y-136.25
X157.375Y-136.25
X158.803Y-132.803
X158.803Y-139.697
X162.25Y-131.375
X162.25Y-141.125
X165.697Y-132.803
X165.697Y-139.697
X167.125Y-136.25
X229.875Y-136.25
X231.303Y-132.803
X231.303Y-139.697
X234.75Y-131.375
X234.75Y-141.125
X238.197Y-132.803
X238.197Y-139.697
X239.625Y-136.25
T4
X17.71Y-127.67
X17.71Y-130.21
X17.71Y-132.75
X20.25Y-127.67
X20.25Y-130.21
X20.25Y-132.75
X20.42Y-39.985
X20.42Y-42.525
X22.96Y-39.985
X22.96Y-42.525
X25.5Y-39.985
X25.5Y-42.525
X28.04Y-39.985
X28.04Y-42.525
X30.58Y-39.985
X30.58Y-42.525
X33.12Y-39.985
X33.12Y-42.525
X46.75Y-40.5
X46.75Y-43.04
X46.75Y-45.58
X46.75Y-50.66
X46.75Y-53.2
X46.75Y-55.74
X46.75Y-58.28
X54.0Y-119.25
X61.5Y-119.25
X83.9Y-39.985
X83.9Y-42.525
X86.44Y-39.985
X86.44Y-42.525
X88.98Y-39.985
X88.98Y-42.525
X91.52Y-39.985
X91.52Y-42.525
X94.06Y-39.985
X94.06Y-42.525
X95.21Y-127.67
X95.21Y-130.21
X95.21Y-132.75
X96.6Y-39.985
X96.6Y-42.525
X97.75Y-127.67
X97.75Y-130.21
X97.75Y-132.75
X103.225Y-127.71
X103.225Y-130.25
X103.225Y-132.79
X105.765Y-127.71
X105.765Y-130.25
X105.765Y-132.79
X108.9Y-39.985
X108.9Y-42.525
X111.44Y-39.985
X111.44Y-42.525
X113.98Y-39.985
X113.98Y-42.525
X116.52Y-39.985
X116.52Y-42.525
X119.06Y-39.985
X119.06Y-42.525
X121.6Y-39.985
X121.6Y-42.525
X135.26Y-40.47
X135.26Y-43.01
X135.26Y-45.55
X135.26Y-50.63
X135.26Y-53.17
X135.26Y-55.71
X135.26Y-58.25
X142.5Y-119.25
X150.0Y-119.25
X155.0Y-40.5
X155.0Y-43.04
X155.0Y-45.58
X155.0Y-50.66
X155.0Y-53.2
X155.0Y-55.74
X155.0Y-58.28
X172.4Y-39.985
X172.4Y-42.525
X174.94Y-39.985
X174.94Y-42.525
X177.48Y-39.985
X177.48Y-42.525
X180.02Y-39.985
X180.02Y-42.525
X182.56Y-39.985
X182.56Y-42.525
X185.1Y-39.985
X185.1Y-42.525
X186.725Y-127.71
X186.725Y-130.25
X186.725Y-132.79
X189.265Y-127.71
X189.265Y-130.25
X189.265Y-132.79
X194.725Y-127.67
X194.725Y-130.21
X194.725Y-132.75
X197.265Y-127.67
X197.265Y-130.21
X197.265Y-132.75
X197.4Y-39.985
X197.4Y-42.525
X199.94Y-39.985
X199.94Y-42.525
X202.48Y-39.985
X202.48Y-42.525
X205.02Y-39.985
X205.02Y-42.525
X207.56Y-39.985
X207.56Y-42.525
X210.1Y-39.985
X210.1Y-42.525
X223.76Y-40.47
X223.76Y-43.01
X223.76Y-45.55
X223.76Y-50.63
X223.76Y-53.17
X223.76Y-55.71
X223.76Y-58.25
X231.0Y-119.25
X238.5Y-119.25
X260.9Y-39.985
X260.9Y-42.525
X263.44Y-39.985
X263.44Y-42.525
X265.98Y-39.985
X265.98Y-42.525
X268.52Y-39.985
X268.52Y-42.525
X271.06Y-39.985
X271.06Y-42.525
X272.225Y-127.71
X272.225Y-130.25
X272.225Y-132.79
X272.225Y-137.21
X272.225Y-139.75
X272.225Y-142.29
X273.6Y-39.985
X273.6Y-42.525
X274.765Y-127.71
X274.765Y-130.25
X274.765Y-132.79
X274.765Y-137.21
X274.765Y-139.75
X274.765Y-142.29
T5
X41.0Y-66.8
X41.0Y-72.25
X41.0Y-77.7
X41.0Y-86.3
X41.0Y-91.75
X41.0Y-97.2
X41.0Y-105.8
X41.0Y-111.25
X41.0Y-116.7
X74.5Y-66.8
X74.5Y-72.25
X74.5Y-77.7
X74.5Y-86.3
X74.5Y-91.75
X74.5Y-97.2
X74.5Y-105.8
X74.5Y-111.25
X74.5Y-116.7
X129.5Y-66.8
X129.5Y-72.25
X129.5Y-77.7
X129.5Y-86.3
X129.5Y-91.75
X129.5Y-97.2
X129.5Y-105.8
X129.5Y-111.25
X129.5Y-116.7
X163.0Y-66.8
X163.0Y-72.25
X163.0Y-77.7
X163.0Y-86.3
X163.0Y-91.75
X163.0Y-97.2
X163.0Y-105.8
X163.0Y-111.25
X163.0Y-116.7
X218.0Y-66.8
X218.0Y-72.25
X218.0Y-77.7
X218.0Y-86.3
X218.0Y-91.75
X218.0Y-97.2
X218.0Y-105.8
X218.0Y-111.25
X218.0Y-116.7
X251.5Y-66.8
X251.5Y-72.25
X251.5Y-77.7
X251.5Y-86.3
X251.5Y-91.75
X251.5Y-97.2
X251.5Y-105.8
X251.5Y-111.25
X251.5Y-116.7
T6
X15.75Y-49.25
X17.0Y-61.25
X17.0Y-123.75
X17.0Y-136.75
X32.0Y-47.25
X34.0Y-61.25
X37.0Y-47.25
X41.5Y-129.5
X45.75Y-119.25
X53.0Y-51.25
X53.0Y-56.25
X53.0Y-61.25
X62.75Y-56.25
X69.0Y-56.25
X72.25Y-128.0
X72.25Y-135.0
X82.0Y-49.25
X82.0Y-60.0
X97.0Y-46.25
X98.0Y-61.25
X98.5Y-123.75
X98.5Y-136.75
X100.0Y-49.25
X102.5Y-123.75
X102.5Y-136.75
X104.25Y-49.25
X105.5Y-61.25
X120.5Y-47.25
X122.5Y-61.25
X125.5Y-47.25
X127.25Y-125.75
X134.25Y-119.25
X141.5Y-51.25
X141.5Y-56.25
X141.5Y-61.25
X160.75Y-51.25
X160.75Y-56.25
X163.75Y-123.25
X170.5Y-49.25
X170.5Y-60.0
X174.5Y-141.25
X185.5Y-46.25
X186.5Y-61.25
X188.5Y-49.25
X190.0Y-123.75
X190.0Y-136.75
X192.75Y-49.25
X194.0Y-61.25
X194.0Y-123.75
X194.0Y-136.75
X209.0Y-47.25
X211.0Y-61.25
X214.0Y-47.25
X218.5Y-129.5
X222.75Y-119.25
X230.0Y-51.25
X230.0Y-56.25
X230.0Y-61.25
X239.75Y-56.25
X249.25Y-127.5
X249.25Y-133.5
X249.25Y-138.75
X249.25Y-143.75
X259.0Y-49.25
X259.0Y-60.0
X271.0Y-149.75
X271.25Y-146.0
X272.75Y-123.75
X274.0Y-46.25
X275.0Y-61.25
X277.0Y-49.25
X277.0Y-123.75
T7
X57.75Y-136.25
X130.25Y-136.25
X146.25Y-136.25
X162.25Y-136.25
X234.75Y-136.25
M30
