G04 #@! TF.GenerationSoftware,KiCad,Pcbnew,9.0.1*
G04 #@! TF.CreationDate,2025-08-06T03:01:25-05:00*
G04 #@! TF.ProjectId,TractionInverter,54726163-7469-46f6-9e49-6e7665727465,rev?*
G04 #@! TF.SameCoordinates,Original*
G04 #@! TF.FileFunction,Soldermask,Bot*
G04 #@! TF.FilePolarity,Negative*
%FSLAX46Y46*%
G04 Gerber Fmt 4.6, Leading zero omitted, Abs format (unit mm)*
G04 Created by KiCad (PCBNEW 9.0.1) date 2025-08-06 03:01:25*
%MOMM*%
%LPD*%
G01*
G04 APERTURE LIST*
G04 Aperture macros list*
%AMRoundRect*
0 Rectangle with rounded corners*
0 $1 Rounding radius*
0 $2 $3 $4 $5 $6 $7 $8 $9 X,Y pos of 4 corners*
0 Add a 4 corners polygon primitive as box body*
4,1,4,$2,$3,$4,$5,$6,$7,$8,$9,$2,$3,0*
0 Add four circle primitives for the rounded corners*
1,1,$1+$1,$2,$3*
1,1,$1+$1,$4,$5*
1,1,$1+$1,$6,$7*
1,1,$1+$1,$8,$9*
0 Add four rect primitives between the rounded corners*
20,1,$1+$1,$2,$3,$4,$5,0*
20,1,$1+$1,$4,$5,$6,$7,0*
20,1,$1+$1,$6,$7,$8,$9,0*
20,1,$1+$1,$8,$9,$2,$3,0*%
G04 Aperture macros list end*
%ADD10C,3.000000*%
%ADD11R,1.700000X1.700000*%
%ADD12C,1.700000*%
%ADD13RoundRect,0.250000X-1.100000X0.325000X-1.100000X-0.325000X1.100000X-0.325000X1.100000X0.325000X0*%
%ADD14C,2.604000*%
%ADD15RoundRect,0.225000X0.250000X-0.225000X0.250000X0.225000X-0.250000X0.225000X-0.250000X-0.225000X0*%
%ADD16RoundRect,0.225000X-0.250000X0.225000X-0.250000X-0.225000X0.250000X-0.225000X0.250000X0.225000X0*%
%ADD17RoundRect,0.225000X0.225000X0.250000X-0.225000X0.250000X-0.225000X-0.250000X0.225000X-0.250000X0*%
%ADD18RoundRect,0.200000X-0.200000X-0.275000X0.200000X-0.275000X0.200000X0.275000X-0.200000X0.275000X0*%
%ADD19O,4.500000X2.500000*%
%ADD20R,4.500000X2.500000*%
%ADD21O,3.600000X3.600000*%
%ADD22RoundRect,0.225000X-0.225000X-0.250000X0.225000X-0.250000X0.225000X0.250000X-0.225000X0.250000X0*%
%ADD23RoundRect,0.250000X-1.425000X0.362500X-1.425000X-0.362500X1.425000X-0.362500X1.425000X0.362500X0*%
%ADD24RoundRect,0.200000X0.200000X0.275000X-0.200000X0.275000X-0.200000X-0.275000X0.200000X-0.275000X0*%
%ADD25RoundRect,0.250000X1.100000X-0.325000X1.100000X0.325000X-1.100000X0.325000X-1.100000X-0.325000X0*%
%ADD26RoundRect,0.200000X-0.275000X0.200000X-0.275000X-0.200000X0.275000X-0.200000X0.275000X0.200000X0*%
%ADD27C,1.500000*%
%ADD28R,1.500000X1.500000*%
%ADD29C,0.900000*%
%ADD30C,13.000000*%
%ADD31RoundRect,0.249999X0.900001X-0.525001X0.900001X0.525001X-0.900001X0.525001X-0.900001X-0.525001X0*%
G04 APERTURE END LIST*
D10*
X191250000Y-142500000D03*
X102750000Y-142500000D03*
X102750000Y-38000000D03*
X191250000Y-38000000D03*
D11*
X272225000Y-137210000D03*
D12*
X274765000Y-137210000D03*
X272225000Y-139750000D03*
X274765000Y-139750000D03*
X272225000Y-142290000D03*
X274765000Y-142290000D03*
D10*
X16500000Y-148250000D03*
X61500000Y-38000000D03*
X251750000Y-38000000D03*
X275999999Y-148249999D03*
D13*
X152250000Y-54725000D03*
X152250000Y-51775000D03*
D14*
X102500000Y-123750000D03*
D12*
X105765000Y-132790000D03*
X103225000Y-132790000D03*
X105765000Y-130250000D03*
X103225000Y-130250000D03*
X105765000Y-127710000D03*
D11*
X103225000Y-127710000D03*
D14*
X127250000Y-125750000D03*
X102500000Y-136750000D03*
X194000000Y-136750000D03*
X120500000Y-47250000D03*
X163750000Y-123250000D03*
D12*
X273600000Y-39985000D03*
X273600000Y-42525000D03*
X271060000Y-39985000D03*
X271060000Y-42525000D03*
X268520000Y-39985000D03*
X268520000Y-42525000D03*
X265980000Y-39985000D03*
X265980000Y-42525000D03*
X263440000Y-39985000D03*
X263440000Y-42525000D03*
X260900000Y-39985000D03*
D11*
X260900000Y-42525000D03*
D14*
X249250000Y-133500000D03*
X194000000Y-61250000D03*
X192750000Y-49250000D03*
X170500000Y-60000000D03*
X105500000Y-61250000D03*
X249250000Y-127500000D03*
D15*
X179750000Y-55975000D03*
X179750000Y-57525000D03*
D13*
X274250000Y-57475000D03*
X274250000Y-54525000D03*
D16*
X137250000Y-55077500D03*
X137250000Y-53527500D03*
D17*
X174225000Y-49250000D03*
X175775000Y-49250000D03*
D18*
X176090000Y-44775000D03*
X174440000Y-44775000D03*
D19*
X251500000Y-97200000D03*
X251500000Y-91750000D03*
D20*
X251500000Y-86300000D03*
D21*
X271360000Y-91750000D03*
D13*
X208500000Y-57475000D03*
X208500000Y-54525000D03*
D22*
X113000000Y-44775000D03*
X111450000Y-44775000D03*
D17*
X262725000Y-47750000D03*
X264275000Y-47750000D03*
D13*
X132500000Y-54777500D03*
X132500000Y-51827500D03*
D18*
X199825000Y-36275000D03*
X198175000Y-36275000D03*
D23*
X234750000Y-122212500D03*
X234750000Y-116287500D03*
D19*
X218000000Y-105800000D03*
X218000000Y-111250000D03*
D20*
X218000000Y-116700000D03*
D21*
X198140000Y-111250000D03*
D18*
X198550000Y-44775000D03*
X196900000Y-44775000D03*
D22*
X115775000Y-37775000D03*
X114225000Y-37775000D03*
D24*
X268715000Y-36275000D03*
X270365000Y-36275000D03*
D22*
X201500000Y-44775000D03*
X199950000Y-44775000D03*
D25*
X200000000Y-54525000D03*
X200000000Y-57475000D03*
D13*
X120000000Y-57475000D03*
X120000000Y-54525000D03*
X132500000Y-59527500D03*
X132500000Y-56577500D03*
D16*
X117500000Y-57525000D03*
X117500000Y-55975000D03*
D24*
X180215000Y-36275000D03*
X181865000Y-36275000D03*
D17*
X109725000Y-37775000D03*
X111275000Y-37775000D03*
D16*
X271750000Y-57525000D03*
X271750000Y-55975000D03*
D18*
X110050000Y-44775000D03*
X108400000Y-44775000D03*
D17*
X108225000Y-49250000D03*
X109775000Y-49250000D03*
D26*
X225500000Y-61877500D03*
X225500000Y-60227500D03*
D23*
X146250000Y-122212500D03*
X146250000Y-116287500D03*
D24*
X130905000Y-61802500D03*
X132555000Y-61802500D03*
D13*
X221000000Y-54777500D03*
X221000000Y-51827500D03*
D14*
X122500000Y-61250000D03*
X170500000Y-49250000D03*
D12*
X185100000Y-39985000D03*
X185100000Y-42525000D03*
X182560000Y-39985000D03*
X182560000Y-42525000D03*
X180020000Y-39985000D03*
X180020000Y-42525000D03*
X177480000Y-39985000D03*
X177480000Y-42525000D03*
X174940000Y-39985000D03*
X174940000Y-42525000D03*
X172400000Y-39985000D03*
D11*
X172400000Y-42525000D03*
D14*
X214000000Y-47250000D03*
X190000000Y-123750000D03*
X259000000Y-60000000D03*
X190000000Y-136750000D03*
X141500000Y-51250000D03*
X194000000Y-123750000D03*
X272750000Y-123750000D03*
X134250000Y-119250000D03*
X218500000Y-129500000D03*
X275000000Y-61250000D03*
X230000000Y-56250000D03*
X277000000Y-49250000D03*
X141500000Y-61250000D03*
X274000000Y-46250000D03*
D27*
X238500000Y-119250000D03*
D28*
X231000000Y-119250000D03*
D12*
X274765000Y-132790000D03*
X272225000Y-132790000D03*
X274765000Y-130250000D03*
X272225000Y-130250000D03*
X274765000Y-127710000D03*
D11*
X272225000Y-127710000D03*
D14*
X186500000Y-61250000D03*
X125500000Y-47250000D03*
D27*
X223760000Y-58250000D03*
X223760000Y-55710000D03*
X223760000Y-53170000D03*
X223760000Y-50630000D03*
X223760000Y-45550000D03*
X223760000Y-43010000D03*
D28*
X223760000Y-40470000D03*
D14*
X188500000Y-49250000D03*
X259000000Y-49250000D03*
D12*
X121600000Y-39985000D03*
X121600000Y-42525000D03*
X119060000Y-39985000D03*
X119060000Y-42525000D03*
X116520000Y-39985000D03*
X116520000Y-42525000D03*
X113980000Y-39985000D03*
X113980000Y-42525000D03*
X111440000Y-39985000D03*
X111440000Y-42525000D03*
X108900000Y-39985000D03*
D11*
X108900000Y-42525000D03*
D14*
X239750000Y-56250000D03*
D12*
X210100000Y-39985000D03*
X210100000Y-42525000D03*
X207560000Y-39985000D03*
X207560000Y-42525000D03*
X205020000Y-39985000D03*
X205020000Y-42525000D03*
X202480000Y-39985000D03*
X202480000Y-42525000D03*
X199940000Y-39985000D03*
X199940000Y-42525000D03*
X197400000Y-39985000D03*
D11*
X197400000Y-42525000D03*
D14*
X209000000Y-47250000D03*
D29*
X151125000Y-136250000D03*
X149697146Y-139697146D03*
X149697146Y-132802854D03*
X146250000Y-141125000D03*
D30*
X146250000Y-136250000D03*
D29*
X146250000Y-131375000D03*
X142802854Y-139697146D03*
X142802854Y-132802854D03*
X141375000Y-136250000D03*
X239625000Y-136250000D03*
X238197146Y-139697146D03*
X238197146Y-132802854D03*
X234750000Y-141125000D03*
D30*
X234750000Y-136250000D03*
D29*
X234750000Y-131375000D03*
X231302854Y-139697146D03*
X231302854Y-132802854D03*
X229875000Y-136250000D03*
D14*
X230000000Y-51250000D03*
X230000000Y-61250000D03*
D27*
X150000000Y-119250000D03*
D28*
X142500000Y-119250000D03*
D12*
X197265000Y-132750000D03*
X194725000Y-132750000D03*
X197265000Y-130210000D03*
X194725000Y-130210000D03*
X197265000Y-127670000D03*
D11*
X194725000Y-127670000D03*
D14*
X222750000Y-119250000D03*
X174500000Y-141250000D03*
X141500000Y-56250000D03*
X211000000Y-61250000D03*
X185500000Y-46250000D03*
X104250000Y-49250000D03*
D27*
X135260000Y-58250000D03*
X135260000Y-55710000D03*
X135260000Y-53170000D03*
X135260000Y-50630000D03*
X135260000Y-45550000D03*
X135260000Y-43010000D03*
D28*
X135260000Y-40470000D03*
D14*
X277000000Y-123750000D03*
D16*
X183250000Y-57525000D03*
X183250000Y-55975000D03*
D18*
X265865000Y-36275000D03*
X264215000Y-36275000D03*
D19*
X129500000Y-66800000D03*
X129500000Y-72250000D03*
D20*
X129500000Y-77700000D03*
D21*
X109640000Y-72250000D03*
D26*
X137000000Y-61877500D03*
X137000000Y-60227500D03*
D25*
X111500000Y-54525000D03*
X111500000Y-57475000D03*
D19*
X218000000Y-66800000D03*
X218000000Y-72250000D03*
D20*
X218000000Y-77700000D03*
D21*
X198140000Y-72250000D03*
D22*
X267540000Y-44775000D03*
X265990000Y-44775000D03*
D17*
X175765000Y-37775000D03*
X177315000Y-37775000D03*
D19*
X163000000Y-77700000D03*
X163000000Y-72250000D03*
D20*
X163000000Y-66800000D03*
D21*
X182860000Y-72250000D03*
D16*
X225750000Y-58077500D03*
X225750000Y-56527500D03*
D31*
X138000000Y-45227500D03*
X138000000Y-49377500D03*
D16*
X137250000Y-58077500D03*
X137250000Y-56527500D03*
D22*
X181815000Y-37775000D03*
X180265000Y-37775000D03*
D17*
X196725000Y-47750000D03*
X198275000Y-47750000D03*
D15*
X114000000Y-55975000D03*
X114000000Y-57525000D03*
D18*
X264590000Y-44775000D03*
X262940000Y-44775000D03*
X177365000Y-36275000D03*
X175715000Y-36275000D03*
D17*
X174225000Y-47750000D03*
X175775000Y-47750000D03*
D19*
X218000000Y-86300000D03*
X218000000Y-91750000D03*
D20*
X218000000Y-97200000D03*
D21*
X198140000Y-91750000D03*
D24*
X202675000Y-36275000D03*
X204325000Y-36275000D03*
D17*
X262725000Y-49250000D03*
X264275000Y-49250000D03*
X108225000Y-47750000D03*
X109775000Y-47750000D03*
D19*
X129500000Y-86300000D03*
X129500000Y-91750000D03*
D20*
X129500000Y-97200000D03*
D21*
X109640000Y-91750000D03*
D22*
X204275000Y-37775000D03*
X202725000Y-37775000D03*
D25*
X265750000Y-54525000D03*
X265750000Y-57475000D03*
D19*
X163000000Y-97200000D03*
X163000000Y-91750000D03*
D20*
X163000000Y-86300000D03*
D21*
X182860000Y-91750000D03*
D19*
X251500000Y-77700000D03*
X251500000Y-72250000D03*
D20*
X251500000Y-66800000D03*
D21*
X271360000Y-72250000D03*
D17*
X264265000Y-37775000D03*
X265815000Y-37775000D03*
D15*
X268250000Y-55975000D03*
X268250000Y-57525000D03*
D31*
X221000000Y-45227500D03*
X221000000Y-49377500D03*
D22*
X270315000Y-37775000D03*
X268765000Y-37775000D03*
D24*
X114175000Y-36275000D03*
X115825000Y-36275000D03*
D22*
X179040000Y-44775000D03*
X177490000Y-44775000D03*
D19*
X251500000Y-116700000D03*
X251500000Y-111250000D03*
D20*
X251500000Y-105800000D03*
D21*
X271360000Y-111250000D03*
D19*
X163000000Y-116700000D03*
X163000000Y-111250000D03*
D20*
X163000000Y-105800000D03*
D21*
X182860000Y-111250000D03*
D18*
X111325000Y-36275000D03*
X109675000Y-36275000D03*
D13*
X221000000Y-59527500D03*
X221000000Y-56577500D03*
D17*
X198225000Y-37775000D03*
X199775000Y-37775000D03*
D16*
X206000000Y-57525000D03*
X206000000Y-55975000D03*
D31*
X132500000Y-45227500D03*
X132500000Y-49377500D03*
D15*
X202500000Y-55975000D03*
X202500000Y-57525000D03*
D25*
X177250000Y-54525000D03*
X177250000Y-57475000D03*
D31*
X226500000Y-45227500D03*
X226500000Y-49377500D03*
D19*
X129500000Y-105800000D03*
X129500000Y-111250000D03*
D20*
X129500000Y-116700000D03*
D21*
X109640000Y-111250000D03*
D24*
X219405000Y-61802500D03*
X221055000Y-61802500D03*
D13*
X185750000Y-57475000D03*
X185750000Y-54525000D03*
D17*
X196725000Y-49250000D03*
X198275000Y-49250000D03*
D16*
X225750000Y-55077500D03*
X225750000Y-53527500D03*
D17*
X21275000Y-47750000D03*
X19725000Y-47750000D03*
D18*
X21175000Y-36275000D03*
X22825000Y-36275000D03*
D25*
X88750000Y-57475000D03*
X88750000Y-54525000D03*
D17*
X88815000Y-37775000D03*
X87265000Y-37775000D03*
D21*
X94360000Y-111250000D03*
D20*
X74500000Y-105800000D03*
D19*
X74500000Y-111250000D03*
X74500000Y-116700000D03*
D15*
X91250000Y-57525000D03*
X91250000Y-55975000D03*
D17*
X87275000Y-47750000D03*
X85725000Y-47750000D03*
D18*
X87215000Y-36275000D03*
X88865000Y-36275000D03*
D22*
X91765000Y-37775000D03*
X93315000Y-37775000D03*
D31*
X44000000Y-49377500D03*
X44000000Y-45227500D03*
D16*
X29000000Y-55975000D03*
X29000000Y-57525000D03*
D26*
X48500000Y-60227500D03*
X48500000Y-61877500D03*
D18*
X19900000Y-44775000D03*
X21550000Y-44775000D03*
D23*
X57750000Y-116287500D03*
X57750000Y-122212500D03*
D13*
X44000000Y-56577500D03*
X44000000Y-59527500D03*
D21*
X21140000Y-72250000D03*
D20*
X41000000Y-77700000D03*
D19*
X41000000Y-72250000D03*
X41000000Y-66800000D03*
D24*
X27325000Y-36275000D03*
X25675000Y-36275000D03*
D22*
X88990000Y-44775000D03*
X90540000Y-44775000D03*
D24*
X44055000Y-61802500D03*
X42405000Y-61802500D03*
D13*
X31500000Y-54525000D03*
X31500000Y-57475000D03*
D16*
X48750000Y-56527500D03*
X48750000Y-58077500D03*
D13*
X44000000Y-51827500D03*
X44000000Y-54777500D03*
D22*
X22950000Y-44775000D03*
X24500000Y-44775000D03*
D21*
X21140000Y-91750000D03*
D20*
X41000000Y-97200000D03*
D19*
X41000000Y-91750000D03*
X41000000Y-86300000D03*
D24*
X93365000Y-36275000D03*
X91715000Y-36275000D03*
D21*
X21140000Y-111250000D03*
D20*
X41000000Y-116700000D03*
D19*
X41000000Y-111250000D03*
X41000000Y-105800000D03*
D15*
X25500000Y-57525000D03*
X25500000Y-55975000D03*
D18*
X85940000Y-44775000D03*
X87590000Y-44775000D03*
D13*
X97250000Y-54525000D03*
X97250000Y-57475000D03*
D25*
X23000000Y-57475000D03*
X23000000Y-54525000D03*
D21*
X94360000Y-91750000D03*
D20*
X74500000Y-86300000D03*
D19*
X74500000Y-91750000D03*
X74500000Y-97200000D03*
D17*
X22775000Y-37775000D03*
X21225000Y-37775000D03*
X87275000Y-49250000D03*
X85725000Y-49250000D03*
D16*
X94750000Y-55975000D03*
X94750000Y-57525000D03*
D31*
X49500000Y-49377500D03*
X49500000Y-45227500D03*
D17*
X21275000Y-49250000D03*
X19725000Y-49250000D03*
D22*
X25725000Y-37775000D03*
X27275000Y-37775000D03*
D21*
X94360000Y-72250000D03*
D20*
X74500000Y-66800000D03*
D19*
X74500000Y-72250000D03*
X74500000Y-77700000D03*
D16*
X48750000Y-53527500D03*
X48750000Y-55077500D03*
D24*
X152325000Y-61750000D03*
X150675000Y-61750000D03*
D16*
X267000000Y-142475000D03*
X267000000Y-144025000D03*
X157000000Y-56475000D03*
X157000000Y-58025000D03*
D14*
X82000000Y-60000000D03*
D29*
X125375000Y-136250000D03*
X126802854Y-132802854D03*
X126802854Y-139697146D03*
X130250000Y-131375000D03*
D30*
X130250000Y-136250000D03*
D29*
X130250000Y-141125000D03*
X133697146Y-132802854D03*
X133697146Y-139697146D03*
X135125000Y-136250000D03*
D14*
X98500000Y-136750000D03*
D29*
X157375000Y-136250000D03*
X158802854Y-132802854D03*
X158802854Y-139697146D03*
X162250000Y-131375000D03*
D30*
X162250000Y-136250000D03*
D29*
X162250000Y-141125000D03*
X165697146Y-132802854D03*
X165697146Y-139697146D03*
X167125000Y-136250000D03*
D31*
X152250000Y-49325000D03*
X152250000Y-45175000D03*
D28*
X155000000Y-40500000D03*
D27*
X155000000Y-43040000D03*
X155000000Y-45580000D03*
X155000000Y-50660000D03*
X155000000Y-53200000D03*
X155000000Y-55740000D03*
X155000000Y-58280000D03*
D14*
X45750000Y-119250000D03*
D16*
X157000000Y-53475000D03*
X157000000Y-55025000D03*
D26*
X156750000Y-60175000D03*
X156750000Y-61825000D03*
D11*
X186725000Y-127710000D03*
D12*
X189265000Y-127710000D03*
X186725000Y-130250000D03*
X189265000Y-130250000D03*
X186725000Y-132790000D03*
X189265000Y-132790000D03*
D14*
X17000000Y-136750000D03*
X17000000Y-61250000D03*
X271000000Y-149750000D03*
X160750000Y-56250000D03*
D31*
X157750000Y-49325000D03*
X157750000Y-45175000D03*
D25*
X151750000Y-42725000D03*
X151750000Y-39775000D03*
D14*
X98000000Y-61250000D03*
D28*
X54000000Y-119250000D03*
D27*
X61500000Y-119250000D03*
D14*
X249250000Y-138750000D03*
X271250000Y-146000000D03*
X160750000Y-51250000D03*
X97000000Y-46250000D03*
X72250000Y-128000000D03*
X72250000Y-135000000D03*
X41500000Y-129500000D03*
D11*
X17710000Y-127670000D03*
D12*
X20250000Y-127670000D03*
X17710000Y-130210000D03*
X20250000Y-130210000D03*
X17710000Y-132750000D03*
X20250000Y-132750000D03*
D14*
X53000000Y-61250000D03*
X62750000Y-56250000D03*
X53000000Y-56250000D03*
D11*
X20420000Y-42525000D03*
D12*
X20420000Y-39985000D03*
X22960000Y-42525000D03*
X22960000Y-39985000D03*
X25500000Y-42525000D03*
X25500000Y-39985000D03*
X28040000Y-42525000D03*
X28040000Y-39985000D03*
X30580000Y-42525000D03*
X30580000Y-39985000D03*
X33120000Y-42525000D03*
X33120000Y-39985000D03*
D16*
X268500000Y-142475000D03*
X268500000Y-144025000D03*
D14*
X15750000Y-49250000D03*
D11*
X95210000Y-127670000D03*
D12*
X97750000Y-127670000D03*
X95210000Y-130210000D03*
X97750000Y-130210000D03*
X95210000Y-132750000D03*
X97750000Y-132750000D03*
D14*
X82000000Y-49250000D03*
X32000000Y-47250000D03*
X53000000Y-51250000D03*
X98500000Y-123750000D03*
D29*
X52875000Y-136250000D03*
X54302854Y-132802854D03*
X54302854Y-139697146D03*
X57750000Y-131375000D03*
D30*
X57750000Y-136250000D03*
D29*
X57750000Y-141125000D03*
X61197146Y-132802854D03*
X61197146Y-139697146D03*
X62625000Y-136250000D03*
D14*
X17000000Y-123750000D03*
D11*
X83900000Y-42525000D03*
D12*
X83900000Y-39985000D03*
X86440000Y-42525000D03*
X86440000Y-39985000D03*
X88980000Y-42525000D03*
X88980000Y-39985000D03*
X91520000Y-42525000D03*
X91520000Y-39985000D03*
X94060000Y-42525000D03*
X94060000Y-39985000D03*
X96600000Y-42525000D03*
X96600000Y-39985000D03*
D13*
X152250000Y-56525000D03*
X152250000Y-59475000D03*
D14*
X34000000Y-61250000D03*
X249250000Y-143750000D03*
D28*
X46750000Y-40500000D03*
D27*
X46750000Y-43040000D03*
X46750000Y-45580000D03*
X46750000Y-50660000D03*
X46750000Y-53200000D03*
X46750000Y-55740000D03*
X46750000Y-58280000D03*
D14*
X100000000Y-49250000D03*
X37000000Y-47250000D03*
X69000000Y-56250000D03*
M02*
