G04 #@! TF.GenerationSoftware,KiCad,Pcbnew,9.0.1*
G04 #@! TF.CreationDate,2025-08-06T03:01:24-05:00*
G04 #@! TF.ProjectId,TractionInverter,54726163-7469-46f6-9e49-6e7665727465,rev?*
G04 #@! TF.SameCoordinates,Original*
G04 #@! TF.FileFunction,Paste,Bot*
G04 #@! TF.FilePolarity,Positive*
%FSLAX46Y46*%
G04 Gerber Fmt 4.6, Leading zero omitted, Abs format (unit mm)*
G04 Created by KiCad (PCBNEW 9.0.1) date 2025-08-06 03:01:24*
%MOMM*%
%LPD*%
G01*
G04 APERTURE LIST*
G04 Aperture macros list*
%AMRoundRect*
0 Rectangle with rounded corners*
0 $1 Rounding radius*
0 $2 $3 $4 $5 $6 $7 $8 $9 X,Y pos of 4 corners*
0 Add a 4 corners polygon primitive as box body*
4,1,4,$2,$3,$4,$5,$6,$7,$8,$9,$2,$3,0*
0 Add four circle primitives for the rounded corners*
1,1,$1+$1,$2,$3*
1,1,$1+$1,$4,$5*
1,1,$1+$1,$6,$7*
1,1,$1+$1,$8,$9*
0 Add four rect primitives between the rounded corners*
20,1,$1+$1,$2,$3,$4,$5,0*
20,1,$1+$1,$4,$5,$6,$7,0*
20,1,$1+$1,$6,$7,$8,$9,0*
20,1,$1+$1,$8,$9,$2,$3,0*%
G04 Aperture macros list end*
%ADD10RoundRect,0.250000X-1.100000X0.325000X-1.100000X-0.325000X1.100000X-0.325000X1.100000X0.325000X0*%
%ADD11RoundRect,0.225000X0.250000X-0.225000X0.250000X0.225000X-0.250000X0.225000X-0.250000X-0.225000X0*%
%ADD12RoundRect,0.225000X-0.250000X0.225000X-0.250000X-0.225000X0.250000X-0.225000X0.250000X0.225000X0*%
%ADD13RoundRect,0.225000X0.225000X0.250000X-0.225000X0.250000X-0.225000X-0.250000X0.225000X-0.250000X0*%
%ADD14RoundRect,0.200000X-0.200000X-0.275000X0.200000X-0.275000X0.200000X0.275000X-0.200000X0.275000X0*%
%ADD15RoundRect,0.225000X-0.225000X-0.250000X0.225000X-0.250000X0.225000X0.250000X-0.225000X0.250000X0*%
%ADD16RoundRect,0.250000X-1.425000X0.362500X-1.425000X-0.362500X1.425000X-0.362500X1.425000X0.362500X0*%
%ADD17RoundRect,0.200000X0.200000X0.275000X-0.200000X0.275000X-0.200000X-0.275000X0.200000X-0.275000X0*%
%ADD18RoundRect,0.250000X1.100000X-0.325000X1.100000X0.325000X-1.100000X0.325000X-1.100000X-0.325000X0*%
%ADD19RoundRect,0.200000X-0.275000X0.200000X-0.275000X-0.200000X0.275000X-0.200000X0.275000X0.200000X0*%
%ADD20RoundRect,0.249999X0.900001X-0.525001X0.900001X0.525001X-0.900001X0.525001X-0.900001X-0.525001X0*%
G04 APERTURE END LIST*
D10*
X152250000Y-54725000D03*
X152250000Y-51775000D03*
D11*
X179750000Y-55975000D03*
X179750000Y-57525000D03*
D10*
X274250000Y-57475000D03*
X274250000Y-54525000D03*
D12*
X137250000Y-55077500D03*
X137250000Y-53527500D03*
D13*
X174225000Y-49250000D03*
X175775000Y-49250000D03*
D14*
X176090000Y-44775000D03*
X174440000Y-44775000D03*
D10*
X208500000Y-57475000D03*
X208500000Y-54525000D03*
D15*
X113000000Y-44775000D03*
X111450000Y-44775000D03*
D13*
X262725000Y-47750000D03*
X264275000Y-47750000D03*
D10*
X132500000Y-54777500D03*
X132500000Y-51827500D03*
D14*
X199825000Y-36275000D03*
X198175000Y-36275000D03*
D16*
X234750000Y-122212500D03*
X234750000Y-116287500D03*
D14*
X198550000Y-44775000D03*
X196900000Y-44775000D03*
D15*
X115775000Y-37775000D03*
X114225000Y-37775000D03*
D17*
X268715000Y-36275000D03*
X270365000Y-36275000D03*
D15*
X201500000Y-44775000D03*
X199950000Y-44775000D03*
D18*
X200000000Y-54525000D03*
X200000000Y-57475000D03*
D10*
X120000000Y-57475000D03*
X120000000Y-54525000D03*
X132500000Y-59527500D03*
X132500000Y-56577500D03*
D12*
X117500000Y-57525000D03*
X117500000Y-55975000D03*
D17*
X180215000Y-36275000D03*
X181865000Y-36275000D03*
D13*
X109725000Y-37775000D03*
X111275000Y-37775000D03*
D12*
X271750000Y-57525000D03*
X271750000Y-55975000D03*
D14*
X110050000Y-44775000D03*
X108400000Y-44775000D03*
D13*
X108225000Y-49250000D03*
X109775000Y-49250000D03*
D19*
X225500000Y-61877500D03*
X225500000Y-60227500D03*
D16*
X146250000Y-122212500D03*
X146250000Y-116287500D03*
D17*
X130905000Y-61802500D03*
X132555000Y-61802500D03*
D10*
X221000000Y-54777500D03*
X221000000Y-51827500D03*
D12*
X183250000Y-57525000D03*
X183250000Y-55975000D03*
D14*
X265865000Y-36275000D03*
X264215000Y-36275000D03*
D19*
X137000000Y-61877500D03*
X137000000Y-60227500D03*
D18*
X111500000Y-54525000D03*
X111500000Y-57475000D03*
D15*
X267540000Y-44775000D03*
X265990000Y-44775000D03*
D13*
X175765000Y-37775000D03*
X177315000Y-37775000D03*
D12*
X225750000Y-58077500D03*
X225750000Y-56527500D03*
D20*
X138000000Y-45227500D03*
X138000000Y-49377500D03*
D12*
X137250000Y-58077500D03*
X137250000Y-56527500D03*
D15*
X181815000Y-37775000D03*
X180265000Y-37775000D03*
D13*
X196725000Y-47750000D03*
X198275000Y-47750000D03*
D11*
X114000000Y-55975000D03*
X114000000Y-57525000D03*
D14*
X264590000Y-44775000D03*
X262940000Y-44775000D03*
X177365000Y-36275000D03*
X175715000Y-36275000D03*
D13*
X174225000Y-47750000D03*
X175775000Y-47750000D03*
D17*
X202675000Y-36275000D03*
X204325000Y-36275000D03*
D13*
X262725000Y-49250000D03*
X264275000Y-49250000D03*
X108225000Y-47750000D03*
X109775000Y-47750000D03*
D15*
X204275000Y-37775000D03*
X202725000Y-37775000D03*
D18*
X265750000Y-54525000D03*
X265750000Y-57475000D03*
D13*
X264265000Y-37775000D03*
X265815000Y-37775000D03*
D11*
X268250000Y-55975000D03*
X268250000Y-57525000D03*
D20*
X221000000Y-45227500D03*
X221000000Y-49377500D03*
D15*
X270315000Y-37775000D03*
X268765000Y-37775000D03*
D17*
X114175000Y-36275000D03*
X115825000Y-36275000D03*
D15*
X179040000Y-44775000D03*
X177490000Y-44775000D03*
D14*
X111325000Y-36275000D03*
X109675000Y-36275000D03*
D10*
X221000000Y-59527500D03*
X221000000Y-56577500D03*
D13*
X198225000Y-37775000D03*
X199775000Y-37775000D03*
D12*
X206000000Y-57525000D03*
X206000000Y-55975000D03*
D20*
X132500000Y-45227500D03*
X132500000Y-49377500D03*
D11*
X202500000Y-55975000D03*
X202500000Y-57525000D03*
D18*
X177250000Y-54525000D03*
X177250000Y-57475000D03*
D20*
X226500000Y-45227500D03*
X226500000Y-49377500D03*
D17*
X219405000Y-61802500D03*
X221055000Y-61802500D03*
D10*
X185750000Y-57475000D03*
X185750000Y-54525000D03*
D13*
X196725000Y-49250000D03*
X198275000Y-49250000D03*
D12*
X225750000Y-55077500D03*
X225750000Y-53527500D03*
D13*
X21275000Y-47750000D03*
X19725000Y-47750000D03*
D14*
X21175000Y-36275000D03*
X22825000Y-36275000D03*
D18*
X88750000Y-57475000D03*
X88750000Y-54525000D03*
D13*
X88815000Y-37775000D03*
X87265000Y-37775000D03*
D11*
X91250000Y-57525000D03*
X91250000Y-55975000D03*
D13*
X87275000Y-47750000D03*
X85725000Y-47750000D03*
D14*
X87215000Y-36275000D03*
X88865000Y-36275000D03*
D15*
X91765000Y-37775000D03*
X93315000Y-37775000D03*
D20*
X44000000Y-49377500D03*
X44000000Y-45227500D03*
D12*
X29000000Y-55975000D03*
X29000000Y-57525000D03*
D19*
X48500000Y-60227500D03*
X48500000Y-61877500D03*
D14*
X19900000Y-44775000D03*
X21550000Y-44775000D03*
D16*
X57750000Y-116287500D03*
X57750000Y-122212500D03*
D10*
X44000000Y-56577500D03*
X44000000Y-59527500D03*
D17*
X27325000Y-36275000D03*
X25675000Y-36275000D03*
D15*
X88990000Y-44775000D03*
X90540000Y-44775000D03*
D17*
X44055000Y-61802500D03*
X42405000Y-61802500D03*
D10*
X31500000Y-54525000D03*
X31500000Y-57475000D03*
D12*
X48750000Y-56527500D03*
X48750000Y-58077500D03*
D10*
X44000000Y-51827500D03*
X44000000Y-54777500D03*
D15*
X22950000Y-44775000D03*
X24500000Y-44775000D03*
D17*
X93365000Y-36275000D03*
X91715000Y-36275000D03*
D11*
X25500000Y-57525000D03*
X25500000Y-55975000D03*
D14*
X85940000Y-44775000D03*
X87590000Y-44775000D03*
D10*
X97250000Y-54525000D03*
X97250000Y-57475000D03*
D18*
X23000000Y-57475000D03*
X23000000Y-54525000D03*
D13*
X22775000Y-37775000D03*
X21225000Y-37775000D03*
X87275000Y-49250000D03*
X85725000Y-49250000D03*
D12*
X94750000Y-55975000D03*
X94750000Y-57525000D03*
D20*
X49500000Y-49377500D03*
X49500000Y-45227500D03*
D13*
X21275000Y-49250000D03*
X19725000Y-49250000D03*
D15*
X25725000Y-37775000D03*
X27275000Y-37775000D03*
D12*
X48750000Y-53527500D03*
X48750000Y-55077500D03*
D17*
X152325000Y-61750000D03*
X150675000Y-61750000D03*
D12*
X267000000Y-142475000D03*
X267000000Y-144025000D03*
X157000000Y-56475000D03*
X157000000Y-58025000D03*
D20*
X152250000Y-49325000D03*
X152250000Y-45175000D03*
D12*
X157000000Y-53475000D03*
X157000000Y-55025000D03*
D19*
X156750000Y-60175000D03*
X156750000Y-61825000D03*
D20*
X157750000Y-49325000D03*
X157750000Y-45175000D03*
D18*
X151750000Y-42725000D03*
X151750000Y-39775000D03*
D12*
X268500000Y-142475000D03*
X268500000Y-144025000D03*
D10*
X152250000Y-56525000D03*
X152250000Y-59475000D03*
M02*
