M48
; DRILL file {KiCad 9.0.1} date 2025-08-06T03:02:04-0500
; FORMAT={-:-/ absolute / metric / decimal}
; #@! TF.CreationDate,2025-08-06T03:02:04-05:00
; #@! TF.GenerationSoftware,Kicad,Pcbnew,9.0.1
; #@! TF.FileFunction,NonPlated,1,6,NPTH
FMAT,2
METRIC
; #@! TA.AperFunction,NonPlated,NPTH,ComponentDrill
T1C3.000
; #@! TA.AperFunction,NonPlated,NPTH,ComponentDrill
T2C3.600
%
G90
G05
T1
X16.5Y-148.25
X61.5Y-38.0
X102.75Y-38.0
X102.75Y-142.5
X191.25Y-38.0
X191.25Y-142.5
X251.75Y-38.0
X276.0Y-148.25
T2
X21.14Y-72.25
X21.14Y-91.75
X21.14Y-111.25
X94.36Y-72.25
X94.36Y-91.75
X94.36Y-111.25
X109.64Y-72.25
X109.64Y-91.75
X109.64Y-111.25
X182.86Y-72.25
X182.86Y-91.75
X182.86Y-111.25
X198.14Y-72.25
X198.14Y-91.75
X198.14Y-111.25
X271.36Y-72.25
X271.36Y-91.75
X271.36Y-111.25
M30
