G04 #@! TF.GenerationSoftware,KiCad,Pcbnew,9.0.1*
G04 #@! TF.CreationDate,2025-08-06T03:01:24-05:00*
G04 #@! TF.ProjectId,TractionInverter,54726163-7469-46f6-9e49-6e7665727465,rev?*
G04 #@! TF.SameCoordinates,Original*
G04 #@! TF.FileFunction,Paste,Top*
G04 #@! TF.FilePolarity,Positive*
%FSLAX46Y46*%
G04 Gerber Fmt 4.6, Leading zero omitted, Abs format (unit mm)*
G04 Created by KiCad (PCBNEW 9.0.1) date 2025-08-06 03:01:24*
%MOMM*%
%LPD*%
G01*
G04 APERTURE LIST*
G04 Aperture macros list*
%AMRoundRect*
0 Rectangle with rounded corners*
0 $1 Rounding radius*
0 $2 $3 $4 $5 $6 $7 $8 $9 X,Y pos of 4 corners*
0 Add a 4 corners polygon primitive as box body*
4,1,4,$2,$3,$4,$5,$6,$7,$8,$9,$2,$3,0*
0 Add four circle primitives for the rounded corners*
1,1,$1+$1,$2,$3*
1,1,$1+$1,$4,$5*
1,1,$1+$1,$6,$7*
1,1,$1+$1,$8,$9*
0 Add four rect primitives between the rounded corners*
20,1,$1+$1,$2,$3,$4,$5,0*
20,1,$1+$1,$4,$5,$6,$7,0*
20,1,$1+$1,$6,$7,$8,$9,0*
20,1,$1+$1,$8,$9,$2,$3,0*%
G04 Aperture macros list end*
%ADD10RoundRect,0.250000X1.100000X-0.325000X1.100000X0.325000X-1.100000X0.325000X-1.100000X-0.325000X0*%
%ADD11RoundRect,0.225000X0.250000X-0.225000X0.250000X0.225000X-0.250000X0.225000X-0.250000X-0.225000X0*%
%ADD12RoundRect,0.225000X-0.250000X0.225000X-0.250000X-0.225000X0.250000X-0.225000X0.250000X0.225000X0*%
%ADD13RoundRect,0.225000X-0.225000X-0.250000X0.225000X-0.250000X0.225000X0.250000X-0.225000X0.250000X0*%
%ADD14RoundRect,0.225000X0.225000X0.250000X-0.225000X0.250000X-0.225000X-0.250000X0.225000X-0.250000X0*%
%ADD15R,1.150000X0.600000*%
%ADD16RoundRect,0.150000X0.875000X0.150000X-0.875000X0.150000X-0.875000X-0.150000X0.875000X-0.150000X0*%
%ADD17RoundRect,0.200000X-0.200000X-0.275000X0.200000X-0.275000X0.200000X0.275000X-0.200000X0.275000X0*%
%ADD18RoundRect,0.218750X-0.256250X0.218750X-0.256250X-0.218750X0.256250X-0.218750X0.256250X0.218750X0*%
%ADD19RoundRect,0.150000X0.150000X-0.875000X0.150000X0.875000X-0.150000X0.875000X-0.150000X-0.875000X0*%
%ADD20RoundRect,0.200000X-0.275000X0.200000X-0.275000X-0.200000X0.275000X-0.200000X0.275000X0.200000X0*%
%ADD21RoundRect,0.250000X-0.650000X-2.450000X0.650000X-2.450000X0.650000X2.450000X-0.650000X2.450000X0*%
%ADD22RoundRect,0.250000X-0.850000X-0.350000X0.850000X-0.350000X0.850000X0.350000X-0.850000X0.350000X0*%
%ADD23RoundRect,0.250000X-1.275000X-1.125000X1.275000X-1.125000X1.275000X1.125000X-1.275000X1.125000X0*%
%ADD24RoundRect,0.250000X-0.250000X-0.475000X0.250000X-0.475000X0.250000X0.475000X-0.250000X0.475000X0*%
%ADD25RoundRect,0.250000X0.625000X-0.312500X0.625000X0.312500X-0.625000X0.312500X-0.625000X-0.312500X0*%
%ADD26RoundRect,0.200000X0.275000X-0.200000X0.275000X0.200000X-0.275000X0.200000X-0.275000X-0.200000X0*%
%ADD27RoundRect,0.150000X-0.875000X-0.150000X0.875000X-0.150000X0.875000X0.150000X-0.875000X0.150000X0*%
%ADD28RoundRect,0.250000X-0.625000X0.312500X-0.625000X-0.312500X0.625000X-0.312500X0.625000X0.312500X0*%
%ADD29RoundRect,0.200000X0.200000X0.275000X-0.200000X0.275000X-0.200000X-0.275000X0.200000X-0.275000X0*%
%ADD30RoundRect,0.150000X-0.150000X0.587500X-0.150000X-0.587500X0.150000X-0.587500X0.150000X0.587500X0*%
%ADD31RoundRect,0.250000X-0.650000X1.000000X-0.650000X-1.000000X0.650000X-1.000000X0.650000X1.000000X0*%
%ADD32RoundRect,0.250000X0.650000X-1.000000X0.650000X1.000000X-0.650000X1.000000X-0.650000X-1.000000X0*%
%ADD33RoundRect,0.250000X-0.262500X-0.450000X0.262500X-0.450000X0.262500X0.450000X-0.262500X0.450000X0*%
%ADD34RoundRect,0.250000X0.850000X0.350000X-0.850000X0.350000X-0.850000X-0.350000X0.850000X-0.350000X0*%
%ADD35RoundRect,0.250000X1.275000X1.125000X-1.275000X1.125000X-1.275000X-1.125000X1.275000X-1.125000X0*%
%ADD36RoundRect,0.250000X-0.312500X-0.625000X0.312500X-0.625000X0.312500X0.625000X-0.312500X0.625000X0*%
%ADD37RoundRect,0.218750X-0.218750X-0.256250X0.218750X-0.256250X0.218750X0.256250X-0.218750X0.256250X0*%
%ADD38RoundRect,0.250000X0.250000X0.475000X-0.250000X0.475000X-0.250000X-0.475000X0.250000X-0.475000X0*%
%ADD39RoundRect,0.218750X0.218750X0.256250X-0.218750X0.256250X-0.218750X-0.256250X0.218750X-0.256250X0*%
%ADD40R,2.000000X3.600000*%
%ADD41R,2.150000X5.500000*%
G04 APERTURE END LIST*
D10*
X166750000Y-37525000D03*
X166750000Y-40475000D03*
D11*
X122100000Y-127475000D03*
X122100000Y-129025000D03*
D12*
X108500000Y-135475000D03*
X108500000Y-137025000D03*
D13*
X119225000Y-123750000D03*
X120775000Y-123750000D03*
D12*
X107000000Y-135475000D03*
X107000000Y-137025000D03*
D14*
X113275000Y-123500000D03*
X111725000Y-123500000D03*
D11*
X123600000Y-129025000D03*
X123600000Y-127475000D03*
D15*
X114950000Y-123800000D03*
X114950000Y-124750000D03*
X114950000Y-125700000D03*
X117550000Y-125700000D03*
X117550000Y-123800000D03*
D16*
X119900000Y-136695000D03*
X119900000Y-135425000D03*
X119900000Y-134155000D03*
X119900000Y-132885000D03*
X119900000Y-131615000D03*
X119900000Y-130345000D03*
X119900000Y-129075000D03*
X119900000Y-127805000D03*
X110600000Y-127805000D03*
X110600000Y-129075000D03*
X110600000Y-130345000D03*
X110600000Y-131615000D03*
X110600000Y-132885000D03*
X110600000Y-134155000D03*
X110600000Y-135425000D03*
X110600000Y-136695000D03*
D17*
X119175000Y-125500000D03*
X120825000Y-125500000D03*
D18*
X122500000Y-123962500D03*
X122500000Y-125537500D03*
D19*
X174555000Y-49600000D03*
X175825000Y-49600000D03*
X177095000Y-49600000D03*
X178365000Y-49600000D03*
X179635000Y-49600000D03*
X180905000Y-49600000D03*
X182175000Y-49600000D03*
X183445000Y-49600000D03*
X183445000Y-58900000D03*
X182175000Y-58900000D03*
X180905000Y-58900000D03*
X179635000Y-58900000D03*
X178365000Y-58900000D03*
X177095000Y-58900000D03*
X175825000Y-58900000D03*
X174555000Y-58900000D03*
D20*
X114650000Y-113575000D03*
X114650000Y-111925000D03*
D21*
X145000000Y-96250000D03*
X139900000Y-96250000D03*
D22*
X117025000Y-100555000D03*
X117025000Y-95995000D03*
D23*
X125000000Y-99800000D03*
X125000000Y-96750000D03*
X121650000Y-99800000D03*
X121650000Y-96750000D03*
D24*
X214450000Y-105800000D03*
X212550000Y-105800000D03*
D21*
X241000000Y-84250000D03*
X235900000Y-84250000D03*
D20*
X179500000Y-104575000D03*
X179500000Y-102925000D03*
D25*
X168500000Y-72787500D03*
X168500000Y-75712500D03*
D21*
X241000000Y-78250000D03*
X235900000Y-78250000D03*
D26*
X201450000Y-72925000D03*
X201450000Y-74575000D03*
X177800000Y-63925000D03*
X177800000Y-65575000D03*
D21*
X152500000Y-84250000D03*
X147400000Y-84250000D03*
D26*
X204850000Y-92425000D03*
X204850000Y-94075000D03*
D27*
X182150000Y-127805000D03*
X182150000Y-129075000D03*
X182150000Y-130345000D03*
X182150000Y-131615000D03*
X182150000Y-132885000D03*
X182150000Y-134155000D03*
X182150000Y-135425000D03*
X182150000Y-136695000D03*
X172850000Y-136695000D03*
X172850000Y-135425000D03*
X172850000Y-134155000D03*
X172850000Y-132885000D03*
X172850000Y-131615000D03*
X172850000Y-130345000D03*
X172850000Y-129075000D03*
X172850000Y-127805000D03*
D26*
X177800000Y-83425000D03*
X177800000Y-85075000D03*
D12*
X200000000Y-137025000D03*
X200000000Y-135475000D03*
D28*
X212500000Y-91212500D03*
X212500000Y-88287500D03*
D22*
X116950000Y-120030000D03*
X116950000Y-115470000D03*
D23*
X124925000Y-119275000D03*
X124925000Y-116225000D03*
X121575000Y-119275000D03*
X121575000Y-116225000D03*
D14*
X108475000Y-61000000D03*
X110025000Y-61000000D03*
D20*
X268000000Y-104575000D03*
X268000000Y-102925000D03*
D29*
X199925000Y-65500000D03*
X201575000Y-65500000D03*
D19*
X197305000Y-49600000D03*
X198575000Y-49600000D03*
X199845000Y-49600000D03*
X201115000Y-49600000D03*
X202385000Y-49600000D03*
X203655000Y-49600000D03*
X204925000Y-49600000D03*
X206195000Y-49600000D03*
X206195000Y-58900000D03*
X204925000Y-58900000D03*
X203655000Y-58900000D03*
X202385000Y-58900000D03*
X201115000Y-58900000D03*
X199845000Y-58900000D03*
X198575000Y-58900000D03*
X197305000Y-58900000D03*
D26*
X181200000Y-63925000D03*
X181200000Y-65575000D03*
D30*
X165750000Y-58500000D03*
X164800000Y-56625000D03*
X166700000Y-56625000D03*
D29*
X164925000Y-54750000D03*
X166575000Y-54750000D03*
D31*
X209500000Y-109750000D03*
X209500000Y-105750000D03*
D14*
X267725000Y-124500000D03*
X269275000Y-124500000D03*
D25*
X257000000Y-111787500D03*
X257000000Y-114712500D03*
D17*
X256325000Y-130750000D03*
X254675000Y-130750000D03*
D32*
X260000000Y-93250000D03*
X260000000Y-97250000D03*
D21*
X241000000Y-90250000D03*
X235900000Y-90250000D03*
D33*
X238912500Y-67750000D03*
X237087500Y-67750000D03*
D21*
X241000000Y-72250000D03*
X235900000Y-72250000D03*
D33*
X150412500Y-67750000D03*
X148587500Y-67750000D03*
D30*
X196000000Y-67250000D03*
X195050000Y-65375000D03*
X196950000Y-65375000D03*
D34*
X263975000Y-82945000D03*
X263975000Y-87505000D03*
D35*
X256000000Y-83700000D03*
X256000000Y-86750000D03*
X259350000Y-83700000D03*
X259350000Y-86750000D03*
D26*
X269700000Y-63925000D03*
X269700000Y-65575000D03*
D21*
X233500000Y-84250000D03*
X228400000Y-84250000D03*
D36*
X249212500Y-123250000D03*
X246287500Y-123250000D03*
D31*
X121000000Y-90250000D03*
X121000000Y-86250000D03*
D19*
X108805000Y-49600000D03*
X110075000Y-49600000D03*
X111345000Y-49600000D03*
X112615000Y-49600000D03*
X113885000Y-49600000D03*
X115155000Y-49600000D03*
X116425000Y-49600000D03*
X117695000Y-49600000D03*
X117695000Y-58900000D03*
X116425000Y-58900000D03*
X115155000Y-58900000D03*
X113885000Y-58900000D03*
X112615000Y-58900000D03*
X111345000Y-58900000D03*
X110075000Y-58900000D03*
X108805000Y-58900000D03*
D37*
X137037500Y-61750000D03*
X135462500Y-61750000D03*
D13*
X212275000Y-123750000D03*
X210725000Y-123750000D03*
D31*
X121000000Y-109750000D03*
X121000000Y-105750000D03*
D26*
X259750000Y-55675000D03*
X259750000Y-57325000D03*
D11*
X172750000Y-55725000D03*
X172750000Y-57275000D03*
D17*
X170825000Y-130750000D03*
X169175000Y-130750000D03*
D21*
X152500000Y-90250000D03*
X147400000Y-90250000D03*
D26*
X204850000Y-72925000D03*
X204850000Y-74575000D03*
D17*
X212325000Y-125500000D03*
X210675000Y-125500000D03*
D28*
X212500000Y-110712500D03*
X212500000Y-107787500D03*
D11*
X258000000Y-123975000D03*
X258000000Y-125525000D03*
D12*
X170750000Y-138525000D03*
X170750000Y-136975000D03*
D38*
X166550000Y-77700000D03*
X168450000Y-77700000D03*
D30*
X107500000Y-67250000D03*
X106550000Y-65375000D03*
X108450000Y-65375000D03*
D20*
X268000000Y-65575000D03*
X268000000Y-63925000D03*
D21*
X152500000Y-102250000D03*
X147400000Y-102250000D03*
D28*
X124000000Y-91212500D03*
X124000000Y-88287500D03*
D29*
X169175000Y-128750000D03*
X170825000Y-128750000D03*
X111425000Y-65500000D03*
X113075000Y-65500000D03*
D38*
X255050000Y-97200000D03*
X256950000Y-97200000D03*
D20*
X203150000Y-113575000D03*
X203150000Y-111925000D03*
D25*
X168500000Y-111787500D03*
X168500000Y-114712500D03*
D26*
X266300000Y-63925000D03*
X266300000Y-65575000D03*
D21*
X233500000Y-90250000D03*
X228400000Y-90250000D03*
D31*
X209500000Y-70750000D03*
X209500000Y-66750000D03*
D33*
X232412500Y-67750000D03*
X230587500Y-67750000D03*
D28*
X124000000Y-71712500D03*
X124000000Y-68787500D03*
D21*
X233500000Y-78250000D03*
X228400000Y-78250000D03*
D20*
X114650000Y-94075000D03*
X114650000Y-92425000D03*
D22*
X205525000Y-100555000D03*
X205525000Y-95995000D03*
D23*
X213500000Y-99800000D03*
X213500000Y-96750000D03*
X210150000Y-99800000D03*
X210150000Y-96750000D03*
D26*
X171250000Y-55675000D03*
X171250000Y-57325000D03*
X116350000Y-111925000D03*
X116350000Y-113575000D03*
D32*
X260000000Y-112750000D03*
X260000000Y-116750000D03*
D17*
X258325000Y-57000000D03*
X256675000Y-57000000D03*
D22*
X116950000Y-81055000D03*
X116950000Y-76495000D03*
D23*
X124925000Y-80300000D03*
X124925000Y-77250000D03*
X121575000Y-80300000D03*
X121575000Y-77250000D03*
D26*
X201450000Y-92425000D03*
X201450000Y-94075000D03*
D11*
X264000000Y-123975000D03*
X264000000Y-125525000D03*
D34*
X264050000Y-102470000D03*
X264050000Y-107030000D03*
D35*
X256075000Y-103225000D03*
X256075000Y-106275000D03*
X259425000Y-103225000D03*
X259425000Y-106275000D03*
D21*
X241000000Y-96250000D03*
X235900000Y-96250000D03*
D38*
X255050000Y-116750000D03*
X256950000Y-116750000D03*
D21*
X145000000Y-90250000D03*
X139900000Y-90250000D03*
X152500000Y-78250000D03*
X147400000Y-78250000D03*
D20*
X203150000Y-94075000D03*
X203150000Y-92425000D03*
D18*
X214000000Y-125537500D03*
X214000000Y-123962500D03*
D38*
X166550000Y-97200000D03*
X168450000Y-97200000D03*
D37*
X225537500Y-61750000D03*
X223962500Y-61750000D03*
D21*
X233500000Y-102250000D03*
X228400000Y-102250000D03*
D32*
X260000000Y-73750000D03*
X260000000Y-77750000D03*
D34*
X263975000Y-63470000D03*
X263975000Y-68030000D03*
D35*
X256000000Y-64225000D03*
X256000000Y-67275000D03*
X259350000Y-64225000D03*
X259350000Y-67275000D03*
D32*
X171500000Y-112750000D03*
X171500000Y-116750000D03*
D10*
X228750000Y-36827500D03*
X228750000Y-39777500D03*
D34*
X175475000Y-63470000D03*
X175475000Y-68030000D03*
D35*
X167500000Y-64225000D03*
X167500000Y-67275000D03*
X170850000Y-64225000D03*
X170850000Y-67275000D03*
D11*
X261250000Y-55725000D03*
X261250000Y-57275000D03*
D25*
X168500000Y-92287500D03*
X168500000Y-95212500D03*
D12*
X256000000Y-136525000D03*
X256000000Y-134975000D03*
D32*
X171500000Y-93250000D03*
X171500000Y-97250000D03*
D15*
X174200000Y-125700000D03*
X174200000Y-123800000D03*
X176800000Y-123800000D03*
X176800000Y-124750000D03*
X176800000Y-125700000D03*
D12*
X254500000Y-136525000D03*
X254500000Y-134975000D03*
D15*
X259700000Y-125700000D03*
X259700000Y-123800000D03*
X262300000Y-123800000D03*
X262300000Y-124750000D03*
X262300000Y-125700000D03*
D26*
X266300000Y-83425000D03*
X266300000Y-85075000D03*
D39*
X254712500Y-124000000D03*
X256287500Y-124000000D03*
D26*
X116350000Y-92425000D03*
X116350000Y-94075000D03*
D37*
X131037500Y-61802500D03*
X129462500Y-61802500D03*
D33*
X143912500Y-67750000D03*
X142087500Y-67750000D03*
D31*
X209500000Y-90250000D03*
X209500000Y-86250000D03*
D38*
X255050000Y-77700000D03*
X256950000Y-77700000D03*
D21*
X145000000Y-84250000D03*
X139900000Y-84250000D03*
D26*
X204850000Y-111925000D03*
X204850000Y-113575000D03*
X112950000Y-72925000D03*
X112950000Y-74575000D03*
X266300000Y-102925000D03*
X266300000Y-104575000D03*
D14*
X172725000Y-138500000D03*
X174275000Y-138500000D03*
D20*
X203150000Y-74575000D03*
X203150000Y-72925000D03*
D31*
X121000000Y-70750000D03*
X121000000Y-66750000D03*
D29*
X254675000Y-128750000D03*
X256325000Y-128750000D03*
D26*
X181200000Y-102925000D03*
X181200000Y-104575000D03*
D11*
X172500000Y-123975000D03*
X172500000Y-125525000D03*
X215100000Y-127975000D03*
X215100000Y-129525000D03*
D26*
X110000000Y-63925000D03*
X110000000Y-65575000D03*
D24*
X125950000Y-105800000D03*
X124050000Y-105800000D03*
X125950000Y-66800000D03*
X124050000Y-66800000D03*
D19*
X263055000Y-49600000D03*
X264325000Y-49600000D03*
X265595000Y-49600000D03*
X266865000Y-49600000D03*
X268135000Y-49600000D03*
X269405000Y-49600000D03*
X270675000Y-49600000D03*
X271945000Y-49600000D03*
X271945000Y-58900000D03*
X270675000Y-58900000D03*
X269405000Y-58900000D03*
X268135000Y-58900000D03*
X266865000Y-58900000D03*
X265595000Y-58900000D03*
X264325000Y-58900000D03*
X263055000Y-58900000D03*
D21*
X241000000Y-102250000D03*
X235900000Y-102250000D03*
D39*
X169212500Y-124000000D03*
X170787500Y-124000000D03*
D10*
X232750000Y-36827500D03*
X232750000Y-39777500D03*
D21*
X233500000Y-72250000D03*
X228400000Y-72250000D03*
D15*
X209050000Y-123800000D03*
X209050000Y-125700000D03*
X206450000Y-125700000D03*
X206450000Y-124750000D03*
X206450000Y-123800000D03*
D29*
X253425000Y-54750000D03*
X255075000Y-54750000D03*
D14*
X196975000Y-61000000D03*
X198525000Y-61000000D03*
D20*
X268000000Y-85075000D03*
X268000000Y-83425000D03*
D21*
X145000000Y-72250000D03*
X139900000Y-72250000D03*
D26*
X181200000Y-83425000D03*
X181200000Y-85075000D03*
D24*
X214450000Y-86300000D03*
X212550000Y-86300000D03*
D26*
X269700000Y-102925000D03*
X269700000Y-104575000D03*
D21*
X145000000Y-102250000D03*
X139900000Y-102250000D03*
D26*
X198500000Y-63925000D03*
X198500000Y-65575000D03*
D14*
X267725000Y-126000000D03*
X269275000Y-126000000D03*
D30*
X254250000Y-58500000D03*
X253300000Y-56625000D03*
X255200000Y-56625000D03*
D25*
X257000000Y-72787500D03*
X257000000Y-75712500D03*
D32*
X171500000Y-73750000D03*
X171500000Y-77750000D03*
D21*
X233500000Y-96250000D03*
X228400000Y-96250000D03*
D29*
X254675000Y-125500000D03*
X256325000Y-125500000D03*
D40*
X140550000Y-43302500D03*
X143950000Y-43302500D03*
D34*
X175550000Y-102470000D03*
X175550000Y-107030000D03*
D35*
X167575000Y-103225000D03*
X167575000Y-106275000D03*
X170925000Y-103225000D03*
X170925000Y-106275000D03*
D38*
X166550000Y-116750000D03*
X168450000Y-116750000D03*
D24*
X125950000Y-86300000D03*
X124050000Y-86300000D03*
D40*
X229050000Y-43302500D03*
X232450000Y-43302500D03*
D11*
X178500000Y-123975000D03*
X178500000Y-125525000D03*
D26*
X177800000Y-102925000D03*
X177800000Y-104575000D03*
D29*
X108425000Y-62500000D03*
X110075000Y-62500000D03*
D21*
X145000000Y-78250000D03*
X139900000Y-78250000D03*
D20*
X114650000Y-74575000D03*
X114650000Y-72925000D03*
D17*
X169825000Y-57000000D03*
X168175000Y-57000000D03*
D14*
X182225000Y-126000000D03*
X183775000Y-126000000D03*
D21*
X152500000Y-96250000D03*
X147400000Y-96250000D03*
D26*
X201450000Y-111925000D03*
X201450000Y-113575000D03*
D12*
X198500000Y-137025000D03*
X198500000Y-135475000D03*
D28*
X124000000Y-110712500D03*
X124000000Y-107787500D03*
D20*
X179500000Y-65575000D03*
X179500000Y-63925000D03*
D10*
X140250000Y-36827500D03*
X140250000Y-39777500D03*
D22*
X205450000Y-120030000D03*
X205450000Y-115470000D03*
D23*
X213425000Y-119275000D03*
X213425000Y-116225000D03*
X210075000Y-119275000D03*
X210075000Y-116225000D03*
D34*
X175475000Y-82945000D03*
X175475000Y-87505000D03*
D35*
X167500000Y-83700000D03*
X167500000Y-86750000D03*
X170850000Y-83700000D03*
X170850000Y-86750000D03*
D26*
X112950000Y-111925000D03*
X112950000Y-113575000D03*
D11*
X213600000Y-127975000D03*
X213600000Y-129525000D03*
D10*
X144250000Y-36827500D03*
X144250000Y-39777500D03*
D14*
X182225000Y-124500000D03*
X183775000Y-124500000D03*
D16*
X202100000Y-136695000D03*
X202100000Y-135425000D03*
X202100000Y-134155000D03*
X202100000Y-132885000D03*
X202100000Y-131615000D03*
X202100000Y-130345000D03*
X202100000Y-129075000D03*
X202100000Y-127805000D03*
X211400000Y-127805000D03*
X211400000Y-129075000D03*
X211400000Y-130345000D03*
X211400000Y-131615000D03*
X211400000Y-132885000D03*
X211400000Y-134155000D03*
X211400000Y-135425000D03*
X211400000Y-136695000D03*
D28*
X212500000Y-71712500D03*
X212500000Y-68787500D03*
D26*
X112950000Y-92425000D03*
X112950000Y-94075000D03*
D37*
X219537500Y-61802500D03*
X217962500Y-61802500D03*
D29*
X196925000Y-62500000D03*
X198575000Y-62500000D03*
X169175000Y-125500000D03*
X170825000Y-125500000D03*
D14*
X203225000Y-123500000D03*
X204775000Y-123500000D03*
D27*
X267650000Y-127805000D03*
X267650000Y-129075000D03*
X267650000Y-130345000D03*
X267650000Y-131615000D03*
X267650000Y-132885000D03*
X267650000Y-134155000D03*
X267650000Y-135425000D03*
X267650000Y-136695000D03*
X258350000Y-136695000D03*
X258350000Y-135425000D03*
X258350000Y-134155000D03*
X258350000Y-132885000D03*
X258350000Y-131615000D03*
X258350000Y-130345000D03*
X258350000Y-129075000D03*
X258350000Y-127805000D03*
D22*
X205450000Y-81055000D03*
X205450000Y-76495000D03*
D23*
X213425000Y-80300000D03*
X213425000Y-77250000D03*
X210075000Y-80300000D03*
X210075000Y-77250000D03*
D24*
X214450000Y-66800000D03*
X212550000Y-66800000D03*
D36*
X158712500Y-123250000D03*
X155787500Y-123250000D03*
D25*
X257000000Y-92287500D03*
X257000000Y-95212500D03*
D20*
X179500000Y-85075000D03*
X179500000Y-83425000D03*
D26*
X269700000Y-83425000D03*
X269700000Y-85075000D03*
D21*
X152500000Y-72250000D03*
X147400000Y-72250000D03*
D26*
X116350000Y-72925000D03*
X116350000Y-74575000D03*
D29*
X78075000Y-54750000D03*
X76425000Y-54750000D03*
D37*
X149212500Y-61750000D03*
X150787500Y-61750000D03*
D30*
X19950000Y-65375000D03*
X18050000Y-65375000D03*
X19000000Y-67250000D03*
D21*
X58900000Y-96250000D03*
X64000000Y-96250000D03*
D15*
X85300000Y-125700000D03*
X85300000Y-124750000D03*
X85300000Y-123800000D03*
X82700000Y-123800000D03*
X82700000Y-125700000D03*
D35*
X82350000Y-86750000D03*
X82350000Y-83700000D03*
X79000000Y-86750000D03*
X79000000Y-83700000D03*
D34*
X86975000Y-87505000D03*
X86975000Y-82945000D03*
D28*
X35500000Y-107787500D03*
X35500000Y-110712500D03*
D26*
X89300000Y-85075000D03*
X89300000Y-83425000D03*
X24450000Y-74575000D03*
X24450000Y-72925000D03*
D29*
X79325000Y-125500000D03*
X77675000Y-125500000D03*
D26*
X27850000Y-94075000D03*
X27850000Y-92425000D03*
X89300000Y-104575000D03*
X89300000Y-102925000D03*
D20*
X91000000Y-102925000D03*
X91000000Y-104575000D03*
D21*
X51400000Y-90250000D03*
X56500000Y-90250000D03*
D24*
X35550000Y-105800000D03*
X37450000Y-105800000D03*
D26*
X27850000Y-74575000D03*
X27850000Y-72925000D03*
X92700000Y-65575000D03*
X92700000Y-63925000D03*
D20*
X26150000Y-72925000D03*
X26150000Y-74575000D03*
D26*
X21500000Y-65575000D03*
X21500000Y-63925000D03*
D21*
X58900000Y-84250000D03*
X64000000Y-84250000D03*
D37*
X155212500Y-61750000D03*
X156787500Y-61750000D03*
D15*
X29450000Y-123800000D03*
X29450000Y-124750000D03*
X29450000Y-125700000D03*
X32050000Y-125700000D03*
X32050000Y-123800000D03*
D17*
X33675000Y-125500000D03*
X35325000Y-125500000D03*
D38*
X79950000Y-116750000D03*
X78050000Y-116750000D03*
D26*
X256250000Y-144325000D03*
X256250000Y-142675000D03*
D41*
X163425000Y-42500000D03*
X159575000Y-42500000D03*
D21*
X51400000Y-78250000D03*
X56500000Y-78250000D03*
D28*
X35500000Y-68787500D03*
X35500000Y-71712500D03*
D31*
X32500000Y-66750000D03*
X32500000Y-70750000D03*
D10*
X55750000Y-39777500D03*
X55750000Y-36827500D03*
D26*
X24450000Y-113575000D03*
X24450000Y-111925000D03*
D33*
X53587500Y-67750000D03*
X55412500Y-67750000D03*
D23*
X33150000Y-96750000D03*
X33150000Y-99800000D03*
X36500000Y-96750000D03*
X36500000Y-99800000D03*
D22*
X28525000Y-95995000D03*
X28525000Y-100555000D03*
D29*
X24575000Y-65500000D03*
X22925000Y-65500000D03*
D31*
X32500000Y-105750000D03*
X32500000Y-109750000D03*
D38*
X79950000Y-77700000D03*
X78050000Y-77700000D03*
D20*
X91000000Y-83425000D03*
X91000000Y-85075000D03*
D29*
X79325000Y-128750000D03*
X77675000Y-128750000D03*
D12*
X79000000Y-134975000D03*
X79000000Y-136525000D03*
D37*
X40962500Y-61802500D03*
X42537500Y-61802500D03*
D20*
X91000000Y-63925000D03*
X91000000Y-65575000D03*
D29*
X21575000Y-62500000D03*
X19925000Y-62500000D03*
D11*
X81000000Y-125525000D03*
X81000000Y-123975000D03*
X254750000Y-150525000D03*
X254750000Y-148975000D03*
D32*
X83000000Y-116750000D03*
X83000000Y-112750000D03*
D14*
X27775000Y-123500000D03*
X26225000Y-123500000D03*
D10*
X51750000Y-39777500D03*
X51750000Y-36827500D03*
D12*
X21500000Y-135475000D03*
X21500000Y-137025000D03*
D11*
X248750000Y-150275000D03*
X248750000Y-148725000D03*
D32*
X83000000Y-77750000D03*
X83000000Y-73750000D03*
D14*
X21525000Y-61000000D03*
X19975000Y-61000000D03*
D21*
X58900000Y-78250000D03*
X64000000Y-78250000D03*
D12*
X23000000Y-135475000D03*
X23000000Y-137025000D03*
D11*
X36600000Y-129525000D03*
X36600000Y-127975000D03*
D27*
X258350000Y-140055000D03*
X258350000Y-141325000D03*
X258350000Y-142595000D03*
X258350000Y-143865000D03*
X258350000Y-145135000D03*
X258350000Y-146405000D03*
X258350000Y-147675000D03*
X258350000Y-148945000D03*
X267650000Y-148945000D03*
X267650000Y-147675000D03*
X267650000Y-146405000D03*
X267650000Y-145135000D03*
X267650000Y-143865000D03*
X267650000Y-142595000D03*
X267650000Y-141325000D03*
X267650000Y-140055000D03*
D28*
X35500000Y-88287500D03*
X35500000Y-91212500D03*
D11*
X84250000Y-57275000D03*
X84250000Y-55725000D03*
D21*
X51400000Y-72250000D03*
X56500000Y-72250000D03*
D37*
X46962500Y-61750000D03*
X48537500Y-61750000D03*
D24*
X35550000Y-86300000D03*
X37450000Y-86300000D03*
D18*
X37000000Y-123962500D03*
X37000000Y-125537500D03*
D19*
X86055000Y-58900000D03*
X87325000Y-58900000D03*
X88595000Y-58900000D03*
X89865000Y-58900000D03*
X91135000Y-58900000D03*
X92405000Y-58900000D03*
X93675000Y-58900000D03*
X94945000Y-58900000D03*
X94945000Y-49600000D03*
X93675000Y-49600000D03*
X92405000Y-49600000D03*
X91135000Y-49600000D03*
X89865000Y-49600000D03*
X88595000Y-49600000D03*
X87325000Y-49600000D03*
X86055000Y-49600000D03*
D39*
X79287500Y-124000000D03*
X77712500Y-124000000D03*
D14*
X92275000Y-126000000D03*
X90725000Y-126000000D03*
D40*
X55450000Y-43302500D03*
X52050000Y-43302500D03*
D21*
X51400000Y-84250000D03*
X56500000Y-84250000D03*
D26*
X256250000Y-141325000D03*
X256250000Y-139675000D03*
D21*
X58900000Y-102250000D03*
X64000000Y-102250000D03*
X58900000Y-72250000D03*
X64000000Y-72250000D03*
X51400000Y-102250000D03*
X56500000Y-102250000D03*
D11*
X38100000Y-129525000D03*
X38100000Y-127975000D03*
D14*
X92275000Y-124500000D03*
X90725000Y-124500000D03*
D32*
X83000000Y-97250000D03*
X83000000Y-93250000D03*
D23*
X33075000Y-116225000D03*
X33075000Y-119275000D03*
X36425000Y-116225000D03*
X36425000Y-119275000D03*
D22*
X28450000Y-115470000D03*
X28450000Y-120030000D03*
D15*
X253050000Y-150450000D03*
X253050000Y-149500000D03*
X253050000Y-148550000D03*
X250450000Y-148550000D03*
X250450000Y-150450000D03*
D25*
X80000000Y-75712500D03*
X80000000Y-72787500D03*
D36*
X240787500Y-146500000D03*
X243712500Y-146500000D03*
D39*
X248787500Y-147000000D03*
X247212500Y-147000000D03*
D26*
X27850000Y-113575000D03*
X27850000Y-111925000D03*
D30*
X78200000Y-56625000D03*
X76300000Y-56625000D03*
X77250000Y-58500000D03*
D19*
X20305000Y-58900000D03*
X21575000Y-58900000D03*
X22845000Y-58900000D03*
X24115000Y-58900000D03*
X25385000Y-58900000D03*
X26655000Y-58900000D03*
X27925000Y-58900000D03*
X29195000Y-58900000D03*
X29195000Y-49600000D03*
X27925000Y-49600000D03*
X26655000Y-49600000D03*
X25385000Y-49600000D03*
X24115000Y-49600000D03*
X22845000Y-49600000D03*
X21575000Y-49600000D03*
X20305000Y-49600000D03*
D27*
X81350000Y-127805000D03*
X81350000Y-129075000D03*
X81350000Y-130345000D03*
X81350000Y-131615000D03*
X81350000Y-132885000D03*
X81350000Y-134155000D03*
X81350000Y-135425000D03*
X81350000Y-136695000D03*
X90650000Y-136695000D03*
X90650000Y-135425000D03*
X90650000Y-134155000D03*
X90650000Y-132885000D03*
X90650000Y-131615000D03*
X90650000Y-130345000D03*
X90650000Y-129075000D03*
X90650000Y-127805000D03*
D35*
X82425000Y-106275000D03*
X82425000Y-103225000D03*
X79075000Y-106275000D03*
X79075000Y-103225000D03*
D34*
X87050000Y-107030000D03*
X87050000Y-102470000D03*
D20*
X26150000Y-111925000D03*
X26150000Y-113575000D03*
D24*
X35550000Y-66800000D03*
X37450000Y-66800000D03*
D11*
X87000000Y-125525000D03*
X87000000Y-123975000D03*
D17*
X77675000Y-130750000D03*
X79325000Y-130750000D03*
D36*
X69287500Y-123250000D03*
X72212500Y-123250000D03*
D12*
X77500000Y-134975000D03*
X77500000Y-136525000D03*
D25*
X80000000Y-95212500D03*
X80000000Y-92287500D03*
D26*
X92700000Y-85075000D03*
X92700000Y-83425000D03*
D38*
X79950000Y-97200000D03*
X78050000Y-97200000D03*
D35*
X82350000Y-67275000D03*
X82350000Y-64225000D03*
X79000000Y-67275000D03*
X79000000Y-64225000D03*
D34*
X86975000Y-68030000D03*
X86975000Y-63470000D03*
D23*
X33075000Y-77250000D03*
X33075000Y-80300000D03*
X36425000Y-77250000D03*
X36425000Y-80300000D03*
D22*
X28450000Y-76495000D03*
X28450000Y-81055000D03*
D11*
X254750000Y-147250000D03*
X254750000Y-145700000D03*
D21*
X58900000Y-90250000D03*
X64000000Y-90250000D03*
D33*
X60087500Y-67750000D03*
X61912500Y-67750000D03*
D26*
X89300000Y-65575000D03*
X89300000Y-63925000D03*
D16*
X34400000Y-136695000D03*
X34400000Y-135425000D03*
X34400000Y-134155000D03*
X34400000Y-132885000D03*
X34400000Y-131615000D03*
X34400000Y-130345000D03*
X34400000Y-129075000D03*
X34400000Y-127805000D03*
X25100000Y-127805000D03*
X25100000Y-129075000D03*
X25100000Y-130345000D03*
X25100000Y-131615000D03*
X25100000Y-132885000D03*
X25100000Y-134155000D03*
X25100000Y-135425000D03*
X25100000Y-136695000D03*
D13*
X33725000Y-123750000D03*
X35275000Y-123750000D03*
D26*
X82750000Y-57325000D03*
X82750000Y-55675000D03*
D20*
X26150000Y-92425000D03*
X26150000Y-94075000D03*
D26*
X247250000Y-150325000D03*
X247250000Y-148675000D03*
D17*
X79675000Y-57000000D03*
X81325000Y-57000000D03*
D11*
X256250000Y-147275000D03*
X256250000Y-145725000D03*
D21*
X51400000Y-96250000D03*
X56500000Y-96250000D03*
D25*
X80000000Y-114712500D03*
X80000000Y-111787500D03*
D26*
X92700000Y-104575000D03*
X92700000Y-102925000D03*
D31*
X32500000Y-86250000D03*
X32500000Y-90250000D03*
D26*
X24450000Y-94075000D03*
X24450000Y-92425000D03*
M02*
